<svg width="16" height="16" viewBox="0 0 16 16" fill="none" xmlns="http://www.w3.org/2000/svg">
<g clip-path="url(#clip0_11362_37159)">
<path d="M8 7C9.65 7 11 5.65 11 4C11 2.35 9.65 1 8 1C6.35 1 5 2.35 5 4C5 5.65 6.35 7 8 7ZM8 2C9.1 2 10 2.9 10 4C10 5.1 9.1 6 8 6C6.9 6 6 5.1 6 4C6 2.9 6.9 2 8 2ZM10.5 7.5H5.5C4.1 7.5 3 8.6 3 10C3 12.75 5.25 15 8 15C10.75 15 13 12.75 13 10C13 8.6 11.9 7.5 10.5 7.5ZM8 14C5.8 14 4 12.2 4 10C4 9.15 4.65 8.5 5.5 8.5H10.5C11.35 8.5 12 9.15 12 10C12 12.2 10.2 14 8 14Z" fill="#101419"/>
</g>
<defs>
<clipPath id="clip0_11362_37159">
<rect width="16" height="16" fill="white"/>
</clipPath>
</defs>
</svg>
