<svg width="16" height="16" viewBox="0 0 16 16" fill="none" xmlns="http://www.w3.org/2000/svg">
<g clip-path="url(#clip0_7667_34060)">
<path d="M13 2H11V1H10V2H6V1H5V2H3C2.45 2 2 2.45 2 3V13C2 13.55 2.45 14 3 14H13C13.55 14 14 13.55 14 13V3C14 2.45 13.55 2 13 2ZM13 13H3V6H13V13ZM13 5H3V3H5V4H6V3H10V4H11V3H13V5ZM5.5 7H4.5V8H5.5V7ZM5.5 9H4.5V10H5.5V9ZM5.5 11H4.5V12H5.5V11ZM8.5 7H7.5V8H8.5V7ZM8.5 9H7.5V10H8.5V9ZM8.5 11H7.5V12H8.5V11ZM11.5 7H10.5V8H11.5V7ZM11.5 9H10.5V10H11.5V9ZM11.5 11H10.5V12H11.5V11Z" fill="#101419"/>
</g>
<defs>
<clipPath id="clip0_7667_34060">
<rect width="16" height="16" fill="white"/>
</clipPath>
</defs>
</svg>
