<svg width="16" height="16" viewBox="0 0 16 16" fill="none" xmlns="http://www.w3.org/2000/svg">
<g clip-path="url(#clip0_7636_33887)">
<path d="M2 14.5C1.85 14.5 1.75 14.5 1.6 14.4C1.25 14.25 1 13.9 1 13.5V3C1 2.45 1.45 2 2 2H14C14.55 2 15 2.45 15 3V11C15 11.55 14.55 12 14 12H4.75L2.7 14.2C2.5 14.4 2.25 14.5 2 14.5ZM2 3V13.5L4.25 11H14V3H2ZM12 5H4V6H12V5ZM12 8H4V9H12V8Z" fill="#101419"/>
</g>
<defs>
<clipPath id="clip0_7636_33887">
<rect width="16" height="16" fill="white"/>
</clipPath>
</defs>
</svg>
