<svg width="16" height="16" viewBox="0 0 16 16" fill="none" xmlns="http://www.w3.org/2000/svg">
<g clip-path="url(#clip0_7669_33990)">
<path d="M6 13V7H7V13H6ZM10 7H9V13H10V7ZM14 4V5C14 5.55 13.55 6 13 6V14C13 14.55 12.55 15 12 15H4C3.45 15 3 14.55 3 14V6C2.45 6 2 5.55 2 5V4C2 3.45 2.45 3 3 3H6V2C6 1.45 6.45 1 7 1H9C9.55 1 10 1.45 10 2V3H13C13.55 3 14 3.45 14 4ZM7 3H9V2H7V3ZM12 6H4V14H12V6ZM13 5V4H3V5H13Z" fill="#101419"/>
</g>
<defs>
<clipPath id="clip0_7669_33990">
<rect width="16" height="16" fill="white"/>
</clipPath>
</defs>
</svg>
