<svg width="16" height="16" viewBox="0 0 16 16" fill="none" xmlns="http://www.w3.org/2000/svg">
<g clip-path="url(#clip0_7634_33794)">
<path d="M3.5 10H5.5V12C5.5 13.4 6.6 14.5 8 14.5H8.5C9.05 14.5 9.5 14.05 9.5 13.5V11.15L11.3 8H14C14.55 8 15 7.55 15 7V2C15 1.45 14.55 1 14 1H11H10.5H3.5C2.1 1 1 2.1 1 3.5V7.5C1 8.9 2.1 10 3.5 10ZM11.5 2H14V7H11.5V2ZM2 3.5C2 2.65 2.65 2 3.5 2H10.5V7.35L8.5 10.85V13.5H8C7.15 13.5 6.5 12.85 6.5 12V9H3.5C2.65 9 2 8.35 2 7.5V3.5Z" fill="#101419"/>
</g>
<defs>
<clipPath id="clip0_7634_33794">
<rect width="16" height="16" fill="white"/>
</clipPath>
</defs>
</svg>
