<svg width="16" height="16" viewBox="0 0 16 16" fill="none" xmlns="http://www.w3.org/2000/svg">
<g clip-path="url(#clip0_7604_33673)">
<path d="M14.7 2L14 1.3C13.6 0.9 13 0.9 12.6 1.3L1.75 12.15C1.6 12.3 1.5 12.45 1.5 12.65L1 15L3.35 14.55C3.55 14.5 3.7 14.4 3.85 14.3L14.7 3.4C15.1 3 15.1 2.4 14.7 2ZM14 2.7L13.3 3.4L12.6 2.7L13.3 2L14 2.7ZM2.25 13.75L2.45 12.85L11.9 3.4L12.6 4.1L3.15 13.55L2.25 13.75Z" fill="#101419"/>
</g>
<defs>
<clipPath id="clip0_7604_33673">
<rect width="16" height="16" fill="white"/>
</clipPath>
</defs>
</svg>
