<svg width="16" height="16" viewBox="0 0 16 16" fill="none" xmlns="http://www.w3.org/2000/svg">
<g clip-path="url(#clip0_11362_37171)">
<path d="M14.5 12.5H12.5V14.5H11.5V12.5H9.5V11.5H11.5V9.5H12.5V11.5H14.5V12.5ZM5 4C5 2.35 6.35 1 8 1C9.65 1 11 2.35 11 4C11 5.65 9.65 7 8 7C6.35 7 5 5.65 5 4ZM6 4C6 5.1 6.9 6 8 6C9.1 6 10 5.1 10 4C10 2.9 9.1 2 8 2C6.9 2 6 2.9 6 4ZM4 10C4 9.15 4.65 8.5 5.5 8.5H10.5V7.5H5.5C4.1 7.5 3 8.6 3 10C3 12.75 5.25 15 8 15V14C5.8 14 4 12.2 4 10Z" fill="#101419"/>
</g>
<defs>
<clipPath id="clip0_11362_37171">
<rect width="16" height="16" fill="white"/>
</clipPath>
</defs>
</svg>
