<svg width="16" height="16" viewBox="0 0 16 16" fill="none" xmlns="http://www.w3.org/2000/svg">
<g clip-path="url(#clip0_11362_37151)">
<path d="M8 1C4.15 1 1 4.15 1 8C1 11.85 4.15 15 8 15C11.85 15 15 11.85 15 8C15 4.15 11.85 1 8 1ZM13.95 7.5H10.95C10.85 5.05 9.85 3.15 9.1 2.1C11.75 2.6 13.75 4.8 13.95 7.5ZM6 8.5H10C9.85 11.05 8.65 12.95 8 13.75C7.4 12.95 6.15 11.05 6 8.5ZM6 7.5C6.15 4.95 7.35 3.05 8 2.25C8.6 3.05 9.85 4.9 10 7.5H6ZM6.85 2.1C6.15 3.15 5.15 5.05 5 7.5H2C2.25 4.8 4.25 2.6 6.85 2.1ZM2.05 8.5H5.05C5.15 10.95 6.15 12.85 6.9 13.9C4.25 13.4 2.25 11.2 2.05 8.5ZM9.15 13.9C9.9 12.85 10.9 11 11 8.5H14C13.75 11.2 11.75 13.4 9.15 13.9Z" fill="#101419"/>
</g>
<defs>
<clipPath id="clip0_11362_37151">
<rect width="16" height="16" fill="white"/>
</clipPath>
</defs>
</svg>
