<svg width="16" height="16" viewBox="0 0 16 16" fill="none" xmlns="http://www.w3.org/2000/svg">
<g clip-path="url(#clip0_7621_33920)">
<path d="M12.5 6H10.5V4C10.5 2.6 9.4 1.5 8 1.5H7.5C6.95 1.5 6.5 1.95 6.5 2.5V4.85L4.7 8H2C1.45 8 1 8.45 1 9V14C1 14.55 1.45 15 2 15H5H5.5H12.5C13.9 15 15 13.9 15 12.5V8.5C15 7.1 13.9 6 12.5 6ZM4.5 14H2V9H4.5V14ZM14 12.5C14 13.35 13.35 14 12.5 14H5.5V8.65L7.5 5.15V2.5H8C8.85 2.5 9.5 3.15 9.5 4V7H12.5C13.35 7 14 7.65 14 8.5V12.5Z" fill="#101419"/>
</g>
<defs>
<clipPath id="clip0_7621_33920">
<rect width="16" height="16" fill="white"/>
</clipPath>
</defs>
</svg>
