<?xml version="1.0" encoding="utf-8"?>
<!-- Generator: Adobe Illustrator 25.4.1, SVG Export Plug-In . SVG Version: 6.00 Build 0)  -->
<svg version="1.1" id="Layer_1" xmlns="http://www.w3.org/2000/svg" xmlns:xlink="http://www.w3.org/1999/xlink" x="0px" y="0px"
	 width="32px" height="32px" viewBox="0 0 32 32" style="enable-background:new 0 0 32 32;" xml:space="preserve">
<style type="text/css">
	.st0{fill:#FFFFFF;}
	.st1{fill:none;stroke:#999999;stroke-width:2.000000e-02;stroke-miterlimit:10;}
	.st2{fill:none;stroke:#FF00FF;stroke-width:4.000000e-02;stroke-miterlimit:10;}
	.st3{fill:none;stroke:#FF00FF;stroke-width:0.1;stroke-miterlimit:10;}
	.st4{opacity:0.3;fill:none;stroke:#000000;stroke-width:2;stroke-miterlimit:10;}
	.st5{opacity:0.3;}
	.st6{fill:#ED1C24;}
	.st7{fill:#39B54A;}
	.st8{fill:none;}
</style>
<g>
	<path d="M26,20v-8c0-5.5-4.5-10-10-10S6,6.5,6,12v8c0,1.7-1.3,3-3,3v2h26v-2C27.3,23,26,21.7,26,20z M7,23c0.6-0.8,1-1.9,1-3v-8
		c0-4.4,3.6-8,8-8s8,3.6,8,8v8c0,1.1,0.4,2.2,1,3H7z M18,26h2c0,2.2-1.8,4-4,4s-4-1.8-4-4h2c0,1.1,0.9,2,2,2S18,27.1,18,26z"/>
	<rect class="st8" width="32" height="32"/>
</g>
</svg>
