<svg width="16" height="16" viewBox="0 0 16 16" fill="none" xmlns="http://www.w3.org/2000/svg">
<g clip-path="url(#clip0_7636_33933)">
<path d="M10 1C7.25 1 5 3.25 5 6C5 7.2 5.4 8.3 6.15 9.15L1 14.3L1.7 15L6.85 9.85C7.7 10.55 8.8 11 10 11C12.75 11 15 8.75 15 6C15 3.25 12.75 1 10 1ZM10 10C7.8 10 6 8.2 6 6C6 3.8 7.8 2 10 2C12.2 2 14 3.8 14 6C14 8.2 12.2 10 10 10ZM13 6C13 7.65 11.65 9 10 9V8C11.1 8 12 7.1 12 6H13Z" fill="#101419"/>
</g>
<defs>
<clipPath id="clip0_7636_33933">
<rect width="16" height="16" fill="white"/>
</clipPath>
</defs>
</svg>
