<svg width="16" height="16" viewBox="0 0 16 16" fill="none" xmlns="http://www.w3.org/2000/svg">
<path d="M8.00022 10.9999C7.40687 10.9999 6.82685 10.824 6.33351 10.4943C5.84016 10.1647 5.45564 9.69617 5.22858 9.14799C5.00152 8.59981 4.94211 7.99661 5.05786 7.41467C5.17362 6.83273 5.45934 6.29818 5.8789 5.87862C6.29845 5.45906 6.833 5.17334 7.41495 5.05759C7.99689 4.94183 8.60009 5.00124 9.14827 5.2283C9.69645 5.45537 10.165 5.83988 10.4946 6.33323C10.8243 6.82658 11.0002 7.4066 11.0002 7.99994C11.0002 8.79559 10.6841 9.55865 10.1215 10.1213C9.55893 10.6839 8.79587 10.9999 8.00022 10.9999ZM8.00022 5.99994C7.60465 5.99994 7.21798 6.11724 6.88908 6.337C6.56018 6.55677 6.30383 6.86912 6.15246 7.23457C6.00108 7.60003 5.96148 8.00216 6.03865 8.39012C6.11582 8.77808 6.3063 9.13445 6.586 9.41415C6.86571 9.69386 7.22207 9.88434 7.61004 9.96151C7.998 10.0387 8.40013 9.99907 8.76558 9.8477C9.13104 9.69633 9.44339 9.43998 9.66316 9.11108C9.88292 8.78218 10.0002 8.3955 10.0002 7.99994C10.0002 7.46951 9.7895 6.9608 9.41443 6.58573C9.03936 6.21065 8.53065 5.99994 8.00022 5.99994ZM9.12522 14.9999H6.87522C6.61213 15.0074 6.35609 14.9144 6.15918 14.7397C5.96226 14.5651 5.83927 14.322 5.81522 14.0599L5.58522 12.9399C5.36094 12.8268 5.14387 12.6999 4.93522 12.5599L3.84522 12.9249C3.612 13.0355 3.34505 13.0516 3.10022 12.9699C2.85081 12.8894 2.63815 12.7228 2.50022 12.4999L1.37522 10.5499C1.2379 10.3252 1.19096 10.0568 1.24385 9.79879C1.29675 9.5408 1.44555 9.31249 1.66022 9.15994L2.50022 8.37994C2.50022 8.24994 2.50022 8.11994 2.50022 7.99994C2.50022 7.87994 2.50022 7.74994 2.50022 7.61994L1.66022 6.86494C1.45209 6.71312 1.30771 6.48946 1.25506 6.23728C1.20241 5.9851 1.24522 5.72236 1.37522 5.49994L2.50022 3.52494C2.63268 3.29079 2.84602 3.11301 3.10022 3.02494C3.34505 2.94323 3.612 2.95936 3.84522 3.06994L4.93522 3.43494C5.14387 3.29503 5.36094 3.16813 5.58522 3.05494L5.81522 1.93494C5.84046 1.67375 5.96397 1.4319 6.16076 1.25832C6.35755 1.08474 6.61292 0.992386 6.87522 0.999941H9.12522C9.3883 0.992483 9.64434 1.08553 9.84126 1.26015C10.0382 1.43477 10.1612 1.67785 10.1852 1.93994L10.4152 3.05994C10.6395 3.17313 10.8566 3.30003 11.0652 3.43994L12.1552 3.07494C12.3884 2.96436 12.6554 2.94823 12.9002 3.02994C13.1544 3.11801 13.3677 3.29579 13.5002 3.52994L14.6252 5.49994C14.7625 5.72466 14.8095 5.99311 14.7566 6.25109C14.7037 6.50908 14.5549 6.73739 14.3402 6.88994L13.5002 7.61994C13.5002 7.74994 13.5002 7.87994 13.5002 7.99994C13.5002 8.11994 13.5002 8.24994 13.5002 8.37994L14.3552 9.13494C14.5699 9.28749 14.7187 9.5158 14.7716 9.77379C14.8245 10.0318 14.7775 10.3002 14.6402 10.5249L13.5002 12.4999C13.3677 12.7341 13.1544 12.9119 12.9002 12.9999C12.6554 13.0816 12.3884 13.0655 12.1552 12.9549L11.0652 12.5899C10.8566 12.7298 10.6395 12.8568 10.4152 12.9699L10.1852 14.0899C10.1541 14.3466 10.0281 14.5823 9.83191 14.7508C9.63574 14.9192 9.38364 15.0081 9.12522 14.9999ZM6.82022 13.9999C6.83847 14.0024 6.85696 14.0024 6.87522 13.9999H9.12522C9.13799 14.001 9.15085 13.9993 9.16292 13.995C9.17499 13.9907 9.186 13.9839 9.19522 13.9749V13.8999L9.53022 12.2349L9.77022 12.1349C10.0931 11.9921 10.3984 11.8126 10.6802 11.5999L10.8902 11.4449L12.5952 12.0249C12.5952 12.0249 12.5952 12.0249 12.6302 11.9749L13.7552 10.0249C13.7625 10.0022 13.7625 9.97771 13.7552 9.95494L13.6902 9.91494L12.4152 8.78494L12.4452 8.52994C12.4919 8.17815 12.4919 7.82173 12.4452 7.46994L12.4152 7.21494L13.7652 6.02994C13.7652 6.02994 13.7652 6.02994 13.7402 5.97494L12.6152 4.02494C12.6055 4.01417 12.5936 4.00564 12.5802 3.99994H12.5002L10.8952 4.55494L10.6852 4.39994C10.4034 4.18732 10.0981 4.0078 9.77522 3.86494L9.53522 3.76494L9.19022 1.99994C9.19022 1.99994 9.16522 1.99994 9.12522 1.99994H6.87522C6.86414 1.99527 6.85224 1.99286 6.84022 1.99286C6.82819 1.99286 6.81629 1.99527 6.80522 1.99994V2.09994L6.47022 3.76494L6.23022 3.86494C5.90564 4.00746 5.59861 4.18698 5.31522 4.39994L5.10522 4.55494L3.40022 3.99994C3.40022 3.99994 3.40022 3.99994 3.36522 4.04994L2.24022 5.99994C2.23294 6.02271 2.23294 6.04717 2.24022 6.06994L2.30522 6.10994L3.58022 7.23994L3.55022 7.49494C3.50355 7.84673 3.50355 8.20315 3.55022 8.55494L3.58022 8.80994L2.23022 9.99494C2.23022 9.99494 2.23022 9.99494 2.25522 10.0499L3.36522 11.9999C3.37742 12.0212 3.39699 12.0372 3.42022 12.0449L3.50022 11.9999L5.11522 11.4599L5.32522 11.6149C5.60704 11.8276 5.91238 12.0071 6.23522 12.1499L6.47522 12.2499L6.81022 13.9999H6.82022Z" fill="#101419"/>
</svg>
