<svg width="16" height="16" viewBox="0 0 16 16" fill="none" xmlns="http://www.w3.org/2000/svg">
<g clip-path="url(#clip0_6925_33114)">
<path d="M8 15C4.15 15 1 11.85 1 8C1 4.15 4.15 1 8 1C11.85 1 15 4.15 15 8C15 11.85 11.85 15 8 15ZM8 2C4.7 2 2 4.7 2 8C2 11.3 4.7 14 8 14C11.3 14 14 11.3 14 8C14 4.7 11.3 2 8 2ZM8.5 4.5L7.8 5.2L10.1 7.5H4V8.5H10.1L7.8 10.8L8.5 11.5L12 8L8.5 4.5Z" fill="#101419"/>
</g>
<defs>
<clipPath id="clip0_6925_33114">
<rect width="16" height="16" fill="white"/>
</clipPath>
</defs>
</svg>
