<svg width="16" height="16" viewBox="0 0 16 16" fill="none" xmlns="http://www.w3.org/2000/svg">
<g clip-path="url(#clip0_6925_33145)">
<path d="M7.2 7.8L6.5 8.5L4 6L6.5 3.5L7.2 4.2L5.9 5.5H11.5V6.5H5.9L7.2 7.8ZM9.5 12.5L12 10L9.5 7.5L8.8 8.2L10.1 9.5H4.5V10.5H10.1L8.8 11.8L9.5 12.5ZM8 15C11.85 15 15 11.85 15 8C15 4.15 11.85 1 8 1C4.15 1 1 4.15 1 8C1 11.85 4.15 15 8 15ZM8 14C4.7 14 2 11.3 2 8C2 4.7 4.7 2 8 2C11.3 2 14 4.7 14 8C14 11.3 11.3 14 8 14Z" fill="#101419"/>
</g>
<defs>
<clipPath id="clip0_6925_33145">
<rect width="16" height="16" fill="white" transform="translate(16) rotate(90)"/>
</clipPath>
</defs>
</svg>
