<svg width="16" height="16" viewBox="0 0 16 16" fill="none" xmlns="http://www.w3.org/2000/svg">
<g clip-path="url(#clip0_6925_33146)">
<path d="M7.8 8.8L8.5 9.5L6 12L3.5 9.5L4.2 8.8L5.5 10.1V4.5H6.5V10.1L7.8 8.8ZM12.5 6.5L10 4L7.5 6.5L8.2 7.2L9.5 5.9V11.5H10.5V5.9L11.8 7.2L12.5 6.5ZM15 8C15 4.15 11.85 1 8 1C4.15 1 1 4.15 1 8C1 11.85 4.15 15 8 15C11.85 15 15 11.85 15 8ZM14 8C14 11.3 11.3 14 8 14C4.7 14 2 11.3 2 8C2 4.7 4.7 2 8 2C11.3 2 14 4.7 14 8Z" fill="#101419"/>
</g>
<defs>
<clipPath id="clip0_6925_33146">
<rect width="16" height="16" fill="white"/>
</clipPath>
</defs>
</svg>
