<svg width="16" height="16" viewBox="0 0 16 16" fill="none" xmlns="http://www.w3.org/2000/svg">
<g clip-path="url(#clip0_6925_33174)">
<path d="M8 15C11.85 15 15 11.85 15 8C15 4.15 11.85 1 8 1C4.15 1 1 4.15 1 8C1 11.85 4.15 15 8 15ZM8 2C11.3 2 14 4.7 14 8C14 11.3 11.3 14 8 14C4.7 14 2 11.3 2 8C2 4.7 4.7 2 8 2ZM9 4.5L9.7 5.2L6.9 8L9.7 10.8L9 11.5L5.5 8L9 4.5Z" fill="#101419"/>
</g>
<defs>
<clipPath id="clip0_6925_33174">
<rect width="16" height="16" fill="white" transform="matrix(-1 0 0 1 16 0)"/>
</clipPath>
</defs>
</svg>
