<svg width="16" height="16" viewBox="0 0 16 16" fill="none" xmlns="http://www.w3.org/2000/svg">
<g clip-path="url(#clip0_11362_37163)">
<path d="M8 1C4.15 1 1 4.15 1 8C1 11.85 4.15 15 8 15C11.85 15 15 11.85 15 8C15 4.15 11.85 1 8 1ZM8 14C4.7 14 2 11.3 2 8C2 4.7 4.7 2 8 2C11.3 2 14 4.7 14 8C14 11.3 11.3 14 8 14ZM8 7C9.1 7 10 6.1 10 5C10 3.9 9.1 3 8 3C6.9 3 6 3.9 6 5C6 6.1 6.9 7 8 7ZM8 4C8.55 4 9 4.45 9 5C9 5.55 8.55 6 8 6C7.45 6 7 5.55 7 5C7 4.45 7.45 4 8 4ZM9.5 7.5H6.5C5.4 7.5 4.5 8.4 4.5 9.5C4.5 11.45 6.05 13 8 13C9.95 13 11.5 11.45 11.5 9.5C11.5 8.4 10.6 7.5 9.5 7.5ZM8 12C6.6 12 5.5 10.9 5.5 9.5C5.5 8.95 5.95 8.5 6.5 8.5H9.5C10.05 8.5 10.5 8.95 10.5 9.5C10.5 10.9 9.4 12 8 12Z" fill="#101419"/>
</g>
<defs>
<clipPath id="clip0_11362_37163">
<rect width="16" height="16" fill="white"/>
</clipPath>
</defs>
</svg>
