<svg width="16" height="16" viewBox="0 0 16 16" fill="none" xmlns="http://www.w3.org/2000/svg">
<g clip-path="url(#clip0_7607_33727)">
<path d="M8 15C4.15 15 1 11.85 1 8C1 4.15 4.15 1 8 1C11.85 1 15 4.15 15 8C15 11.85 11.85 15 8 15ZM8 2C4.7 2 2 4.7 2 8C2 11.3 4.7 14 8 14C11.3 14 14 11.3 14 8C14 4.7 11.3 2 8 2ZM12 7.5H6V8.5H12V7.5ZM12 10H6V11H12V10ZM12 5H6V6H12V5ZM5 5H4V6H5V5ZM5 7.5H4V8.5H5V7.5ZM5 10H4V11H5V10Z" fill="#101419"/>
</g>
<defs>
<clipPath id="clip0_7607_33727">
<rect width="16" height="16" fill="white"/>
</clipPath>
</defs>
</svg>
