<?xml version="1.0" encoding="utf-8"?>
<!-- Generator: Adobe Illustrator 25.4.1, SVG Export Plug-In . SVG Version: 6.00 Build 0)  -->
<svg version="1.1" id="Layer_1" xmlns="http://www.w3.org/2000/svg" xmlns:xlink="http://www.w3.org/1999/xlink" x="0px" y="0px"
	 width="32px" height="32px" viewBox="0 0 32 32" style="enable-background:new 0 0 32 32;" xml:space="preserve">
<style type="text/css">
	.st0{fill:#FFFFFF;}
	.st1{fill:none;stroke:#999999;stroke-width:2.000000e-02;stroke-miterlimit:10;}
	.st2{fill:none;stroke:#FF00FF;stroke-width:4.000000e-02;stroke-miterlimit:10;}
	.st3{fill:none;stroke:#FF00FF;stroke-width:0.1;stroke-miterlimit:10;}
	.st4{opacity:0.3;fill:none;stroke:#000000;stroke-width:2;stroke-miterlimit:10;}
	.st5{opacity:0.3;}
	.st6{fill:#ED1C24;}
	.st7{fill:#39B54A;}
	.st8{fill:none;}
</style>
<g>
	<path d="M16,2C8.3,2,2,8.3,2,16s6.3,14,14,14s14-6.3,14-14S23.7,2,16,2z M16,28C9.4,28,4,22.6,4,16S9.4,4,16,4s12,5.4,12,12
		S22.6,28,16,28z M17,23h2c0,1.7-1.3,3-3,3s-3-1.3-3-3h2c0,0.6,0.4,1,1,1S17,23.6,17,23z M23,18v-5c0-3.9-3.1-7-7-7s-7,3.1-7,7v5
		c0,1.1-0.9,2-2,2v2h18v-2C23.9,20,23,19.1,23,18z M10.5,20c0.3-0.6,0.5-1.3,0.5-2v-5c0-2.8,2.2-5,5-5s5,2.2,5,5v5
		c0,0.7,0.2,1.4,0.5,2H10.5z"/>
	<rect class="st8" width="32" height="32"/>
</g>
</svg>
