<svg width="16" height="16" viewBox="0 0 16 16" fill="none" xmlns="http://www.w3.org/2000/svg">
<g clip-path="url(#clip0_7669_34145)">
<path d="M8.49996 6V10.5H7.49996V6H8.49996ZM7.99996 11.5C7.59996 11.5 7.24996 11.85 7.24996 12.25C7.24996 12.65 7.59996 13 7.99996 13C8.39996 13 8.74996 12.65 8.74996 12.25C8.74996 11.85 8.39996 11.5 7.99996 11.5ZM14.85 14.55C14.65 14.85 14.35 15 14 15H1.99996C1.64996 15 1.34996 14.85 1.14996 14.55C0.949964 14.25 0.949964 13.9 1.09996 13.6L7.09996 1.6C7.24996 1.2 7.59996 1 7.99996 1C8.39996 1 8.74996 1.2 8.89996 1.55L14.9 13.55C15.05 13.9 15.05 14.25 14.85 14.55ZM14 14L7.99996 2L1.99996 14H14Z" fill="#101419"/>
</g>
<defs>
<clipPath id="clip0_7669_34145">
<rect width="16" height="16" fill="white"/>
</clipPath>
</defs>
</svg>
