<svg width="16" height="16" viewBox="0 0 16 16" fill="none" xmlns="http://www.w3.org/2000/svg">
<g clip-path="url(#clip0_11362_37259)">
<path d="M8 1C4.15 1 1 4.15 1 8C1 11.85 4.15 15 8 15C11.85 15 15 11.85 15 8C15 4.15 11.85 1 8 1ZM5.5 3.5L6.2 4.2L5.4 5H7.5V6H5.4L6.2 6.8L5.5 7.5L3.5 5.5L5.5 3.5ZM7 10H7.5V11H7C6.05 11 5.25 10.2 5.25 9.25C5.25 8.3 6.05 7.5 7 7.5H9C9.4 7.5 9.75 7.15 9.75 6.75C9.75 6.35 9.4 6 9 6H8.5V5H9C9.95 5 10.75 5.8 10.75 6.75C10.75 7.7 9.95 8.5 9 8.5H7C6.6 8.5 6.25 8.85 6.25 9.25C6.25 9.65 6.6 10 7 10ZM10.5 12.5L9.8 11.8L10.6 11H8.5V10H10.6L9.8 9.2L10.5 8.5L12.5 10.5L10.5 12.5Z" fill="#101419"/>
</g>
<defs>
<clipPath id="clip0_11362_37259">
<rect width="16" height="16" fill="white"/>
</clipPath>
</defs>
</svg>
