<svg width="16" height="16" viewBox="0 0 16 16" fill="none" xmlns="http://www.w3.org/2000/svg">
<g clip-path="url(#clip0_11362_37244)">
<path d="M8 1C4.15 1 1 4.15 1 8C1 11.85 4.15 15 8 15C11.85 15 15 11.85 15 8C15 4.15 11.85 1 8 1ZM6 12L3.5 9.5L4.2 8.8L5.5 10.1V4.5H6.5V10.1L7.8 8.8L8.5 9.5L6 12ZM11.8 7.2L10.5 5.9V11.5H9.5V5.9L8.2 7.2L7.5 6.5L10 4L12.5 6.5L11.8 7.2Z" fill="#101419"/>
</g>
<defs>
<clipPath id="clip0_11362_37244">
<rect width="16" height="16" fill="white"/>
</clipPath>
</defs>
</svg>
