<svg width="16" height="16" viewBox="0 0 16 16" fill="none" xmlns="http://www.w3.org/2000/svg">
<g clip-path="url(#clip0_11362_37243)">
<path d="M15 8C15 4.15 11.85 1 8 1C4.15 1 1 4.15 1 8C1 11.85 4.15 15 8 15C11.85 15 15 11.85 15 8ZM4 6L6.5 3.5L7.2 4.2L5.9 5.5H11.5V6.5H5.9L7.2 7.8L6.5 8.5L4 6ZM8.8 11.8L10.1 10.5H4.5V9.5H10.1L8.8 8.2L9.5 7.5L12 10L9.5 12.5L8.8 11.8Z" fill="#101419"/>
</g>
<defs>
<clipPath id="clip0_11362_37243">
<rect width="16" height="16" fill="white" transform="translate(16) rotate(90)"/>
</clipPath>
</defs>
</svg>
