<svg width="16" height="16" viewBox="0 0 16 16" fill="none" xmlns="http://www.w3.org/2000/svg">
<g clip-path="url(#clip0_7472_33521)">
<path d="M8 1C4.15 1 1 4.15 1 8C1 11.85 4.15 15 8 15C11.85 15 15 11.85 15 8C15 4.15 11.85 1 8 1ZM8 14C4.7 14 2 11.3 2 8C2 4.7 4.7 2 8 2C11.3 2 14 4.7 14 8C14 11.3 11.3 14 8 14ZM9.05 7.9L8.85 7.8L9.05 7.7C9.75 7.3 10.4 6.75 10.4 5.8C10.4 5 9.8 4.15 8.05 4.15C6.4 4.15 5.65 5.15 5.65 6.1C5.65 7.15 6.6 7.65 6.9 7.85L7.05 7.95L6.9 8.05C6.85 8.1 6.8 8.1 6.75 8.15C6.35 8.4 5.5 9 5.5 10C5.5 11.35 6.75 11.85 7.9 11.85C9.75 11.85 10.6 10.85 10.6 9.85C10.6 9.1 10.15 8.5 9.05 7.9ZM6.85 5.95C6.85 5.4 7.35 5 8.05 5C8.8 5 9.25 5.35 9.25 5.95C9.25 6.65 8.45 7.1 8.15 7.25L8.1 7.3H8C7.4 6.95 6.85 6.6 6.85 5.95ZM8.1 10.9C7.3 10.9 6.75 10.5 6.75 9.9C6.75 9.1 7.7 8.55 7.9 8.45L7.95 8.4L8 8.45C8.95 8.95 9.35 9.35 9.35 9.9C9.35 10.4 8.95 10.9 8.1 10.9Z" fill="#101419"/>
</g>
<defs>
<clipPath id="clip0_7472_33521">
<rect width="16" height="16" fill="white"/>
</clipPath>
</defs>
</svg>
