<svg width="16" height="16" viewBox="0 0 16 16" fill="none" xmlns="http://www.w3.org/2000/svg">
<g clip-path="url(#clip0_7472_33525)">
<path d="M8 1C4.15 1 1 4.15 1 8C1 11.85 4.15 15 8 15C11.85 15 15 11.85 15 8C15 4.15 11.85 1 8 1ZM8 14C4.7 14 2 11.3 2 8C2 4.7 4.7 2 8 2C11.3 2 14 4.7 14 8C14 11.3 11.3 14 8 14ZM8.05 4.15C6 4.15 5.5 5.75 5.5 6.6C5.5 8.05 6.4 8.95 7.8 8.95C8.65 8.95 9.2 8.5 9.25 8.45L9.3 8.4L9.35 8.45C9.5 9.3 8.85 10.9 7.05 10.9C6.65 10.9 6.35 10.85 6.15 10.8L6 11.8C6.25 11.85 6.75 11.9 7.2 11.9C9.4 11.9 10.7 10.3 10.7 7.6C10.75 6 10.25 4.15 8.05 4.15ZM8.05 7.95C7.25 7.95 6.65 7.35 6.65 6.5C6.65 5.65 7.25 5.05 8.05 5.05C8.85 5.05 9.45 5.65 9.45 6.5C9.45 7.35 8.85 7.95 8.05 7.95Z" fill="#101419"/>
</g>
<defs>
<clipPath id="clip0_7472_33525">
<rect width="16" height="16" fill="white"/>
</clipPath>
</defs>
</svg>
