<svg width="16" height="16" viewBox="0 0 16 16" fill="none" xmlns="http://www.w3.org/2000/svg">
<g clip-path="url(#clip0_7472_33513)">
<path d="M8 1C4.15 1 1 4.15 1 8C1 11.85 4.15 15 8 15C11.85 15 15 11.85 15 8C15 4.15 11.85 1 8 1ZM8 14C4.7 14 2 11.3 2 8C2 4.7 4.7 2 8 2C11.3 2 14 4.7 14 8C14 11.3 11.3 14 8 14ZM8.1 7.05C7.55 7.05 7.05 7.2 6.65 7.5L6.55 7.6L6.5 7.55V7.5C6.55 6.6 7.05 5.1 8.8 5.1C9.15 5.1 9.5 5.15 9.7 5.2L9.85 4.2C9.6 4.15 9.1 4.1 8.65 4.1C6.5 4.1 5.15 5.8 5.15 8.55C5.15 10.05 5.6 11.85 7.8 11.85C9.85 11.85 10.35 10.25 10.35 9.4C10.4 8 9.5 7.05 8.1 7.05ZM7.8 10.95C7 10.95 6.4 10.35 6.4 9.5C6.4 8.65 7 8.05 7.8 8.05C8.6 8.05 9.2 8.65 9.2 9.5C9.2 10.3 8.6 10.95 7.8 10.95Z" fill="#101419"/>
</g>
<defs>
<clipPath id="clip0_7472_33513">
<rect width="16" height="16" fill="white"/>
</clipPath>
</defs>
</svg>
