<svg width="16" height="16" viewBox="0 0 16 16" fill="none" xmlns="http://www.w3.org/2000/svg">
<g clip-path="url(#clip0_7472_33497)">
<path d="M8 1C4.15 1 1 4.15 1 8C1 11.85 4.15 15 8 15C11.85 15 15 11.85 15 8C15 4.15 11.85 1 8 1ZM8 14C4.7 14 2 11.3 2 8C2 4.7 4.7 2 8 2C11.3 2 14 4.7 14 8C14 11.3 11.3 14 8 14ZM7.8 10.8H10.4V11.85H5.9V10.8C6.1 10.55 7.25 9.35 7.45 9.05C8.5 7.8 8.85 7.15 8.85 6.5C8.85 5.9 8.45 5.25 7.4 5.25C6.95 5.25 6.5 5.4 6.05 5.65L5.75 4.65C6 4.55 6.65 4.2 7.65 4.2C9.35 4.2 10.1 5.25 10.1 6.35C10.1 7.4 9.65 8.2 8.85 9.15C8.5 9.6 7.7 10.6 7.7 10.6L7.55 10.8H7.8Z" fill="#101419"/>
</g>
<defs>
<clipPath id="clip0_7472_33497">
<rect width="16" height="16" fill="white"/>
</clipPath>
</defs>
</svg>
