<svg width="16" height="16" viewBox="0 0 16 16" fill="none" xmlns="http://www.w3.org/2000/svg">
<g clip-path="url(#clip0_7472_34305)">
<path d="M9 2H7V3H6V2C6 1.45 6.45 1 7 1H9C9.55 1 10 1.45 10 2V2.05L9 2.5V2ZM11.5 9.5C11.35 9.5 11.15 9.45 11 9.4V13H5V7.5H6V8.5H7V7.5H8.7C8.45 7.2 8.25 6.9 8.15 6.5H5V4.5H8V3.8C8 3.7 8 3.6 8.05 3.5H5C4.45 3.5 4 3.95 4 4.5V13C4 13.55 4.45 14 5 14V15H6V14H10V15H11V14C11.55 14 12 13.55 12 13V9.4C11.85 9.45 11.7 9.5 11.5 9.5ZM14.5 3.8V5.5C14.5 6.7 13.95 7.25 13 8L11.9 8.85C11.75 8.95 11.65 9 11.5 9C11.35 9 11.25 8.95 11.1 8.85L10 8C9.05 7.25 8.5 6.7 8.5 5.5V3.8C8.5 3.45 8.7 3.2 9 3.1L11.25 2.05C11.4 2 11.6 2 11.75 2.05L14 3.05C14.3 3.2 14.5 3.45 14.5 3.8ZM13 5H12V4H11V5H10V6H11V7H12V6H13V5Z" fill="#101419"/>
</g>
<defs>
<clipPath id="clip0_7472_34305">
<rect width="16" height="16" fill="white"/>
</clipPath>
</defs>
</svg>
