<?xml version="1.0" encoding="utf-8"?>
<!-- Generator: Adobe Illustrator 25.4.1, SVG Export Plug-In . SVG Version: 6.00 Build 0)  -->
<svg version="1.1" id="Layer_1" xmlns="http://www.w3.org/2000/svg" xmlns:xlink="http://www.w3.org/1999/xlink" x="0px" y="0px"
	 width="32px" height="32px" viewBox="0 0 32 32" style="enable-background:new 0 0 32 32;" xml:space="preserve">
<style type="text/css">
	.st0{fill:#FFFFFF;}
	.st1{fill:none;stroke:#999999;stroke-width:2.000000e-02;stroke-miterlimit:10;}
	.st2{fill:none;stroke:#FF00FF;stroke-width:4.000000e-02;stroke-miterlimit:10;}
	.st3{fill:none;stroke:#FF00FF;stroke-width:0.1;stroke-miterlimit:10;}
	.st4{opacity:0.3;fill:none;stroke:#000000;stroke-width:2;stroke-miterlimit:10;}
	.st5{opacity:0.3;}
	.st6{fill:#ED1C24;}
	.st7{fill:#39B54A;}
	.st8{fill:none;}
</style>
<g>
	<path d="M11,17H9v-3c0-1.7,1.3-3,3-3s3,1.3,3,3v3h-2v-3c0-0.6-0.4-1-1-1c-0.6,0-1,0.4-1,1V17z M22,2c-1.1,0-2,0.9-2,2h4
		C24,2.9,23.1,2,22,2z M27.4,7C27.8,7.6,28,8.3,28,9v8c0,1.7-1.3,3-3,3h-6c-1.7,0-3-1.3-3-3V9c0-0.7,0.2-1.4,0.6-2L14,4.4L15.4,3
		L18,5.6C18.6,5.2,19.3,5,20,5h4c0.7,0,1.4,0.2,2,0.6L28.6,3L30,4.4L27.4,7z M26,12h-8v5c0,0.6,0.4,1,1,1h6c0.6,0,1-0.4,1-1V12z
		 M26,9c0-1.1-0.9-2-2-2h-4c-1.1,0-2,0.9-2,2v1h8V9z M21,15h2v2h2v-2c0-1.1-0.9-2-2-2h-2c-1.1,0-2,0.9-2,2v2h2V15z M19,21h0.9
		l-0.6,6.3c-0.2,1.5-1.4,2.7-3,2.7H7.7c-1.5,0-2.8-1.2-3-2.7L4,20.2c-0.1-0.6,0.1-1.1,0.5-1.5C4.9,18.2,5.4,18,6,18h9.1
		c0.2,0.8,0.6,1.5,1.2,2H6l0.2,2h11.6l0.1-1.2C18.3,20.9,18.6,21,19,21z M17.6,24H6.4l0.3,3.1c0.1,0.5,0.5,0.9,1,0.9h8.6
		c0.5,0,0.9-0.4,1-0.9L17.6,24z"/>
	<rect class="st8" width="32" height="32"/>
</g>
</svg>
