<svg width="16" height="16" viewBox="0 0 16 16" fill="none" xmlns="http://www.w3.org/2000/svg">
<g clip-path="url(#clip0_6920_32645)">
<path d="M7.00001 4H6.00001V3C6.00001 2.45 6.45001 2 7.00001 2H9.00001C9.55001 2 10 2.45 10 3V4H9.00001V3H7.00001V4ZM5.00001 8V6.5H4.00001V8H5.00001ZM11 6.5V8H12V6.5H11ZM8.50001 6.5H7.50001V8H8.50001V6.5ZM14.95 8.75L14.1 5.25C14 4.8 13.6 4.5 13.15 4.5H2.85001C2.40001 4.5 2.00001 4.8 1.90001 5.25L1.05001 8.75C1.00001 8.95 1.00001 9.1 1.05001 9.3L1.90001 13.3C2.00001 13.7 2.40001 14 2.85001 14H5.10001C4.90001 13.7 4.70001 13.35 4.60001 13H2.85001L2.20001 10H5.10001C5.40001 9.6 5.75001 9.25 6.15001 9H2.00001L2.85001 5.5H13.15L14 9H9.80001C10.2 9.25 10.6 9.6 10.85 10H13.75L13.1 13H11.3C11.2 13.35 11.05 13.7 10.8 14H13.05C13.5 14 13.9 13.7 14 13.25L14.95 9.25C15.0001 9 15.0001 9 14.95 8.75ZM11 12C11 13.65 9.65001 15 8.00001 15C6.35001 15 5.00001 13.65 5.00001 12C5.00001 10.35 6.35001 9 8.00001 9C9.65001 9 11 10.35 11 12ZM8.15001 10.75C8.15001 11.05 8.40001 11.3 8.70001 11.3C9.00001 11.3 9.25001 11.05 9.25001 10.75C9.25001 10.45 9.00001 10.2 8.70001 10.2C8.40001 10.2 8.15001 10.45 8.15001 10.75ZM6.75001 10.75C6.75001 11.05 7.00001 11.3 7.30001 11.3C7.60001 11.3 7.85001 11.05 7.85001 10.75C7.85001 10.45 7.60001 10.2 7.30001 10.2C7.00001 10.2 6.75001 10.45 6.75001 10.75ZM6.50001 12.5C6.80001 12.5 7.05001 12.25 7.05001 11.95C7.05001 11.65 6.80001 11.4 6.50001 11.4C6.20001 11.4 5.95001 11.65 5.95001 11.95C5.95001 12.25 6.20001 12.5 6.50001 12.5ZM9.20001 12.9L8.45001 12C8.20001 11.7 7.75001 11.7 7.50001 12L6.80001 12.9C6.50001 13.3 6.90001 13.85 7.40001 13.8C7.80001 13.75 8.15001 13.75 8.55001 13.8C9.10001 13.85 9.45001 13.3 9.20001 12.9ZM10.05 11.95C10.05 11.65 9.80001 11.4 9.50001 11.4C9.20001 11.4 8.95001 11.65 8.95001 11.95C8.95001 12.25 9.20001 12.5 9.50001 12.5C9.80001 12.5 10.05 12.25 10.05 11.95Z" fill="#101419"/>
</g>
<defs>
<clipPath id="clip0_6920_32645">
<rect width="16" height="16" fill="white"/>
</clipPath>
</defs>
</svg>
