<svg width="16" height="16" viewBox="0 0 16 16" fill="none" xmlns="http://www.w3.org/2000/svg">
<g clip-path="url(#clip0_7472_34293)">
<path d="M11.5 2C9.85 2 8.5 3.35 8.5 5C8.5 6.65 9.85 8 11.5 8C13.15 8 14.5 6.65 14.5 5C14.5 3.35 13.15 2 11.5 2ZM11 6.55L9.75 5.3L10.3 4.75L11.05 5.5L12.8 3.75L13.35 4.3L11 6.55ZM9 2H7V3H6V2C6 1.45 6.45 1 7 1H9C9.5 1 9.9 1.35 10 1.85C9.65 2.05 9.3 2.25 9 2.55V2ZM11.5 8.5C11.35 8.5 11.15 8.5 11 8.45V13H5V7.5H6V8.5H7V7.5H9.05C8.75 7.2 8.5 6.85 8.35 6.5H5V4.5H8.05C8.1 4.15 8.2 3.8 8.35 3.5H5C4.45 3.5 4 3.95 4 4.5V13C4 13.55 4.45 14 5 14V15H6V14H10V15H11V14C11.55 14 12 13.55 12 13V8.45C11.85 8.5 11.65 8.5 11.5 8.5Z" fill="#101419"/>
</g>
<defs>
<clipPath id="clip0_7472_34293">
<rect width="16" height="16" fill="white"/>
</clipPath>
</defs>
</svg>
