<svg width="16" height="16" viewBox="0 0 16 16" fill="none" xmlns="http://www.w3.org/2000/svg">
<g clip-path="url(#clip0_7472_34313)">
<path d="M11.5 2C9.85 2 8.5 3.35 8.5 5C8.5 6.65 9.85 8 11.5 8C13.15 8 14.5 6.65 14.5 5C14.5 3.35 13.15 2 11.5 2ZM11.8 6.8H11.05V6.05H11.8V6.8ZM12.15 5L12.1 5.05C11.9 5.25 11.8 5.35 11.8 5.55H11.05C11.05 5.05 11.3 4.8 11.45 4.7C11.65 4.5 11.7 4.45 11.7 4.3C11.7 4.1 11.5 4 11.25 4C11 4 10.8 4.1 10.75 4.1L10.6 4.15L10.7 3.4H10.75C10.85 3.35 11.1 3.3 11.4 3.3C12.3 3.3 12.6 3.85 12.6 4.25C12.6 4.65 12.3 4.85 12.15 5ZM12 8.45V13C12 13.55 11.55 14 11 14V15H10V14H6V15H5V14C4.45 14 4 13.55 4 13V4.5C4 3.95 4.45 3.5 5 3.5H8.35C8.2 3.8 8.1 4.15 8.05 4.5H5V6.5H8.35C8.55 6.85 8.75 7.2 9.05 7.5H7V8.5H6V7.5H5V13H11V8.45C11.15 8.45 11.35 8.5 11.5 8.5C11.65 8.5 11.85 8.5 12 8.45ZM7 2H9V2.55C9.3 2.25 9.6 2 10 1.85C9.95 1.35 9.5 1 9 1H7C6.45 1 6 1.45 6 2V3H7V2Z" fill="#101419"/>
</g>
<defs>
<clipPath id="clip0_7472_34313">
<rect width="16" height="16" fill="white"/>
</clipPath>
</defs>
</svg>
