<svg width="16" height="16" viewBox="0 0 16 16" fill="none" xmlns="http://www.w3.org/2000/svg">
<g clip-path="url(#clip0_7472_34357)">
<path d="M11.5 2C9.85 2 8.5 3.35 8.5 5C8.5 6.65 9.85 8 11.5 8C13.15 8 14.5 6.65 14.5 5C14.5 3.35 13.15 2 11.5 2ZM11.2 6.85C10.95 6.85 10.65 6.8 10.6 6.8H10.55L10.65 6.1H10.7C10.75 6.1 10.95 6.15 11.1 6.15C11.75 6.15 11.95 5.6 12 5.4C11.9 5.45 11.7 5.55 11.4 5.55C10.75 5.55 10.3 5.1 10.3 4.4C10.3 3.95 10.65 3.2 11.55 3.2C12.35 3.2 12.8 3.75 12.8 4.8C12.8 6.1 12.2 6.85 11.2 6.85ZM12.05 4.4C12.05 4.7 11.85 4.9 11.55 4.9C11.25 4.9 11.05 4.7 11.05 4.4C11.05 4.1 11.25 3.9 11.55 3.9C11.85 3.9 12.05 4.1 12.05 4.4ZM12 8.45V13C12 13.55 11.55 14 11 14V15H10V14H6V15H5V14C4.45 14 4 13.55 4 13V4.5C4 3.95 4.45 3.5 5 3.5H8.35C8.2 3.8 8.1 4.15 8.05 4.5H5V6.5H8.35C8.55 6.85 8.75 7.2 9.05 7.5H7V8.5H6V7.5H5V13H11V8.45C11.15 8.45 11.35 8.5 11.5 8.5C11.65 8.5 11.85 8.5 12 8.45ZM7 2H9V2.55C9.3 2.25 9.6 2 10 1.85C9.95 1.35 9.5 1 9 1H7C6.45 1 6 1.45 6 2V3H7V2Z" fill="#101419"/>
</g>
<defs>
<clipPath id="clip0_7472_34357">
<rect width="16" height="16" fill="white"/>
</clipPath>
</defs>
</svg>
