<?xml version="1.0" encoding="utf-8"?>
<!-- Generator: Adobe Illustrator 25.4.1, SVG Export Plug-In . SVG Version: 6.00 Build 0)  -->
<svg version="1.1" id="Layer_1" xmlns="http://www.w3.org/2000/svg" xmlns:xlink="http://www.w3.org/1999/xlink" x="0px" y="0px"
	 width="32px" height="32px" viewBox="0 0 32 32" style="enable-background:new 0 0 32 32;" xml:space="preserve">
<style type="text/css">
	.st0{fill:#FFFFFF;}
	.st1{fill:none;stroke:#999999;stroke-width:2.000000e-02;stroke-miterlimit:10;}
	.st2{fill:none;stroke:#FF00FF;stroke-width:4.000000e-02;stroke-miterlimit:10;}
	.st3{fill:none;stroke:#FF00FF;stroke-width:0.1;stroke-miterlimit:10;}
	.st4{opacity:0.3;fill:none;stroke:#000000;stroke-width:2;stroke-miterlimit:10;}
	.st5{opacity:0.3;}
	.st6{fill:#ED1C24;}
	.st7{fill:#39B54A;}
	.st8{fill:none;}
</style>
<g>
	<path d="M22,5h-2V4c0-1.1,0.9-2,2-2h2c1.1,0,2,0.9,2,2v1h-2V4h-2V5z M8,4h2v1h2V4c0-1.1-0.9-2-2-2H8C6.9,2,6,2.9,6,4v1h2V4z M4,8h8
		c0-0.8,0.3-1.5,0.8-2H4C2.9,6,2,6.9,2,8v4v1v9c0,1.1,0.9,2,2,2v2h2v-2h2v-2H4v-9h2v2h2v-2v-1c0-0.4,0.1-0.7,0.2-1H4V8z M28,6h-8.8
		C19.7,6.5,20,7.2,20,8h8v3h-4.2c0.1,0.3,0.2,0.6,0.2,1v1h4v9h-4v2h2v2h2v-2c1.1,0,2-0.9,2-2v-9v-1V8C30,6.9,29.1,6,28,6z M23,12v4
		v1v9c0,1.1-0.9,2-2,2v2h-2v-2h-6v2h-2v-2c-1.1,0-2-0.9-2-2v-9v-1v-4c0-1.1,0.9-2,2-2h10C22.1,10,23,10.9,23,12z M21,17h-6v2h-2v-2
		h-2v9h10V17z M21,12H11v3h10V12z M15,8h2v1h2V8c0-1.1-0.9-2-2-2h-2c-1.1,0-2,0.9-2,2v1h2V8z"/>
	<rect class="st8" width="32" height="32"/>
</g>
</svg>
