<svg width="16" height="16" viewBox="0 0 16 16" fill="none" xmlns="http://www.w3.org/2000/svg">
<g clip-path="url(#clip0_7472_34353)">
<path d="M11.95 5.9C11.95 6.1 11.8 6.2 11.5 6.2C11.3 6.2 11 6.1 11 5.9C11 5.65 11.3 5.45 11.4 5.4C11.8 5.55 11.95 5.7 11.95 5.9ZM14.5 5C14.5 6.65 13.15 8 11.5 8C9.85 8 8.5 6.65 8.5 5C8.5 3.35 9.85 2 11.5 2C13.15 2 14.5 3.35 14.5 5ZM12.75 5.85C12.75 5.5 12.55 5.2 12.15 4.95C12.45 4.75 12.7 4.5 12.7 4.1C12.7 3.7 12.4 3.25 11.55 3.25C10.75 3.25 10.4 3.75 10.4 4.2C10.4 4.65 10.75 4.9 10.95 5C10.75 5.15 10.35 5.4 10.35 5.9C10.35 6.45 10.8 6.8 11.5 6.8C12.35 6.85 12.75 6.35 12.75 5.85ZM11.5 4.65C11.75 4.5 11.9 4.35 11.9 4.2C11.9 4 11.7 3.9 11.5 3.9C11.25 3.9 11.1 4 11.1 4.2C11.1 4.35 11.25 4.5 11.5 4.65ZM11.5 8.5C11.35 8.5 11.15 8.5 11 8.45V13H5V7.5H6V8.5H7V7.5H9.05C8.75 7.2 8.5 6.85 8.35 6.5H5V4.5H8.05C8.1 4.15 8.2 3.8 8.35 3.5H5C4.45 3.5 4 3.95 4 4.5V13C4 13.55 4.45 14 5 14V15H6V14H10V15H11V14C11.55 14 12 13.55 12 13V8.45C11.85 8.5 11.65 8.5 11.5 8.5ZM7 3H6V2C6 1.45 6.45 1 7 1H9C9.5 1 9.9 1.35 10 1.85C9.65 2.05 9.3 2.25 9 2.55V2H7V3Z" fill="#101419"/>
</g>
<defs>
<clipPath id="clip0_7472_34353">
<rect width="16" height="16" fill="white"/>
</clipPath>
</defs>
</svg>
