<?xml version="1.0" encoding="utf-8"?>
<!-- Generator: Adobe Illustrator 25.4.1, SVG Export Plug-In . SVG Version: 6.00 Build 0)  -->
<svg version="1.1" id="Layer_1" xmlns="http://www.w3.org/2000/svg" xmlns:xlink="http://www.w3.org/1999/xlink" x="0px" y="0px"
	 width="32px" height="32px" viewBox="0 0 32 32" style="enable-background:new 0 0 32 32;" xml:space="preserve">
<style type="text/css">
	.st0{fill:#FFFFFF;}
	.st1{fill:none;stroke:#999999;stroke-width:2.000000e-02;stroke-miterlimit:10;}
	.st2{fill:none;stroke:#FF00FF;stroke-width:4.000000e-02;stroke-miterlimit:10;}
	.st3{fill:none;stroke:#FF00FF;stroke-width:0.1;stroke-miterlimit:10;}
	.st4{opacity:0.3;fill:none;stroke:#000000;stroke-width:2;stroke-miterlimit:10;}
	.st5{opacity:0.3;}
	.st6{fill:#ED1C24;}
	.st7{fill:#39B54A;}
	.st8{fill:none;}
</style>
<g>
	<path d="M8,20h12c1.1,0,2-0.9,2-2v-8c0-1.1-0.9-2-2-2H8c-1.1,0-2,0.9-2,2v8C6,19.1,6.9,20,8,20z M8,10h12v8L8,18V10z M13,7h-2V6
		c0-1.1,0.9-2,2-2h2c1.1,0,2,0.9,2,2v1h-2V6h-2V7z M8,26c0,1.1-0.9,2-2,2s-2-0.9-2-2s0.9-2,2-2S8,24.9,8,26z M26,26c0,1.1-0.9,2-2,2
		s-2-0.9-2-2s0.9-2,2-2S26,24.9,26,26z M30,4v2h-2v15c0,1.1-0.9,2-2,2H2v-2h24V6c0-1.1,0.9-2,2-2H30z"/>
	<rect y="0" class="st8" width="32" height="32"/>
</g>
</svg>
