<?xml version="1.0" encoding="utf-8"?>
<!-- Generator: Adobe Illustrator 25.4.1, SVG Export Plug-In . SVG Version: 6.00 Build 0)  -->
<svg version="1.1" id="Layer_1" xmlns="http://www.w3.org/2000/svg" xmlns:xlink="http://www.w3.org/1999/xlink" x="0px" y="0px"
	 width="32px" height="32px" viewBox="0 0 32 32" style="enable-background:new 0 0 32 32;" xml:space="preserve">
<style type="text/css">
	.st0{fill:#FFFFFF;}
	.st1{fill:none;stroke:#999999;stroke-width:2.000000e-02;stroke-miterlimit:10;}
	.st2{fill:none;stroke:#FF00FF;stroke-width:4.000000e-02;stroke-miterlimit:10;}
	.st3{fill:none;stroke:#FF00FF;stroke-width:0.1;stroke-miterlimit:10;}
	.st4{opacity:0.3;fill:none;stroke:#000000;stroke-width:2;stroke-miterlimit:10;}
	.st5{opacity:0.3;}
	.st6{fill:#ED1C24;}
	.st7{fill:#39B54A;}
	.st8{fill:none;}
</style>
<g>
	<path d="M19,12h-6c-2.2,0-4,1.8-4,4v10c0,1.1,0.9,2,2,2v2h2v-2h6v2h2v-2c1.1,0,2-0.9,2-2V16C23,13.8,21.2,12,19,12z M11,16
		c0-1.1,0.9-2,2-2h6c1.1,0,2,0.9,2,2v2H11V16z M21,26H11v-6h10V26z M15,11h-2V4c0-1.1,0.9-2,2-2h2c1.1,0,2,0.9,2,2v7h-2V4h-2V11z"/>
	<rect y="0" class="st8" width="32" height="32"/>
</g>
</svg>
