<?xml version="1.0" encoding="utf-8"?>
<!-- Generator: Adobe Illustrator 25.4.1, SVG Export Plug-In . SVG Version: 6.00 Build 0)  -->
<svg version="1.1" id="Layer_1" xmlns="http://www.w3.org/2000/svg" xmlns:xlink="http://www.w3.org/1999/xlink" x="0px" y="0px"
	 width="32px" height="32px" viewBox="0 0 32 32" style="enable-background:new 0 0 32 32;" xml:space="preserve">
<style type="text/css">
	.st0{fill:#FFFFFF;}
	.st1{fill:none;stroke:#999999;stroke-width:2.000000e-02;stroke-miterlimit:10;}
	.st2{fill:none;stroke:#FF00FF;stroke-width:4.000000e-02;stroke-miterlimit:10;}
	.st3{fill:none;stroke:#FF00FF;stroke-width:0.1;stroke-miterlimit:10;}
	.st4{opacity:0.3;fill:none;stroke:#000000;stroke-width:2;stroke-miterlimit:10;}
	.st5{opacity:0.3;}
	.st6{fill:#ED1C24;}
	.st7{fill:#39B54A;}
	.st8{fill:none;}
</style>
<g>
	<path d="M22,22v4h-2v-4c0-0.6-0.4-1-1-1h-6c-0.6,0-1,0.4-1,1v4h-2v-4c0-1.7,1.3-3,3-3h6C20.7,19,22,20.3,22,22z M26,4v9v0.6V25
		c0,2.8-2.2,5-5,5H11c-2.8,0-5-2.2-5-5V13.6V13V4c0-1.1,0.9-2,2-2h2c1.1,0,2,0.9,2,2v2c-0.7,0-1.4,0.1-2,0.3V4H8v4.5
		c1.1-1,2.5-1.5,4-1.5h8c1.5,0,2.9,0.6,4,1.5V4h-2v2.3C21.4,6.1,20.7,6,20,6V4c0-1.1,0.9-2,2-2h2C25.1,2,26,2.9,26,4z M24,25v-8H8v8
		c0,1.7,1.3,3,3,3h10C22.7,28,24,26.7,24,25z M24,13.6V13c0-2.2-1.8-4-4-4h-8c-2.2,0-4,1.8-4,4v0.6V15h16V13.6z M16,5
		c0.6,0,1,0.4,1,1h2c0-1.7-1.3-3-3-3s-3,1.3-3,3h2C15,5.4,15.4,5,16,5z"/>
	<rect class="st8" width="32" height="32"/>
</g>
</svg>
