<svg width="16" height="16" viewBox="0 0 16 16" fill="none" xmlns="http://www.w3.org/2000/svg">
<g clip-path="url(#clip0_7472_34361)">
<path d="M7 3H6V2C6 1.45 6.45 1 7 1H9C9.55 1 10 1.45 10 2V3H9V2H7V3ZM11 13H5V7.5H6V8.5H7V7.5H7.5V6.5H5V4.5H7.5V3.5H5C4.45 3.5 4 3.95 4 4.5V13C4 13.55 4.45 14 5 14V15H6V14H10V15H11V14C11.55 14 12 13.55 12 13V9H11V13ZM1 7.4H3.5V6.65H1V7.4ZM1.5 9.4H3.5V8.65H1.5V9.4ZM1 11.4H3.5V10.65H1V11.4ZM15 3.5V8.5L12.5 10V8.5H8V3.5H15ZM14 4.5H9V7.5H14V4.5ZM10.5 5H9.5V7H10.5V5ZM12.5 5H12V7H12.5V5ZM11.5 5H11V7H11.5V5Z" fill="#101419"/>
</g>
<defs>
<clipPath id="clip0_7472_34361">
<rect width="16" height="16" fill="white"/>
</clipPath>
</defs>
</svg>
