<?xml version="1.0" encoding="utf-8"?>
<!-- Generator: Adobe Illustrator 25.4.1, SVG Export Plug-In . SVG Version: 6.00 Build 0)  -->
<svg version="1.1" id="Layer_1" xmlns="http://www.w3.org/2000/svg" xmlns:xlink="http://www.w3.org/1999/xlink" x="0px" y="0px"
	 width="32px" height="32px" viewBox="0 0 32 32" style="enable-background:new 0 0 32 32;" xml:space="preserve">
<style type="text/css">
	.st0{fill:#FFFFFF;}
	.st1{fill:none;stroke:#999999;stroke-width:2.000000e-02;stroke-miterlimit:10;}
	.st2{fill:none;stroke:#FF00FF;stroke-width:4.000000e-02;stroke-miterlimit:10;}
	.st3{fill:none;stroke:#FF00FF;stroke-width:0.1;stroke-miterlimit:10;}
	.st4{opacity:0.3;fill:none;stroke:#000000;stroke-width:2;stroke-miterlimit:10;}
	.st5{opacity:0.3;}
	.st6{fill:#ED1C24;}
	.st7{fill:#39B54A;}
	.st8{fill:none;}
</style>
<g>
	<path d="M11,5H9V4c0-1.1,0.9-2,2-2h2c1.1,0,2,0.9,2,2v1h-2V4h-2V5z M7,8h9c0-0.8,0.3-1.5,0.8-2H7C5.9,6,5,6.9,5,8v4v1v9
		c0,1.1,0.9,2,2,2v2h2v-2h3v-2H7v-9h2v2h2v-2h1v-1c0-0.4,0.1-0.7,0.2-1H7V8z M27,12v4v1v9c0,1.1-0.9,2-2,2v2h-2v-2h-6v2h-2v-2
		c-1.1,0-2-0.9-2-2v-9v-1v-4c0-1.1,0.9-2,2-2h10C26.1,10,27,10.9,27,12z M25,17h-6v2h-2v-2h-2v9h10V17z M25,12H15v3h10V12z M19,8h2
		v1h2V8c0-1.1-0.9-2-2-2h-2c-1.1,0-2,0.9-2,2v1h2V8z"/>
	<rect class="st8" width="32" height="32"/>
</g>
</svg>
