<svg width="16" height="16" viewBox="0 0 16 16" fill="none" xmlns="http://www.w3.org/2000/svg">
<g clip-path="url(#clip0_7472_34333)">
<path d="M11.5 2C9.85 2 8.5 3.35 8.5 5C8.5 6.65 9.85 8 11.5 8C13.15 8 14.5 6.65 14.5 5C14.5 3.35 13.15 2 11.5 2ZM11.3 6.85C11.05 6.85 10.7 6.8 10.65 6.8H10.6L10.55 6.1H10.65C10.75 6.1 11 6.15 11.2 6.15C11.5 6.15 11.85 6.05 11.85 5.7C11.85 5.5 11.8 5.3 11.15 5.3H10.9V4.7H11.1C11.45 4.7 11.8 4.6 11.8 4.3C11.8 4.05 11.6 3.95 11.3 3.95C11.05 3.95 10.75 4.1 10.75 4.1L10.7 4.15L10.5 3.5H10.55C10.7 3.4 11 3.25 11.5 3.25C12.15 3.25 12.55 3.65 12.55 4.2C12.55 4.65 12.3 4.85 12.1 4.95C12.35 5.05 12.6 5.3 12.6 5.8C12.65 6.45 12.15 6.85 11.3 6.85ZM12 8.45V13C12 13.55 11.55 14 11 14V15H10V14H6V15H5V14C4.45 14 4 13.55 4 13V4.5C4 3.95 4.45 3.5 5 3.5H8.35C8.2 3.8 8.1 4.15 8.05 4.5H5V6.5H8.35C8.55 6.85 8.75 7.2 9.05 7.5H7V8.5H6V7.5H5V13H11V8.45C11.15 8.45 11.35 8.5 11.5 8.5C11.65 8.5 11.85 8.5 12 8.45ZM7 2H9V2.55C9.3 2.25 9.6 2 10 1.85C9.95 1.35 9.5 1 9 1H7C6.45 1 6 1.45 6 2V3H7V2Z" fill="#101419"/>
</g>
<defs>
<clipPath id="clip0_7472_34333">
<rect width="16" height="16" fill="white"/>
</clipPath>
</defs>
</svg>
