<svg width="16" height="16" viewBox="0 0 16 16" fill="none" xmlns="http://www.w3.org/2000/svg">
<g clip-path="url(#clip0_7472_34341)">
<path d="M11.5 2C9.85 2 8.5 3.35 8.5 5C8.5 6.65 9.85 8 11.5 8C13.15 8 14.5 6.65 14.5 5C14.5 3.35 13.15 2 11.5 2ZM11.25 6.85C11 6.85 10.8 6.8 10.7 6.8C10.65 6.8 10.6 6.8 10.6 6.8V6.1H10.7C10.75 6.1 10.95 6.15 11.2 6.15C11.55 6.15 11.95 6 11.95 5.65C11.95 5.25 11.55 5.2 11.2 5.2C10.9 5.2 10.7 5.25 10.7 5.3L10.6 5.35V3.35H12.55V4H11.35V4.6C11.4 4.6 11.5 4.6 11.6 4.6C12.25 4.6 12.65 5.05 12.65 5.7C12.7 6.45 12.15 6.85 11.25 6.85ZM12 8.45V13C12 13.55 11.55 14 11 14V15H10V14H6V15H5V14C4.45 14 4 13.55 4 13V4.5C4 3.95 4.45 3.5 5 3.5H8.35C8.2 3.8 8.1 4.15 8.05 4.5H5V6.5H8.35C8.55 6.85 8.75 7.2 9.05 7.5H7V8.5H6V7.5H5V13H11V8.45C11.15 8.45 11.35 8.5 11.5 8.5C11.65 8.5 11.85 8.5 12 8.45ZM7 2H9V2.55C9.3 2.25 9.6 2 10 1.85C9.95 1.35 9.5 1 9 1H7C6.45 1 6 1.45 6 2V3H7V2Z" fill="#101419"/>
</g>
<defs>
<clipPath id="clip0_7472_34341">
<rect width="16" height="16" fill="white"/>
</clipPath>
</defs>
</svg>
