<?xml version="1.0" encoding="utf-8"?>
<!-- Generator: Adobe Illustrator 25.4.1, SVG Export Plug-In . SVG Version: 6.00 Build 0)  -->
<svg version="1.1" id="Layer_1" xmlns="http://www.w3.org/2000/svg" xmlns:xlink="http://www.w3.org/1999/xlink" x="0px" y="0px"
	 width="32px" height="32px" viewBox="0 0 32 32" style="enable-background:new 0 0 32 32;" xml:space="preserve">
<style type="text/css">
	.st0{fill:#FFFFFF;}
	.st1{fill:none;stroke:#999999;stroke-width:2.000000e-02;stroke-miterlimit:10;}
	.st2{fill:none;stroke:#FF00FF;stroke-width:4.000000e-02;stroke-miterlimit:10;}
	.st3{fill:none;stroke:#FF00FF;stroke-width:0.1;stroke-miterlimit:10;}
	.st4{opacity:0.3;fill:none;stroke:#000000;stroke-width:2;stroke-miterlimit:10;}
	.st5{opacity:0.3;}
	.st6{fill:#ED1C24;}
	.st7{fill:#39B54A;}
	.st8{fill:none;}
	.st9{fill:none;stroke:#FFFFFF;stroke-miterlimit:10;}
</style>
<g>
	<path d="M19,4h-6V2h6V4z M24,7v11v10c0,1.1-0.9,2-2,2H10c-1.1,0-2-0.9-2-2V18V7c0-1.1,0.9-2,2-2h12C23.1,5,24,5.9,24,7z M22,18V7
		H10v11v10h12V18z M19.8,17.6h-2.5l0.5-6.3c0-0.2-0.2-0.3-0.4-0.2l-5.3,6.1c-0.1,0.1,0,0.4,0.2,0.4h2.5l-0.5,6.3
		c0,0.2,0.2,0.3,0.4,0.2l5.3-6.1C20.1,17.8,20,17.6,19.8,17.6z"/>
	<rect y="0" class="st8" width="32" height="32"/>
</g>
</svg>
