<svg width="16" height="16" viewBox="0 0 16 16" fill="none" xmlns="http://www.w3.org/2000/svg">
<g clip-path="url(#clip0_7472_34741)">
<path d="M14 4H2C1.45 4 1 4.45 1 5V11C1 11.55 1.45 12 2 12H14C14.55 12 15 11.55 15 11V5C15 4.45 14.55 4 14 4ZM10.9 11V9.9H10.15V11H2V5H10.1V6.1H10.85V5H14V11H10.9ZM8.5 8C8.5 8.2 8.3 8.4 8.1 8.4H6.6L5.5 10.4C5.45 10.45 5.4 10.5 5.35 10.5H4.95C4.9 10.5 4.85 10.45 4.85 10.4L5.4 8.45H4.25L3.9 8.9C3.85 8.95 3.8 9 3.7 8.95L3.5 8.85C3.5 8.8 3.5 8.75 3.5 8.7V7.3C3.5 7.25 3.5 7.25 3.55 7.2L3.75 7.1C3.85 7.05 3.9 7.05 3.95 7.15L4.3 7.6H5.45L4.9 5.65C4.9 5.6 4.95 5.55 5 5.55H5.35C5.4 5.55 5.5 5.6 5.5 5.65L6.6 7.65H8.1C8.3 7.6 8.5 7.8 8.5 8ZM11.5 6.1H13.5V6.85H11.5V6.1ZM11.5 7.6H13.5V8.35H11.5V7.6ZM11.5 9.1H13.5V9.85H11.5V9.1ZM10.1 6.9H10.85V7.65H10.1V6.9ZM10.1 8.4H10.85V9.15H10.1V8.4Z" fill="#101419"/>
</g>
<defs>
<clipPath id="clip0_7472_34741">
<rect width="16" height="16" fill="white"/>
</clipPath>
</defs>
</svg>
