<svg width="16" height="16" viewBox="0 0 16 16" fill="none" xmlns="http://www.w3.org/2000/svg">
<g clip-path="url(#clip0_7313_33039)">
<path d="M10 3.5H6V2.5H10V3.5ZM14 8H13.5V13C13.5 13.55 13.05 14 12.5 14V15H11V14H5V15H3.5V14C2.95 14 2.5 13.55 2.5 13V8H2V4.5H2.75L2.9 2.4C3 1.6 3.65 1 4.45 1H11.6C12.4 1 13.05 1.6 13.1 2.4L13.25 4.5H14V8ZM3.95 2.45L3.55 7.5H12.45L12.05 2.45C12.05 2.2 11.8 2 11.55 2H4.45C4.15 2 3.95 2.2 3.95 2.45ZM12.5 13V8.5H3.5V13H5H11H12.5ZM11.25 9C10.85 9 10.5 9.35 10.5 9.75C10.5 10.15 10.85 10.5 11.25 10.5C11.65 10.5 12 10.15 12 9.75C12 9.35 11.65 9 11.25 9ZM4.75 9C4.35 9 4 9.35 4 9.75C4 10.15 4.35 10.5 4.75 10.5C5.15 10.5 5.5 10.15 5.5 9.75C5.5 9.35 5.15 9 4.75 9Z" fill="#101419"/>
</g>
<defs>
<clipPath id="clip0_7313_33039">
<rect width="16" height="16" fill="white"/>
</clipPath>
</defs>
</svg>
