<?xml version="1.0" encoding="utf-8"?>
<!-- Generator: Adobe Illustrator 25.4.1, SVG Export Plug-In . SVG Version: 6.00 Build 0)  -->
<svg version="1.1" id="Layer_1" xmlns="http://www.w3.org/2000/svg" xmlns:xlink="http://www.w3.org/1999/xlink" x="0px" y="0px"
	 width="32px" height="32px" viewBox="0 0 32 32" style="enable-background:new 0 0 32 32;" xml:space="preserve">
<style type="text/css">
	.st0{fill:#FFFFFF;}
	.st1{fill:none;stroke:#999999;stroke-width:2.000000e-02;stroke-miterlimit:10;}
	.st2{fill:none;stroke:#FF00FF;stroke-width:4.000000e-02;stroke-miterlimit:10;}
	.st3{fill:none;stroke:#FF00FF;stroke-width:0.1;stroke-miterlimit:10;}
	.st4{opacity:0.3;fill:none;stroke:#000000;stroke-width:2;stroke-miterlimit:10;}
	.st5{opacity:0.3;}
	.st6{fill:#ED1C24;}
	.st7{fill:#39B54A;}
	.st8{fill:none;}
	.st9{fill:none;stroke:#FFFFFF;stroke-miterlimit:10;}
</style>
<g>
	<path d="M13,15h-2v-3c0-1.7,1.3-3,3-3h4c1.7,0,3,1.3,3,3v3h-2v-3c0-0.6-0.4-1-1-1h-4c-0.6,0-1,0.4-1,1V15z M13,5c0-1.7,1.3-3,3-3
		s3,1.3,3,3s-1.3,3-3,3S13,6.7,13,5z M15,5c0,0.6,0.4,1,1,1s1-0.4,1-1s-0.4-1-1-1S15,4.4,15,5z M28,16H4c-1.1,0-2,0.9-2,2v12h2V18
		h24v12h2V18C30,16.9,29.1,16,28,16z M20.8,26l-4-2.2v-3c0-0.4-0.4-0.8-0.8-0.8s-0.8,0.4-0.8,0.8v3l-4,2.2c-0.1,0.1-0.2,0.2-0.2,0.3
		v0.7c0,0.1,0.1,0.2,0.2,0.2l3.9-1.1v2.3h0l-0.9,0.7c-0.1,0.1-0.2,0.2-0.1,0.4l0.2,0.4c0,0.1,0.1,0.1,0.2,0.1h2.8
		c0.1,0,0.1,0,0.2-0.1l0.2-0.4c0.1-0.2,0.1-0.3-0.1-0.4l-0.9-0.7v-2.3l3.9,1.1c0.1,0,0.2-0.1,0.2-0.2v-0.7
		C21,26.2,20.9,26.1,20.8,26z"/>
	<rect class="st8" width="32" height="32"/>
</g>
</svg>
