<?xml version="1.0" encoding="utf-8"?>
<!-- Generator: Adobe Illustrator 25.4.1, SVG Export Plug-In . SVG Version: 6.00 Build 0)  -->
<svg version="1.1" id="Layer_1" xmlns="http://www.w3.org/2000/svg" xmlns:xlink="http://www.w3.org/1999/xlink" x="0px" y="0px"
	 width="32px" height="32px" viewBox="0 0 32 32" style="enable-background:new 0 0 32 32;" xml:space="preserve">
<style type="text/css">
	.st0{fill:#FFFFFF;}
	.st1{fill:none;stroke:#999999;stroke-width:2.000000e-02;stroke-miterlimit:10;}
	.st2{fill:none;stroke:#FF00FF;stroke-width:4.000000e-02;stroke-miterlimit:10;}
	.st3{fill:none;stroke:#FF00FF;stroke-width:0.1;stroke-miterlimit:10;}
	.st4{opacity:0.3;fill:none;stroke:#000000;stroke-width:2;stroke-miterlimit:10;}
	.st5{opacity:0.3;}
	.st6{fill:#ED1C24;}
	.st7{fill:#39B54A;}
	.st8{fill:none;}
	.st9{fill:none;stroke:#FFFFFF;stroke-miterlimit:10;}
</style>
<g>
	<path d="M21,20h2v10h-2V20z M22,9h-4c-1.7,0-3,1.3-3,3v7h2v-7c0-0.6,0.4-1,1-1h4c0.6,0,1,0.4,1,1v7h2v-7C25,10.3,23.7,9,22,9z
		 M17,30h2V20h-2V30z M17,5c0-1.7,1.3-3,3-3s3,1.3,3,3s-1.3,3-3,3S17,6.7,17,5z M19,5c0,0.6,0.4,1,1,1s1-0.4,1-1s-0.4-1-1-1
		S19,4.4,19,5z M11,10H7c-1.7,0-3,1.3-3,3v2h2v-2c0-0.6,0.4-1,1-1h4c0.6,0,1,0.4,1,1v2h2v-2C14,11.3,12.7,10,11,10z M6,6
		c0-1.7,1.3-3,3-3s3,1.3,3,3s-1.3,3-3,3S6,7.7,6,6z M8,6c0,0.6,0.4,1,1,1s1-0.4,1-1S9.6,5,9,5S8,5.4,8,6z M28,16h-2v2h2v12h2V18
		C30,16.9,29.1,16,28,16z M4,16c-1.1,0-2,0.9-2,2v12h2V18h2h8v-2H6H4z M9,24.9l-1.5-1.5l-1.1,1.1L9,27.1l4.5-4.5l-1.1-1.1L9,24.9z"
		/>
	<rect class="st8" width="32" height="32"/>
</g>
</svg>
