<svg width="16" height="16" viewBox="0 0 16 16" fill="none" xmlns="http://www.w3.org/2000/svg">
<g clip-path="url(#clip0_11362_36875)">
<path d="M8.15 5.34999L8.8 6.69999C8.8 6.74999 8.85 6.74999 8.9 6.79999L10.4 6.99999C10.5 6.99999 10.55 7.14999 10.5 7.24999L9.45 8.29999C9.4 8.34999 9.4 8.39999 9.4 8.39999L9.65 9.84999C9.65 9.94999 9.55 10.05 9.45 9.99999L8.1 9.29999C8.05 9.29999 8 9.29999 7.95 9.29999L6.6 9.99999C6.5 10.05 6.4 9.94999 6.4 9.84999L6.65 8.39999C6.65 8.34999 6.65 8.29999 6.6 8.29999L5.55 7.24999C5.45 7.14999 5.5 7.04999 5.65 6.99999L7.15 6.79999C7.2 6.79999 7.25 6.74999 7.25 6.69999L7.9 5.34999C7.95 5.24999 8.05 5.24999 8.15 5.34999ZM13.5 4.24999V7.94999C13.5 10.05 12.45 12.05 10.75 13.3L8.45 14.9C8.3 14.95 8.15 15 8 15C7.85 15 7.7 14.95 7.55 14.85L5.25 13.25C3.55 12.05 2.5 10.05 2.5 7.94999V4.24999C2.5 3.84999 2.7 3.54999 3.05 3.34999L7.55 1.09999C7.85 0.949988 8.15 0.949988 8.45 1.09999L12.95 3.34999C13.3 3.54999 13.5 3.84999 13.5 4.24999ZM12.5 4.24999L8 1.99999L3.5 4.24999V7.94999C3.5 9.74999 4.4 11.45 5.85 12.45L8 13.95L10.15 12.45C11.6 11.4 12.5 9.74999 12.5 7.94999V4.24999Z" fill="#101419"/>
</g>
<defs>
<clipPath id="clip0_11362_36875">
<rect width="16" height="16" fill="white"/>
</clipPath>
</defs>
</svg>
