<svg width="16" height="16" viewBox="0 0 16 16" fill="none" xmlns="http://www.w3.org/2000/svg">
<g clip-path="url(#clip0_7472_34249)">
<path d="M5 9.5C4.45 9.5 4 9.05 4 8.5C4 7.95 4.45 7.5 5 7.5C5.55 7.5 6 7.95 6 8.5C6 9.05 5.55 9.5 5 9.5ZM3 12H7C7 10.9 6.1 10 5 10C3.9 10 3 10.9 3 12ZM14 7.85V13H2V5H8.5C8.5 4.65 8.55 4.3 8.65 4H2C1.45 4 1 4.45 1 5V13C1 13.55 1.45 14 2 14H14C14.55 14 15 13.55 15 13V6.8C14.75 7.2 14.4 7.6 14 7.85ZM9.55 6.75C9.2 6.25 9 5.65 9 5C9 4.2 9.3 3.45 9.9 2.9C10.45 2.3 11.2 2 12 2C12.8 2 13.55 2.3 14.1 2.9C14.7 3.45 15 4.2 15 5C15 5.8 14.7 6.55 14.1 7.1C13.55 7.7 12.8 8 12 8C11.35 8 10.75 7.8 10.25 7.45L8.35 9.35L7.65 8.65L9.55 6.75ZM10 5C10 5.55 10.2 6.05 10.6 6.4C11.35 7.15 12.65 7.15 13.45 6.4C13.85 6 14.05 5.5 14.05 5C14.05 4.5 13.85 3.95 13.45 3.6C13.05 3.2 12.55 3 12 3C11.45 3 10.95 3.2 10.6 3.6C10.2 3.95 10 4.45 10 5ZM8 12H13V11H8V12ZM13 9H10.5V10H13V9Z" fill="#101419"/>
</g>
<defs>
<clipPath id="clip0_7472_34249">
<rect width="16" height="16" fill="white"/>
</clipPath>
</defs>
</svg>
