<?xml version="1.0" encoding="utf-8"?>
<!-- Generator: Adobe Illustrator 25.4.1, SVG Export Plug-In . SVG Version: 6.00 Build 0)  -->
<svg version="1.1" id="Layer_1" xmlns="http://www.w3.org/2000/svg" xmlns:xlink="http://www.w3.org/1999/xlink" x="0px" y="0px"
	 width="32px" height="32px" viewBox="0 0 32 32" style="enable-background:new 0 0 32 32;" xml:space="preserve">
<style type="text/css">
	.st0{fill:#FFFFFF;}
	.st1{fill:none;stroke:#999999;stroke-width:2.000000e-02;stroke-miterlimit:10;}
	.st2{fill:none;stroke:#FF00FF;stroke-width:4.000000e-02;stroke-miterlimit:10;}
	.st3{fill:none;stroke:#FF00FF;stroke-width:0.1;stroke-miterlimit:10;}
	.st4{opacity:0.3;fill:none;stroke:#000000;stroke-width:2;stroke-miterlimit:10;}
	.st5{opacity:0.3;}
	.st6{fill:#ED1C24;}
	.st7{fill:#39B54A;}
	.st8{fill:none;}
	.st9{fill:none;stroke:#FFFFFF;stroke-miterlimit:10;}
</style>
<g>
	<path d="M10,8c1.7,0,3-1.3,3-3s-1.3-3-3-3S7,3.3,7,5S8.3,8,10,8z M10,4c0.6,0,1,0.4,1,1s-0.4,1-1,1S9,5.6,9,5S9.4,4,10,4z M30,18.4
		L20.4,28H23v2h-6v-6h2v2.6l9.6-9.6L30,18.4z M30,6v7h-2V6c0-1.1-0.9-2-2-2c-0.5,0-1,0.2-1.3,0.5l-0.1,0.1l-20,20
		C4.2,25,4,25.5,4,26c0,0.5,0.2,1,0.6,1.4C5,27.8,5.5,28,6,28h7v2H6c-2.2,0-4-1.8-4-4c0-0.9,0.3-1.8,0.9-2.6L23.3,3
		C24.1,2.4,25,2,26,2C28.2,2,30,3.8,30,6z M9,15.9l-2,2v-7c0-1.1,0.9-2,2-2c1.9,0,3.5,1.3,3.9,3.1L11,13.9V13c0-1.1-0.9-2-2-2V15.9z
		"/>
	<rect class="st8" width="32" height="32"/>
</g>
</svg>
