<?xml version="1.0" encoding="utf-8"?>
<!-- Generator: Adobe Illustrator 25.4.1, SVG Export Plug-In . SVG Version: 6.00 Build 0)  -->
<svg version="1.1" id="Layer_1" xmlns="http://www.w3.org/2000/svg" xmlns:xlink="http://www.w3.org/1999/xlink" x="0px" y="0px"
	 width="32px" height="32px" viewBox="0 0 32 32" style="enable-background:new 0 0 32 32;" xml:space="preserve">
<style type="text/css">
	.st0{fill:#FFFFFF;}
	.st1{fill:none;stroke:#999999;stroke-width:2.000000e-02;stroke-miterlimit:10;}
	.st2{fill:none;stroke:#FF00FF;stroke-width:4.000000e-02;stroke-miterlimit:10;}
	.st3{fill:none;stroke:#FF00FF;stroke-width:0.1;stroke-miterlimit:10;}
	.st4{opacity:0.3;fill:none;stroke:#000000;stroke-width:2;stroke-miterlimit:10;}
	.st5{opacity:0.3;}
	.st6{fill:#ED1C24;}
	.st7{fill:#39B54A;}
	.st8{fill:none;}
	.st9{fill:none;stroke:#FFFFFF;stroke-miterlimit:10;}
</style>
<g>
	<path d="M10,8c1.7,0,3-1.3,3-3s-1.3-3-3-3S7,3.3,7,5S8.3,8,10,8z M10,4c0.6,0,1,0.4,1,1s-0.4,1-1,1S9,5.6,9,5S9.4,4,10,4z M9,15.9
		l-2,2v-7c0-1.1,0.9-2,2-2c1.9,0,3.5,1.3,3.9,3.1L11,13.9V13c0-1.1-0.9-2-2-2V15.9z M26,2c-1,0-1.9,0.4-2.7,1L2.9,23.4
		C2.3,24.2,2,25,2,26c0,2.2,1.8,4,4,4h7l1.3,0c1.3,0,2.6-0.5,3.5-1.5l10.7-10.7c0.9-0.9,1.5-2.2,1.5-3.5V13V6C30,3.8,28.2,2,26,2z
		 M28,13v1.3c0,0.8-0.3,1.6-0.9,2.1L16.5,27.1c-0.6,0.6-1.3,0.9-2.1,0.9L13,28H6c-0.5,0-1-0.2-1.4-0.6C4.2,27,4,26.5,4,26
		c0-0.5,0.2-1,0.6-1.4l20-20l0.1-0.1C25,4.2,25.5,4,26,4c1.1,0,2,0.9,2,2V13z"/>
	<rect class="st8" width="32" height="32"/>
</g>
</svg>
