<svg width="16" height="16" viewBox="0 0 16 16" fill="none" xmlns="http://www.w3.org/2000/svg">
<g clip-path="url(#clip0_7472_34725)">
<path d="M13 6C12.9 3.35 10.9 1.2 8.35 1C6.95 0.9 5.6 1.4 4.6 2.35C3.6 3.3 3 4.6 3 6C2.45 6 2 6.45 2 7V8.7C2 9.05 2.2 9.4 2.5 9.55L3 9.9V10C3 10.85 3.4 11.8 4 12.6V15H5V13.7C5.9 14.5 7 15 8 15C9 15 10.1 14.45 11 13.7V15H12V12.6C12.6 11.8 13 10.85 13 10V9.9L13.5 9.55C13.8 9.35 14 9.05 14 8.7V7C14 6.45 13.55 6 13 6ZM12.15 9.3L8.9 7.75C8.25 7.45 7.7 7.45 7.05 7.75L3.8 9.3L3 8.75V8.7V7H4V6C4 4.9 4.45 3.85 5.25 3.1C6.05 2.35 7.15 1.95 8.25 2.05C10.35 2.2 12 4 12 6.2V7H13V8.7L12.15 9.3Z" fill="#101419"/>
</g>
<defs>
<clipPath id="clip0_7472_34725">
<rect width="16" height="16" fill="white"/>
</clipPath>
</defs>
</svg>
