<?xml version="1.0" encoding="utf-8"?>
<!-- Generator: Adobe Illustrator 25.4.1, SVG Export Plug-In . SVG Version: 6.00 Build 0)  -->
<svg version="1.1" id="Layer_1" xmlns="http://www.w3.org/2000/svg" xmlns:xlink="http://www.w3.org/1999/xlink" x="0px" y="0px"
	 width="32px" height="32px" viewBox="0 0 32 32" style="enable-background:new 0 0 32 32;" xml:space="preserve">
<style type="text/css">
	.st0{fill:#FFFFFF;}
	.st1{fill:none;stroke:#999999;stroke-width:2.000000e-02;stroke-miterlimit:10;}
	.st2{fill:none;stroke:#FF00FF;stroke-width:4.000000e-02;stroke-miterlimit:10;}
	.st3{fill:none;stroke:#FF00FF;stroke-width:0.1;stroke-miterlimit:10;}
	.st4{opacity:0.3;fill:none;stroke:#000000;stroke-width:2;stroke-miterlimit:10;}
	.st5{opacity:0.3;}
	.st6{fill:#ED1C24;}
	.st7{fill:#39B54A;}
	.st8{fill:none;}
	.st9{fill:none;stroke:#FFFFFF;stroke-miterlimit:10;}
</style>
<g>
	<path d="M17,23h-2l-1-4v-7c0-0.5-0.5-1-1-1h-3c-0.5,0-1,0.5-1,1v7l-1,4H6l1-4v-7c0-1.7,1.3-3,3-3h3c1.7,0,3,1.3,3,3v7L17,23z
		 M12,30h2v-6h-2V30z M24,30h2V20h-2V30z M25,9h-4c-1.7,0-3,1.3-3,3v7h2v-7c0-0.6,0.4-1,1-1h4c0.6,0,1,0.4,1,1v7h2v-7
		C28,10.3,26.7,9,25,9z M20,30h2V20h-2V30z M8.5,5c0-1.7,1.3-3,3-3s3,1.3,3,3s-1.3,3-3,3S8.5,6.7,8.5,5z M10.5,5c0,0.6,0.4,1,1,1
		s1-0.4,1-1s-0.4-1-1-1S10.5,4.4,10.5,5z M20,5c0-1.7,1.3-3,3-3s3,1.3,3,3s-1.3,3-3,3S20,6.7,20,5z M22,5c0,0.6,0.4,1,1,1s1-0.4,1-1
		s-0.4-1-1-1S22,4.4,22,5z M9,30h2v-6H9V30z"/>
	<rect class="st8" width="32" height="32"/>
</g>
</svg>
