<svg width="16" height="16" viewBox="0 0 16 16" fill="none" xmlns="http://www.w3.org/2000/svg">
<g clip-path="url(#clip0_9546_34898)">
<path d="M4.49995 5.5H3.49995C3.49995 2.7 5.79995 1 7.99995 1C9.49995 1 11 1.5 12 2.6L11.3 3.3C10.25 2.1 8.49995 2 7.99995 2C6.29995 2 4.49995 3.25 4.49995 5.5ZM12.9 4.5C12.95 4.8 13 5.15 13 5.5C13 7.2 12.4 8.8 11.35 9.85C11.15 10.05 10.9 10.25 10.7 10.45C9.99995 11.1 9.49995 11.55 9.49995 12.5C9.49995 13.7 8.84995 15 6.99995 15C5.89995 15 4.69995 14.45 4.49995 12.9L5.49995 11.95V12.5C5.49995 13.75 6.29995 14 6.99995 14C8.24995 14 8.49995 13.2 8.49995 12.5C8.49995 11.1 9.24995 10.4 10.05 9.7C10.25 9.55 10.45 9.35 10.65 9.15C11.5 8.3 12 6.95 12 5.5C12 5.45 12 5.45 12 5.4C12 5.15 12 4.95 11.95 4.75L8.69995 8C8.79995 8.15 8.89995 8.3 8.94995 8.45C8.99995 8.6 9.04995 8.8 9.04995 8.95C9.04995 9.65 8.39995 10.95 7.04995 10.95C6.84995 10.95 6.64995 10.95 6.49995 10.9C6.29995 10.85 6.14995 10.8 5.99995 10.7L1.89995 14.8L1.19995 14.1L10.7 4.6L11.65 3.7L12.3 3L14.15 1.15L14.85 1.85L12.75 3.95C12.8 4.15 12.85 4.3 12.9 4.5ZM7.99995 9C7.99995 8.9 7.99995 8.85 7.94995 8.75L6.74995 10C6.79995 10 6.89995 10 6.99995 10C7.69995 10 7.99995 9.25 7.99995 9ZM7.99995 3C6.69995 3 5.49995 4.2 5.49995 5.5C5.49995 6.65 6.19995 7.3 6.84995 7.75L7.54995 7.05C6.94995 6.65 6.49995 6.25 6.49995 5.5C6.49995 4.75 7.24995 4 7.99995 4C8.89995 4 9.39995 4.4 9.64995 4.9L10.4 4.15C9.89995 3.4 9.04995 3 7.99995 3Z" fill="#101419"/>
</g>
<defs>
<clipPath id="clip0_9546_34898">
<rect width="16" height="16" fill="white"/>
</clipPath>
</defs>
</svg>
