<svg width="16" height="16" viewBox="0 0 16 16" fill="none" xmlns="http://www.w3.org/2000/svg">
<g clip-path="url(#clip0_11362_36879)">
<path d="M12.95 3.34999L8.45 1.09999C8.15 0.949988 7.85 0.949988 7.55 1.09999L3.05 3.34999C2.7 3.54999 2.5 3.84999 2.5 4.24999V7.94999C2.5 10.05 3.55 12.05 5.25 13.3L7.55 14.9C7.7 15 7.85 15.05 8 15.05C8.15 15.05 8.3 15 8.45 14.9L10.75 13.3C12.5 12.1 13.5 10.1 13.5 7.94999V4.24999C13.5 3.84999 13.3 3.54999 12.95 3.34999ZM12.5 7.94999C12.5 9.74999 11.6 11.45 10.15 12.45L8 13.95L5.85 12.45C4.4 11.4 3.5 9.74999 3.5 7.94999V4.24999L8 1.99999L12.5 4.24999V7.94999Z" fill="#101419"/>
<path d="M7.4 5.5V7.4H5.5V8.65H7.4V10.5H8.6V8.65H10.5V7.4H8.6V5.5H7.4Z" fill="#101419"/>
</g>
<defs>
<clipPath id="clip0_11362_36879">
<rect width="16" height="16" fill="white"/>
</clipPath>
</defs>
</svg>
