<svg width="16" height="16" viewBox="0 0 16 16" fill="none" xmlns="http://www.w3.org/2000/svg">
<g clip-path="url(#clip0_11362_36883)">
<path d="M8.1 4.04999L8.6 5.04999C8.6 5.09999 8.65 5.09999 8.7 5.09999L9.8 5.24999C9.9 5.24999 9.9 5.34999 9.85 5.44999L9 6.19999C9 6.19999 8.95 6.24999 8.95 6.29999L9.15 7.39999C9.15 7.49999 9.1 7.54999 9 7.49999L8.05 6.99999C8 6.99999 8 6.99999 7.95 6.99999L7 7.49999C6.9 7.54999 6.85 7.49999 6.85 7.39999L7.05 6.29999C7.05 6.24999 7.05 6.24999 7 6.19999L6.2 5.44999C6.15 5.39999 6.15 5.29999 6.25 5.24999L7.35 5.09999C7.4 5.09999 7.4 5.04999 7.45 5.04999L7.95 4.04999C7.95 3.99999 8.05 3.99999 8.1 4.04999ZM5.5 7.99999V8.99999L8 10.05L10.5 8.99999V7.99999L8 8.94999L5.5 7.99999ZM5.5 9.99999V11L8 12.05L10.5 11V9.99999L8 10.95L5.5 9.99999ZM13.5 4.24999V7.94999C13.5 10.05 12.45 12.05 10.75 13.3L8.45 14.9C8.3 14.95 8.15 15 8 15C7.85 15 7.7 14.95 7.55 14.85L5.25 13.25C3.55 12.05 2.5 10.05 2.5 7.94999V4.24999C2.5 3.84999 2.7 3.54999 3.05 3.34999L7.55 1.09999C7.85 0.949988 8.15 0.949988 8.45 1.09999L12.95 3.34999C13.3 3.54999 13.5 3.84999 13.5 4.24999ZM12.5 4.24999L8 1.99999L3.5 4.24999V7.94999C3.5 9.74999 4.4 11.45 5.85 12.45L8 13.95L10.15 12.45C11.6 11.4 12.5 9.74999 12.5 7.94999V4.24999Z" fill="#101419"/>
</g>
<defs>
<clipPath id="clip0_11362_36883">
<rect width="16" height="16" fill="white"/>
</clipPath>
</defs>
</svg>
