<?xml version="1.0" encoding="utf-8"?>
<!-- Generator: Adobe Illustrator 25.4.1, SVG Export Plug-In . SVG Version: 6.00 Build 0)  -->
<svg version="1.1" id="Layer_1" xmlns="http://www.w3.org/2000/svg" xmlns:xlink="http://www.w3.org/1999/xlink" x="0px" y="0px"
	 width="32px" height="32px" viewBox="0 0 32 32" style="enable-background:new 0 0 32 32;" xml:space="preserve">
<style type="text/css">
	.st0{fill:#FFFFFF;}
	.st1{fill:none;stroke:#999999;stroke-width:2.000000e-02;stroke-miterlimit:10;}
	.st2{fill:none;stroke:#FF00FF;stroke-width:4.000000e-02;stroke-miterlimit:10;}
	.st3{fill:none;stroke:#FF00FF;stroke-width:0.1;stroke-miterlimit:10;}
	.st4{opacity:0.3;fill:none;stroke:#000000;stroke-width:2;stroke-miterlimit:10;}
	.st5{opacity:0.3;}
	.st6{fill:#ED1C24;}
	.st7{fill:#39B54A;}
	.st8{fill:none;}
	.st9{fill:none;stroke:#FFFFFF;stroke-miterlimit:10;}
</style>
<g>
	<path d="M23,21.6l-4.8-0.7l-1.7-3.4l5.4-2.7c0.7-0.3,1.1-1,1.1-1.8V2l-7,3.5L9,2v11c0,0.8,0.4,1.4,1.1,1.8l5.4,2.7l-1.7,3.4L9,21.6
		l3.4,3.5L11.6,30l4.4-2.3l4.4,2.3l-0.8-4.9L23,21.6z M16,7.7l5-2.5V8l-5,2.5L11,8V5.2L16,7.7z M11,10.2l5,2.5l5-2.5V13l-5,2.5
		L11,13V10.2z M16,26l-2.4,1.3l0.5-2.7l-1.9-1.9l2.7-0.4l1.2-2.4l1.2,2.4l2.7,0.4l-1.9,1.9l0.5,2.7L16,26z"/>
	<rect y="0" class="st8" width="32" height="32"/>
</g>
</svg>
