<?xml version="1.0" encoding="utf-8"?>
<!-- Generator: Adobe Illustrator 25.4.1, SVG Export Plug-In . SVG Version: 6.00 Build 0)  -->
<svg version="1.1" id="Layer_1" xmlns="http://www.w3.org/2000/svg" xmlns:xlink="http://www.w3.org/1999/xlink" x="0px" y="0px"
	 width="32px" height="32px" viewBox="0 0 32 32" style="enable-background:new 0 0 32 32;" xml:space="preserve">
<style type="text/css">
	.st0{fill:#FFFFFF;}
	.st1{fill:none;stroke:#999999;stroke-width:2.000000e-02;stroke-miterlimit:10;}
	.st2{fill:none;stroke:#FF00FF;stroke-width:4.000000e-02;stroke-miterlimit:10;}
	.st3{fill:none;stroke:#FF00FF;stroke-width:0.1;stroke-miterlimit:10;}
	.st4{opacity:0.3;fill:none;stroke:#000000;stroke-width:2;stroke-miterlimit:10;}
	.st5{opacity:0.3;}
	.st6{fill:#ED1C24;}
	.st7{fill:#39B54A;}
	.st8{fill:none;}
	.st9{fill:none;stroke:#FFFFFF;stroke-miterlimit:10;}
</style>
<g>
	<rect x="0" class="st8" width="32" height="32"/>
	<path d="M28,8H4c-1.1,0-2,0.9-2,2v12c0,1.1,0.9,2,2,2h24c1.1,0,2-0.9,2-2V10C30,8.9,29.1,8,28,8z M21.8,22v-2.2h-1.5V22H4V10h16.2
		v2.2h1.5V10H28l0,12H21.8z M23,12.2h4v1.5h-4V12.2z M23,15.2h4v1.5h-4V15.2z M23,18.2h4v1.5h-4V18.2z M20.2,13.8h1.5v1.5h-1.5V13.8
		z M20.2,16.8h1.5v1.5h-1.5V16.8z M16.1,15.3L14.3,17c-0.1,0.1-0.1,0.1-0.1,0.2l0.4,2.5c0,0.2-0.2,0.3-0.3,0.2l-2.2-1.2
		c-0.1,0-0.1,0-0.2,0L9.7,20c-0.2,0.1-0.4-0.1-0.3-0.2l0.4-2.5c0-0.1,0-0.2-0.1-0.2l-1.8-1.8c-0.1-0.1-0.1-0.4,0.1-0.4l2.5-0.4
		c0.1,0,0.1-0.1,0.2-0.1l1.1-2.3c0.1-0.2,0.3-0.2,0.4,0l1.1,2.3c0,0.1,0.1,0.1,0.2,0.1l2.5,0.4C16.2,14.9,16.3,15.1,16.1,15.3z"/>
</g>
</svg>
