<?xml version="1.0" encoding="utf-8"?>
<!-- Generator: Adobe Illustrator 25.4.1, SVG Export Plug-In . SVG Version: 6.00 Build 0)  -->
<svg version="1.1" id="Layer_1" xmlns="http://www.w3.org/2000/svg" xmlns:xlink="http://www.w3.org/1999/xlink" x="0px" y="0px"
	 width="32px" height="32px" viewBox="0 0 32 32" style="enable-background:new 0 0 32 32;" xml:space="preserve">
<style type="text/css">
	.st0{fill:#FFFFFF;}
	.st1{fill:none;stroke:#999999;stroke-width:2.000000e-02;stroke-miterlimit:10;}
	.st2{fill:none;stroke:#FF00FF;stroke-width:4.000000e-02;stroke-miterlimit:10;}
	.st3{fill:none;stroke:#FF00FF;stroke-width:0.1;stroke-miterlimit:10;}
	.st4{opacity:0.3;fill:none;stroke:#000000;stroke-width:2;stroke-miterlimit:10;}
	.st5{opacity:0.3;}
	.st6{fill:#ED1C24;}
	.st7{fill:#39B54A;}
	.st8{fill:none;}
	.st9{fill:none;stroke:#FFFFFF;stroke-miterlimit:10;}
</style>
<g>
	<path d="M23,22.1V28h3v2h-3c-1.1,0-2-0.9-2-2v-3c-1.3,1.3-3,2-5,2c-2,0-3.7-0.7-5-2v3c0,1.1-0.9,2-2,2H6v-2h3v-5.9
		c-0.3-0.7-0.6-1.5-0.8-2.4l-1-0.5c-0.7-0.3-1.1-1-1.1-1.8V14c0-0.1,0-0.2,0-0.3l2,0.9v2.8l1.9,0.9l0.1,0.5C11,23,13,25,16,25
		c3,0,5-2,6-6.3l0.1-0.5l1.9-0.9v-2.8l2-0.9c0,0.1,0,0.2,0,0.3v3.4c0,0.8-0.4,1.5-1.1,1.8l-1,0.5C23.6,20.6,23.3,21.4,23,22.1z
		 M27,9.5v1.4c0,0.8-0.5,1.5-1.2,1.8l-7,3.1C18,16.2,17,16.4,16,16.4s-2-0.2-2.8-0.6l-7-3.1c-0.7-0.3-1.2-1-1.2-1.8V9.5
		c0-2,1.2-3.8,3-4.6l5.2-2.3c1.8-0.8,3.9-0.8,5.7,0L24,4.9C25.8,5.7,27,7.5,27,9.5z M25,9.5c0-1.2-0.7-2.3-1.8-2.7L18,4.4
		c-1.3-0.6-2.8-0.6-4.1,0L8.8,6.7C7.7,7.2,7,8.3,7,9.5v1.4L9.5,12h13l2.5-1.1V9.5z"/>
	<rect class="st8" width="32" height="32"/>
</g>
</svg>
