<?xml version="1.0" encoding="utf-8"?>
<!-- Generator: Adobe Illustrator 25.4.1, SVG Export Plug-In . SVG Version: 6.00 Build 0)  -->
<svg version="1.1" id="Layer_1" xmlns="http://www.w3.org/2000/svg" xmlns:xlink="http://www.w3.org/1999/xlink" x="0px" y="0px"
	 width="32px" height="32px" viewBox="0 0 32 32" style="enable-background:new 0 0 32 32;" xml:space="preserve">
<style type="text/css">
	.st0{fill:#FFFFFF;}
	.st1{fill:none;stroke:#999999;stroke-width:2.000000e-02;stroke-miterlimit:10;}
	.st2{fill:none;stroke:#FF00FF;stroke-width:4.000000e-02;stroke-miterlimit:10;}
	.st3{fill:none;stroke:#FF00FF;stroke-width:0.1;stroke-miterlimit:10;}
	.st4{opacity:0.3;fill:none;stroke:#000000;stroke-width:2;stroke-miterlimit:10;}
	.st5{opacity:0.3;}
	.st6{fill:#ED1C24;}
	.st7{fill:#39B54A;}
	.st8{fill:none;}
	.st9{fill:none;stroke:#FFFFFF;stroke-miterlimit:10;}
</style>
<g>
	<path d="M24,13c0-4.4-3.6-8-8-8s-8,3.6-8,8c-1.1,0-2,0.9-2,2v2.4c0,0.8,0.4,1.4,1.1,1.8l1,0.5c0.6,1.9,1.6,3.5,2.8,4.8
		c-0.6,1.1-1,2.3-1,3.5H7v2h3c1.1,0,2-0.9,2-2c0-0.7,0.2-1.4,0.5-2.1l2.7,2.6c0.9,0.9,2.2,1.4,3.5,1.4H25v-2h-6.4
		c-0.8,0-1.5-0.3-2.1-0.9L16.4,27c1-0.1,2-0.5,3.1-1.2c0.2,0.4,0.3,0.8,0.4,1.2h2c-0.1-0.9-0.4-1.8-0.9-2.5c1.2-1.2,2.3-2.9,2.8-4.8
		l1-0.5c0.7-0.3,1.1-1,1.1-1.8V15C26,13.9,25.1,13,24,13z M22,13h-2c-3.2,0-5.8-2.5-6-5.7C14.6,7.1,15.3,7,16,7C19.3,7,22,9.7,22,13
		z M12.1,8.4c0.1,0.7,0.4,1.4,0.7,2.1c-0.5,1-1.2,1.9-2.1,2.5H10C10,11.2,10.8,9.5,12.1,8.4z M24,17.4l-1.9,0.9L22,18.8
		c-0.9,3.5-4,6.2-6,6.2c-1,0-2.2-0.6-3.3-1.7l0,0l0,0c-1.2-1.1-2.2-2.7-2.7-4.5l-0.1-0.4L8,17.4V15h2.7c0.4,0,0.8-0.1,1.1-0.3
		c0.9-0.6,1.7-1.4,2.3-2.3C15.5,14,17.7,15,20,15h4V17.4z M13.3,4.4l-0.6-1.9c2.1-0.7,4.5-0.7,6.6,0l-0.6,1.9
		C17,3.9,15,3.9,13.3,4.4z"/>
	<rect class="st8" width="32" height="32"/>
</g>
</svg>
