<?xml version="1.0" encoding="utf-8"?>
<!-- Generator: Adobe Illustrator 25.4.1, SVG Export Plug-In . SVG Version: 6.00 Build 0)  -->
<svg version="1.1" id="Layer_1" xmlns="http://www.w3.org/2000/svg" xmlns:xlink="http://www.w3.org/1999/xlink" x="0px" y="0px"
	 width="32px" height="32px" viewBox="0 0 32 32" style="enable-background:new 0 0 32 32;" xml:space="preserve">
<style type="text/css">
	.st0{fill:#FFFFFF;}
	.st1{fill:none;stroke:#999999;stroke-width:2.000000e-02;stroke-miterlimit:10;}
	.st2{fill:none;stroke:#FF00FF;stroke-width:4.000000e-02;stroke-miterlimit:10;}
	.st3{fill:none;stroke:#FF00FF;stroke-width:0.1;stroke-miterlimit:10;}
	.st4{opacity:0.3;fill:none;stroke:#000000;stroke-width:2;stroke-miterlimit:10;}
	.st5{opacity:0.3;}
	.st6{fill:#ED1C24;}
	.st7{fill:#39B54A;}
	.st8{fill:none;}
</style>
<g>
	<path d="M20.7,7c0.4,0,0.7,0.3,0.7,0.8c0,0.4-0.3,0.8-0.7,0.8c-0.4,0-0.7-0.3-0.7-0.8C20,7.3,20.3,7,20.7,7z M10,6C9.4,6,9,6.4,9,7
		s0.4,1,1,1c0.6,0,1-0.4,1-1S10.6,6,10,6z M26,24c0-0.6,0.1-1.1,0.3-1.6l-1.8-0.8C24.2,22.4,24,23.2,24,24c0,1.5,0.6,2.9,1.5,4H23v2
		h7v-2h0C27.8,28,26,26.2,26,24z M26.9,11.7c-0.1-0.2-0.1-0.5-0.1-0.8c0-0.6,0.2-1.2,0.5-1.8C28,8.2,28,7.3,28,7
		c0-2.4-2.1-4.2-2.3-4.4L25,2l-2.2,1.9l-1-0.3c-1.3-0.4-2.7,0.1-3.4,1.2l-1,1.4l-0.8,0.2c-0.9,0.3-1.5,1.2-1.4,2.2l0.2,1.4
		c0.2,1.1,1,2,2,2.4l2.4,0.8L18.2,17c-0.5,1.3-0.5,2.8,0,4.1l0.7,1.8c0.1,0.2,0.1,0.5,0.1,0.7V28h-1v2h3v-6.4c0-0.5-0.1-1-0.3-1.4
		l-0.7-1.8c-0.3-0.9-0.3-1.8,0-2.7l1.5-3.8c0.2-0.5,0.2-1.1,0-1.6c-0.2-0.5-0.7-0.9-1.2-1.1l-2.4-0.8c-0.4-0.1-0.6-0.4-0.7-0.8
		l-0.1-0.9c0-0.2,0.1-0.5,0.4-0.5L18.3,8c0.2-0.1,0.4-0.2,0.6-0.4L20,5.8c0.2-0.4,0.7-0.5,1.1-0.4l2.1,0.7l1.7-1.6
		C25.4,5.2,26,6.1,26,7c0,0.1,0,0.6-0.3,1c-0.8,1.2-1.1,3-0.6,4.3c0,0,1.2,3.7,4.9,3.7v-2C27.8,14,27,11.8,26.9,11.7z M15,24
		c0-0.6,0.1-1.1,0.3-1.6l0.3-0.7l-1.8-0.8l-0.3,0.7C13.2,22.4,13,23.2,13,24c0,1.5,0.6,2.9,1.5,4H12v2h5v-2.6
		C15.8,26.7,15,25.5,15,24z M8.6,11H7c-1.4,0-2.5-0.5-2.6-1.1L4.1,8.6C4.1,8.3,4.3,8,4.6,8H7c0.4,0,0.8-0.3,0.9-0.6l1-2.7
		C9.1,4.3,9.5,4,9.9,4h3.4C14,4,14.6,4.4,15,5l0.5,0.8c0.2-0.2,0.5-0.3,0.8-0.4l0.5-0.1l0.4-0.6L16.7,4c-0.7-1.2-2-2-3.5-2H9.9
		C8.6,2,7.5,2.8,7.1,3.9L6.3,6H4C3.4,6,2.8,6.3,2.5,6.7C2.1,7.2,1.9,7.8,2,8.4l0.4,1.9C2.8,12,4.5,13,7,13h1.6l-1.4,4
		c-0.5,1.3-0.5,2.8,0,4.1l0.7,1.8C8,23.1,8,23.3,8,23.5V28H6v2h4v-6.5c0-0.5-0.1-1-0.3-1.4l-0.7-1.8c-0.3-0.9-0.3-1.8,0-2.7l1.4-4
		c0.2-0.6,0.1-1.3-0.3-1.8C9.8,11.3,9.2,11,8.6,11z M17.1,13.3l-0.1,0c-0.8-0.3-1.5-0.8-2-1.5V12c0,0.8,0,3.1,2.1,5.2
		c0.1-0.2,0.1-0.4,0.1-0.6l0.6-1.6C17.4,14.4,17.2,13.8,17.1,13.3z"/>
	<rect class="st8" width="32" height="32"/>
</g>
</svg>
