<svg width="16" height="16" viewBox="0 0 16 16" fill="none" xmlns="http://www.w3.org/2000/svg">
<g clip-path="url(#clip0_6920_32649)">
<path d="M5.50005 3.5C5.50005 3.8 5.30005 4 5.00005 4C4.70005 4 4.50005 3.8 4.50005 3.5C4.50005 3.2 4.70005 3 5.00005 3C5.30005 3 5.50005 3.2 5.50005 3.5ZM4.30005 5.5H3.50005C2.80005 5.5 2.25005 5.25 2.20005 4.95L2.05005 4.3C2.05005 4.15 2.15005 4 2.30005 4H3.50005C3.70005 4 3.90005 3.85 3.95005 3.7L4.45005 2.35C4.55005 2.15 4.75005 2 4.95005 2H6.65005C7.00005 2 7.30005 2.2 7.50005 2.5L8.55005 4.35C8.60005 4.45 8.65005 4.6 8.60005 4.75C8.55005 4.9 8.45005 5 8.35005 5.05L7.70005 5.35L7.35005 4.75L6.50005 5.25L6.85005 5.85C7.10005 6.3 7.70005 6.5 8.15005 6.25L8.80005 5.95C9.15005 5.75 9.45005 5.45 9.55005 5.05C9.65005 4.65 9.60005 4.25 9.40005 3.85L8.35005 2C8.00005 1.4 7.35005 1 6.60005 1H4.95005C4.30005 1 3.75005 1.4 3.55005 1.95L3.15005 3H2.00005C1.70005 3 1.40005 3.15 1.25005 3.35C1.05005 3.6 0.950046 3.9 1.00005 4.2L1.20005 5.15C1.40005 6 2.25005 6.5 3.50005 6.5H4.30005L3.60005 8.5C3.35005 9.15 3.35005 9.9 3.60005 10.55L3.95005 11.45C4.00005 11.55 4.00005 11.65 4.00005 11.75V14H3.00005V15H5.00005V11.75C5.00005 11.5 4.95005 11.25 4.85005 11.05L4.50005 10.15C4.35005 9.7 4.35005 9.25 4.50005 8.8L5.20005 6.8C5.30005 6.5 5.25005 6.15 5.05005 5.9C4.90005 5.65 4.60005 5.5 4.30005 5.5ZM13.7 14C14.35 11.3 12.45 9.6 11.25 9.05L10.25 8.55C9.05005 7.95 8.70005 7.15 8.55005 6.6L8.40005 6.7C8.20005 6.8 7.95005 6.85 7.75005 6.85C7.70005 6.85 7.70005 6.85 7.65005 6.85C7.90005 8 8.60005 8.85 9.85005 9.45L10.85 9.95C10.95 10 13.55 11.2 12.7 14H10C8.90005 14 8.00005 13.1 8.00005 12C8.00005 11.7 8.05005 11.45 8.15005 11.2L7.25005 10.8C7.10005 11.2 7.00005 11.6 7.00005 12C7.00005 12.75 7.30005 13.45 7.75005 14H6.00005V15H15V14H13.7Z" fill="#101419"/>
</g>
<defs>
<clipPath id="clip0_6920_32649">
<rect width="16" height="16" fill="white"/>
</clipPath>
</defs>
</svg>
