<svg width="16" height="16" viewBox="0 0 16 16" fill="none" xmlns="http://www.w3.org/2000/svg">
<g clip-path="url(#clip0_7472_34481)">
<path d="M4.34994 3.5C4.54994 3.5 4.74994 3.65 4.74994 3.9C4.74994 4.15 4.59994 4.25 4.34994 4.25C4.14994 4.25 3.99994 4.1 3.99994 3.9C3.99994 3.7 4.14994 3.5 4.34994 3.5ZM11.7499 14C12.2499 12.7 12.4999 11.85 12.4999 10.75C12.4999 7.8 10.1999 7 8.99994 7C7.89994 7 7.49994 5.9 7.44994 5.85C7.34994 5.5 7.34994 4.95 7.64994 4.55C7.99994 4.1 7.99994 3.55 7.99994 3.5C7.99994 2.3 6.94994 1.4 6.84994 1.3L6.49994 1L5.39994 1.95L5.24994 1.9C4.39994 1.6 3.44994 1.9 2.94994 2.65L2.69994 3.05L2.19994 3.2C1.74994 3.35 1.44994 3.8 1.49994 4.3L1.59994 5C1.69994 5.55 2.04994 6 2.59994 6.2L3.84994 6.6L3.09994 8.5C2.84994 9.15 2.84994 9.9 3.09994 10.55L3.44994 11.45C3.49994 11.55 3.49994 11.65 3.49994 11.75V14H2.99994V15H4.49994V11.75C4.49994 11.5 4.44994 11.25 4.34994 11.05L3.99994 10.15C3.84994 9.7 3.84994 9.25 3.99994 8.8L4.74994 6.9C4.84994 6.65 4.84994 6.35 4.74994 6.1C4.64994 5.85 4.39994 5.65 4.14994 5.55L2.89994 5.15C2.74994 5.15 2.59994 5 2.59994 4.85L2.49994 4.3C2.49994 4.2 2.54994 4.1 2.64994 4.1L3.14994 4C3.24994 3.95 3.34994 3.9 3.44994 3.8L3.79994 3.25C4.04994 2.85 4.49994 2.7 4.89994 2.85L5.59994 3.1L6.44994 2.4C6.69994 2.7 6.99994 3.05 6.99994 3.5C6.99994 3.55 6.99994 3.8 6.84994 4C6.44994 4.6 6.29994 5.5 6.54994 6.15C6.59994 6.25 7.19994 8 8.99994 8C9.09994 8 11.4999 8.05 11.4999 10.75C11.4999 11.85 11.2499 12.7 10.6499 14H8.99994C7.89994 14 6.99994 13.1 6.99994 12C6.99994 11.7 7.04994 11.45 7.14994 11.2L6.24994 10.8C6.09994 11.2 5.99994 11.6 5.99994 12C5.99994 12.75 6.29994 13.45 6.74994 14H5.49994V15H14.9999V14H11.7499Z" fill="#101419"/>
</g>
<defs>
<clipPath id="clip0_7472_34481">
<rect width="16" height="16" fill="white"/>
</clipPath>
</defs>
</svg>
