<svg width="16" height="16" viewBox="0 0 16 16" fill="none" xmlns="http://www.w3.org/2000/svg">
<g clip-path="url(#clip0_11362_36871)">
<path d="M8 3.99999C8.85 3.99999 9.5 4.64999 9.5 5.49999C9.5 6.34999 8.85 6.99999 8 6.99999C7.15 6.99999 6.5 6.34999 6.5 5.49999C6.5 4.69999 7.15 3.99999 8 3.99999ZM6.5 7.49999C6.05 7.49999 5.6 7.84999 5.5 8.29999C5.2 9.89999 6.45 11.25 7.95 11.25C9.45 11.25 10.65 9.89999 10.4 8.34999C10.3 7.84999 9.85 7.49999 9.35 7.49999H6.5ZM13.5 4.24999V7.94999C13.5 10.05 12.45 12.05 10.75 13.3L8.45 14.9C8.3 14.95 8.15 15 8 15C7.85 15 7.7 14.95 7.55 14.85L5.25 13.25C3.55 12.05 2.5 10.05 2.5 7.94999V4.24999C2.5 3.84999 2.7 3.54999 3.05 3.34999L7.55 1.09999C7.85 0.949988 8.15 0.949988 8.45 1.09999L12.95 3.34999C13.3 3.54999 13.5 3.84999 13.5 4.24999ZM12.5 4.24999L8 1.99999L3.5 4.24999V7.94999C3.5 9.74999 4.4 11.45 5.85 12.45L8 13.95L10.15 12.45C11.6 11.4 12.5 9.74999 12.5 7.94999V4.24999Z" fill="#101419"/>
</g>
<defs>
<clipPath id="clip0_11362_36871">
<rect width="16" height="16" fill="white"/>
</clipPath>
</defs>
</svg>
