<?xml version="1.0" encoding="utf-8"?>
<!-- Generator: Adobe Illustrator 25.4.1, SVG Export Plug-In . SVG Version: 6.00 Build 0)  -->
<svg version="1.1" id="Layer_1" xmlns="http://www.w3.org/2000/svg" xmlns:xlink="http://www.w3.org/1999/xlink" x="0px" y="0px"
	 width="32px" height="32px" viewBox="0 0 32 32" style="enable-background:new 0 0 32 32;" xml:space="preserve">
<style type="text/css">
	.st0{fill:#FFFFFF;}
	.st1{fill:none;stroke:#999999;stroke-width:2.000000e-02;stroke-miterlimit:10;}
	.st2{fill:none;stroke:#FF00FF;stroke-width:4.000000e-02;stroke-miterlimit:10;}
	.st3{fill:none;stroke:#FF00FF;stroke-width:0.1;stroke-miterlimit:10;}
	.st4{opacity:0.3;fill:none;stroke:#000000;stroke-width:2;stroke-miterlimit:10;}
	.st5{opacity:0.3;}
	.st6{fill:#ED1C24;}
	.st7{fill:#39B54A;}
	.st8{fill:none;}
	.st9{fill:none;stroke:#FFFFFF;stroke-miterlimit:10;}
</style>
<g>
	<rect y="0" class="st8" width="32" height="32"/>
	<path d="M13,9c1.7,0,3-1.3,3-3s-1.3-3-3-3s-3,1.3-3,3S11.3,9,13,9z M13,5c0.6,0,1,0.4,1,1s-0.4,1-1,1s-1-0.4-1-1S12.4,5,13,5z
		 M22.3,27.4c0.2,0.6,0.1,1.2-0.3,1.8S21,30,20.3,30H11v-2h9.4l-1.1-4h-6.5c-0.9,0-1.7-0.6-1.9-1.5L5,2h0.6c0.9,0,1.7,0.6,1.9,1.5
		L12.7,22h8L22.3,27.4z M27,30h-2.1l-2.9-10h-8l-2.1-7.5c-0.2-0.6-0.1-1.2,0.3-1.8c0.4-0.5,1-0.8,1.6-0.8c2,0,3.8,1.4,4.4,3.3
		l1.1,3.7h-2.1l-0.9-3.2C16,12.7,15,12,13.9,12l1.7,6h6.5c0.9,0,1.7,0.6,1.9,1.5L27,30z"/>
	<rect y="0" class="st8" width="32" height="32"/>
</g>
</svg>
