<svg width="16" height="16" viewBox="0 0 16 16" fill="none" xmlns="http://www.w3.org/2000/svg">
<g clip-path="url(#clip0_7472_34757)">
<path d="M11.15 13.75C11.25 14.05 11.2 14.35 11 14.65C10.8 14.95 10.5 15 10.15 15H5.5V14H10.2L9.65 12H6.4C5.95 12 5.55 11.7 5.45 11.25L2.5 1H2.8C3.25 1 3.65 1.3 3.75 1.75L6.35 11H10.35L11.15 13.75ZM12 9.75C11.9 9.3 11.5 9 11.05 9H7.8L6.95 6C7.5 6 8 6.4 8.15 6.9L8.6 8.5H9.65L9.1 6.65C8.8 5.7 7.9 5 6.9 5C6.6 5 6.3 5.15 6.1 5.4C5.9 5.65 5.85 5.95 5.95 6.3L7 10.05H11L12.45 15.05H13.5L12 9.75ZM5.05 3.45C4.95 3.05 5 2.65 5.2 2.3C5.4 1.95 5.7 1.7 6.1 1.6C6.45 1.5 6.9 1.55 7.25 1.75C7.6 1.95 7.85 2.25 8 2.65C8.2 3.5 7.8 4.2 7.5 4.55C7.35 4.5 7.15 4.5 7 4.5C6.7 4.5 6.45 4.6 6.2 4.75C5.75 4.55 5.25 4.15 5.05 3.45ZM6 3.15C6.1 3.6 6.45 3.8 6.75 3.9C6.9 3.65 7.1 3.3 6.95 2.85C6.9 2.7 6.8 2.6 6.7 2.55C6.65 2.5 6.55 2.5 6.45 2.5C6.4 2.5 6.35 2.5 6.3 2.5C6.2 2.55 6.05 2.6 6 2.75C6 2.9 5.95 3 6 3.15Z" fill="#101419"/>
</g>
<defs>
<clipPath id="clip0_7472_34757">
<rect width="16" height="16" fill="white"/>
</clipPath>
</defs>
</svg>
