<?xml version="1.0" encoding="utf-8"?>
<!-- Generator: Adobe Illustrator 25.4.1, SVG Export Plug-In . SVG Version: 6.00 Build 0)  -->
<svg version="1.1" id="Layer_1" xmlns="http://www.w3.org/2000/svg" xmlns:xlink="http://www.w3.org/1999/xlink" x="0px" y="0px"
	 width="32px" height="32px" viewBox="0 0 32 32" style="enable-background:new 0 0 32 32;" xml:space="preserve">
<style type="text/css">
	.st0{fill:#FFFFFF;}
	.st1{fill:none;stroke:#999999;stroke-width:2.000000e-02;stroke-miterlimit:10;}
	.st2{fill:none;stroke:#FF00FF;stroke-width:4.000000e-02;stroke-miterlimit:10;}
	.st3{fill:none;stroke:#FF00FF;stroke-width:0.1;stroke-miterlimit:10;}
	.st4{opacity:0.3;fill:none;stroke:#000000;stroke-width:2;stroke-miterlimit:10;}
	.st5{opacity:0.3;}
	.st6{fill:#ED1C24;}
	.st7{fill:#39B54A;}
	.st8{fill:none;}
	.st9{fill:none;stroke:#FFFFFF;stroke-miterlimit:10;}
</style>
<g>
	<rect y="0" class="st8" width="32" height="32"/>
	<path d="M23.3,27.4c0.2,0.6,0.1,1.2-0.3,1.8S22,30,21.3,30H12v-2h9.4l-1.1-4h-6.5c-0.9,0-1.7-0.6-1.9-1.5L6,2h0.6
		c0.9,0,1.7,0.6,1.9,1.5L13.7,22h8L23.3,27.4z M17.1,20l-2.7-9.4C14.2,9.6,13.1,9,12,9.3L15.1,20H17.1z M25,19.4
		c-0.2-0.9-1-1.5-1.9-1.5h-3.4l-0.6-2.2l4.1-0.8l-0.4-2l-4.6,0.9c-0.4,0.1-0.8,0.3-1,0.7c-0.2,0.4-0.3,0.8-0.2,1.2l1.2,4.2l4.9,0
		l1.2,4.3l1.9-0.5L25,19.4z M18,13c1.1,0,2-0.9,2-2s-0.9-2-2-2s-2,0.9-2,2S16.9,13,18,13z"/>
</g>
</svg>
