<svg width="16" height="16" viewBox="0 0 16 16" fill="none" xmlns="http://www.w3.org/2000/svg">
<g clip-path="url(#clip0_6920_32653)">
<path d="M4.99997 3C5.29997 3 5.49997 3.2 5.49997 3.5C5.49997 3.8 5.29997 4 4.99997 4C4.69997 4 4.49997 3.8 4.49997 3.5C4.49997 3.2 4.69997 3 4.99997 3ZM8.34997 5.05L7.69997 5.35L7.34997 4.75L6.49997 5.25L6.84997 5.85C7.09997 6.3 7.69997 6.5 8.14997 6.25L8.83232 5.914C8.68232 5.614 8.59997 5.3 8.54997 4.9C8.5 5 8.34997 5.05 8.34997 5.05ZM13.65 14H15V15H5.99997V14H7.74997C7.24997 13.45 6.99997 12.75 6.99997 12C6.99997 11.65 7.04997 11.25 7.19997 10.95L4.44997 9.75C4.44997 9.9 4.49997 10.05 4.54997 10.2L4.89997 11.1C4.99997 11.35 5.04997 11.55 5.04997 11.8V15H2.99997V14H3.99997V11.75C3.99997 11.65 3.99997 11.5 3.94997 11.4L3.59997 10.5C3.34997 9.85 3.34997 9.15 3.59997 8.45L4.29997 6.45H3.49997C2.24997 6.45 1.39997 5.95 1.19997 5.1L0.999968 4.2C0.949968 3.9 0.999968 3.6 1.19997 3.35C1.39997 3.15 1.69997 3 1.99997 3H3.14997L3.54997 1.95C3.74997 1.4 4.29997 1 4.94997 1H6.64997C7.34997 1 8.04997 1.4 8.39997 2L8.59997 2.35C8.54997 2.5 8.49997 2.65 8.49997 2.8V4.25L7.49997 2.5C7.29997 2.2 6.99997 2 6.64997 2H4.94997C4.74997 2 4.54997 2.15 4.44997 2.3L3.94997 3.65C3.89997 3.85 3.69997 4 3.49997 4H2.29997C2.14997 4 2.04997 4.15 2.04997 4.3L2.19997 4.95C2.24997 5.25 2.79997 5.5 3.49997 5.5H4.29997C4.59997 5.5 4.94997 5.65 5.09997 5.9C5.29997 6.15 5.34997 6.5 5.24997 6.8L4.59997 8.65L7.64997 10L8.39997 8.35C7.99997 7.9 7.74997 7.4 7.64997 6.8C7.69997 6.8 7.69997 6.8 7.74997 6.8C7.99997 6.8 8.19997 6.75 8.39997 6.65L8.54997 6.55C8.64997 7.1 8.99997 7.9 10.25 8.5L11.25 9C12.4 9.6 14.35 11.3 13.65 14ZM10.8 9.95L9.79997 9.45C9.54997 9.35 9.34997 9.2 9.14997 9.05L8.14997 11.2C8.04997 11.45 7.99997 11.7 7.99997 12C7.99997 13.1 8.89997 14 9.99997 14H12.65C13.45 11.25 10.9 10 10.8 9.95ZM15 2.8V4.5C15 5.7 14.45 6.25 13.5 7L12.4 7.85C12.25 7.95 12.15 8 12 8C11.85 8 11.75 7.95 11.6 7.85L10.5 7C9.54997 6.25 8.99997 5.7 8.99997 4.5V2.8C8.99997 2.45 9.19997 2.2 9.49997 2.1L11.75 1.05C11.9 1 12.1 1 12.25 1.05L14.5 2.05C14.8 2.2 15 2.45 15 2.8ZM13.5 4H12.5V3H11.5V4H10.5V5H11.5V6H12.5V5H13.5V4Z" fill="#101419"/>
</g>
<defs>
<clipPath id="clip0_6920_32653">
<rect width="16" height="16" fill="white"/>
</clipPath>
</defs>
</svg>
