<svg width="16" height="16" viewBox="0 0 16 16" fill="none" xmlns="http://www.w3.org/2000/svg">
<g clip-path="url(#clip0_7697_34399)">
<path d="M14.2 4.35C14 4.15 13.7 4 13.4 4H3.35L3.1 2.75C2.95 2.3 2.55 2 2.1 2H1V3H2.1L3.9 10.75C4 11.2 4.4 11.5 4.85 11.5H13.5V10.5H4.9L4.65 9.45L13.15 8.55C13.6 8.5 13.95 8.15 14.05 7.7L14.4 5.15C14.45 4.85 14.35 4.55 14.2 4.35ZM13.05 7.55L4.4 8.45L3.6 5H13.4L13.05 7.55ZM5.7 12.3C6.1 12.7 6.1 13.3 5.7 13.7C5.3 14.1 4.7 14.1 4.3 13.7C3.9 13.3 3.9 12.7 4.3 12.3C4.7 11.9 5.3 11.9 5.7 12.3ZM13.2 12.3C13.6 12.7 13.6 13.3 13.2 13.7C12.8 14.1 12.2 14.1 11.8 13.7C11.4 13.3 11.4 12.7 11.8 12.3C12.2 11.9 12.8 11.9 13.2 12.3Z" fill="#101419"/>
</g>
<defs>
<clipPath id="clip0_7697_34399">
<rect width="16" height="16" fill="white"/>
</clipPath>
</defs>
</svg>
