<?xml version="1.0" encoding="utf-8"?>
<!-- Generator: Adobe Illustrator 25.4.1, SVG Export Plug-In . SVG Version: 6.00 Build 0)  -->
<svg version="1.1" id="Layer_1" xmlns="http://www.w3.org/2000/svg" xmlns:xlink="http://www.w3.org/1999/xlink" x="0px" y="0px"
	 width="32px" height="32px" viewBox="0 0 32 32" style="enable-background:new 0 0 32 32;" xml:space="preserve">
<style type="text/css">
	.st0{fill:#FFFFFF;}
	.st1{fill:none;stroke:#999999;stroke-width:2.000000e-02;stroke-miterlimit:10;}
	.st2{fill:none;stroke:#FF00FF;stroke-width:4.000000e-02;stroke-miterlimit:10;}
	.st3{fill:none;stroke:#FF00FF;stroke-width:0.1;stroke-miterlimit:10;}
	.st4{opacity:0.3;fill:none;stroke:#000000;stroke-width:2;stroke-miterlimit:10;}
	.st5{opacity:0.3;}
	.st6{fill:#ED1C24;}
	.st7{fill:#39B54A;}
	.st8{fill:none;}
	.st9{fill:none;stroke:#FFFFFF;stroke-miterlimit:10;}
</style>
<g>
	<path d="M4,30H2v-5.4L24.6,2H30v2h-4.6L4,25.4V30z M11,27h4v-4h4v-4h4v-4h4v-4h3V9h-5v4h-4v4h-4v4h-4v4H9v5h2V27z M7,5
		c0-1.7,1.3-3,3-3s3,1.3,3,3s-1.3,3-3,3S7,6.7,7,5z M9,5c0,0.6,0.4,1,1,1s1-0.4,1-1s-0.4-1-1-1S9,4.4,9,5z M9,11c1.1,0,2,0.9,2,2
		v0.9l1.9-1.9C12.5,10.3,10.9,9,9,9c-1.1,0-2,0.9-2,2v7l2-2V11z"/>
	<rect class="st8" width="32" height="32"/>
</g>
</svg>
