<?xml version="1.0" encoding="utf-8"?>
<!-- Generator: Adobe Illustrator 25.4.1, SVG Export Plug-In . SVG Version: 6.00 Build 0)  -->
<svg version="1.1" id="Layer_1" xmlns="http://www.w3.org/2000/svg" xmlns:xlink="http://www.w3.org/1999/xlink" x="0px" y="0px"
	 width="32px" height="32px" viewBox="0 0 32 32" style="enable-background:new 0 0 32 32;" xml:space="preserve">
<style type="text/css">
	.st0{fill:#FFFFFF;}
	.st1{fill:none;stroke:#999999;stroke-width:2.000000e-02;stroke-miterlimit:10;}
	.st2{fill:none;stroke:#FF00FF;stroke-width:4.000000e-02;stroke-miterlimit:10;}
	.st3{fill:none;stroke:#FF00FF;stroke-width:0.1;stroke-miterlimit:10;}
	.st4{opacity:0.3;fill:none;stroke:#000000;stroke-width:2;stroke-miterlimit:10;}
	.st5{opacity:0.3;}
	.st6{fill:#ED1C24;}
	.st7{fill:#39B54A;}
	.st8{fill:none;}
	.st9{fill:none;stroke:#FFFFFF;stroke-miterlimit:10;}
</style>
<g>
	<rect y="0" class="st8" width="32" height="32"/>
	<path d="M8,16H6V2h2V16z M28,4v4c0,1.1-0.9,2-2,2h-2.4l-1-1H10.4l1.1-2.1C12.6,4.5,15,3,17.7,3h4.9l1-1H26C27.1,2,28,2.9,28,4z
		 M26,8l0-4h-1.6l-1,1h-5.7c-1.6,0-3.1,0.7-4,2h9.7l1,1H26z M8,17h2v2v9c0,1.1-0.9,2-2,2H6c-1.1,0-2-0.9-2-2v-9v-2h2H8z M8,19H6v9h2
		V19z M21.9,17.4c0,0.3,0.1,0.7,0.1,1V28c0,1.1-0.9,2-2,2h-2c-1.1,0-2-0.9-2-2V10h4.9L21.9,17.4z M20,18.4c0-0.2,0-0.5-0.1-0.7
		L19.1,12H18v16h2V18.4z"/>
</g>
</svg>
