<svg width="16" height="16" viewBox="0 0 16 16" fill="none" xmlns="http://www.w3.org/2000/svg">
<g clip-path="url(#clip0_7599_33710)">
<path d="M11.5 8.5H6V7.5H11.5V8.5ZM5 7.5H4V8.5H5V7.5ZM5 4.5H4V5.5H5V4.5ZM4 11.5H5V10.5H4V11.5ZM6 11.5H11.5V10.5H6V11.5ZM6 4.5V5.5H8.85C8.7 5.2 8.6 4.85 8.55 4.5H6ZM13 13H3V3H8.65C8.75 2.65 8.9 2.3 9.15 2H3C2.45 2 2 2.45 2 3V13C2 13.55 2.45 14 3 14H13C13.55 14 14 13.55 14 13V6.85C13.7 7.05 13.35 7.25 13 7.35V13ZM15 4C15 5.65 13.65 7 12 7C10.35 7 9 5.65 9 4C9 2.35 10.35 1 12 1C13.65 1 15 2.35 15 4ZM13.75 3.75L12 1.95L10.25 3.7L10.8 4.25L11.65 3.4V6H12.4V3.4L13.25 4.25L13.75 3.75Z" fill="#101419"/>
</g>
<defs>
<clipPath id="clip0_7599_33710">
<rect width="16" height="16" fill="white"/>
</clipPath>
</defs>
</svg>
