<svg width="16" height="16" viewBox="0 0 16 16" fill="none" xmlns="http://www.w3.org/2000/svg">
<g clip-path="url(#clip0_9546_34955)">
<path d="M14.75 6.89999C14.75 6.84999 14.7 6.79999 14.7 6.74999C14.5 6.29999 14.2 5.79999 13.8 5.34999C13.6 5.09999 13.35 4.84999 13.1 4.64999C13.05 4.59999 13 4.54999 12.9 4.49999C12.75 4.39999 12.65 4.29999 12.5 4.19999L14.85 1.84999L14.15 1.14999L11.6 3.74999L10.8 4.49999L9.75 5.54999C9.6 5.44999 9.45 5.34999 9.3 5.29999C8.9 5.09999 8.45 4.99999 8 4.99999C6.35 4.99999 5 6.34999 5 7.99999C5 8.44999 5.1 8.89999 5.3 9.29999C5.35 9.44999 5.45 9.59999 5.55 9.74999L4.25 11.05L3.5 11.8L1.15 14.15L1.85 14.85L4.4 12.3C4.55 12.35 4.75 12.45 4.9 12.5C5.35 12.65 5.8 12.8 6.3 12.85C6.6 12.9 6.95 12.95 7.25 12.95C7.5 12.95 7.75 13 7.95 13C8.2 13 8.4 13 8.65 13C13.1 12.7 15 9.59999 15 7.99999C15 7.69999 14.9 7.29999 14.75 6.89999ZM6 11.75C5.9 11.75 5.8 11.7 5.75 11.7C5.55 11.65 5.4 11.6 5.25 11.5L6.3 10.45L10.5 6.24999L11.8 4.94999C11.95 5.04999 12.1 5.14999 12.2 5.24999C12.25 5.29999 12.35 5.34999 12.4 5.39999L6.95 10.8L6 11.75ZM8.25 12C8.15 12 8.1 12 8 12C7.75 12 7.45 12 7.2 11.95L8.2 10.95L11 8.14999L13.1 6.04999C13.3 6.24999 13.45 6.44999 13.55 6.64999L8.25 12ZM9.9 11.8L14 7.69999C14 7.79999 14.05 7.89999 14.05 7.99999C14 8.99999 12.8 11.15 9.9 11.8ZM11.1 3.49999L10.3 4.29999C9.6 4.09999 8.85 3.99999 8 3.99999C3.75 3.99999 2 6.79999 2 7.99999C2 8.64999 2.55 9.84999 3.8 10.75L3.1 11.5C1.65 10.4 1 8.94999 1 7.99999C1 6.29999 3.1 2.99999 8 2.99999C9.2 2.99999 10.2 3.19999 11.1 3.49999Z" fill="#101419"/>
</g>
<defs>
<clipPath id="clip0_9546_34955">
<rect width="16" height="16" fill="white"/>
</clipPath>
</defs>
</svg>
