<svg width="16" height="16" viewBox="0 0 16 16" fill="none" xmlns="http://www.w3.org/2000/svg">
<g clip-path="url(#clip0_7689_34348)">
<path d="M14.05 3H1.95C1.45 3 1 3.45 1 3.95V12C1 12.55 1.45 13 1.95 13H14C14.55 13 14.95 12.55 14.95 12.05V3.95C15 3.45 14.55 3 14.05 3ZM14 3.95V5H2V4L14 3.95ZM14 6V7H9.95C9.5 7 9.1 7.3 9 7.75C8.9 8.2 8.5 8.5 8.05 8.5C7.6 8.5 7.2 8.2 7.1 7.75C6.95 7.3 6.6 7 6.15 7H2V6H14ZM2 12.05V8.05L6.1 8.1C6.35 8.95 7.15 9.55 8.05 9.55C8.95 9.55 9.75 8.95 10 8.05H14V12.05H2Z" fill="#101419"/>
</g>
<defs>
<clipPath id="clip0_7689_34348">
<rect width="16" height="16" fill="white"/>
</clipPath>
</defs>
</svg>
