<svg width="16" height="16" viewBox="0 0 16 16" fill="none" xmlns="http://www.w3.org/2000/svg">
<g clip-path="url(#clip0_7669_34240)">
<path d="M8 1C4.15 1 1 4.15 1 8C1 11.85 4.15 15 8 15C11.85 15 15 11.85 15 8C15 4.15 11.85 1 8 1ZM8 12C7.6 12 7.25 11.65 7.25 11.25C7.25 10.85 7.6 10.5 8 10.5C8.4 10.5 8.75 10.85 8.75 11.25C8.75 11.65 8.4 12 8 12ZM7.5 4H8.5V9.5H7.5V4Z" fill="#101419"/>
</g>
<defs>
<clipPath id="clip0_7669_34240">
<rect width="16" height="16" fill="white"/>
</clipPath>
</defs>
</svg>
