<svg width="16" height="16" viewBox="0 0 16 16" fill="none" xmlns="http://www.w3.org/2000/svg">
<g clip-path="url(#clip0_7669_34332)">
<path d="M8 1C4.15 1 1 4.15 1 8C1 11.85 4.15 15 8 15C11.85 15 15 11.85 15 8C15 4.15 11.85 1 8 1ZM8 12C7.6 12 7.25 11.65 7.25 11.25C7.25 10.85 7.6 10.5 8 10.5C8.4 10.5 8.75 10.85 8.75 11.25C8.75 11.65 8.4 12 8 12ZM8.5 7.95V9.5H7.5V7.9C7.5 7.45 7.8 7.05 8.25 6.95C8.75 6.8 9.05 6.3 9 5.8C8.95 5.4 8.6 5.05 8.2 5C7.9 4.95 7.6 5 7.35 5.2C7.15 5.4 7 5.7 7 6H6C6 5.4 6.25 4.85 6.7 4.45C7.15 4.05 7.75 3.9 8.35 4C9.15 4.15 9.8 4.8 9.95 5.6C10.15 6.7 9.5 7.65 8.5 7.95Z" fill="#101419"/>
</g>
<defs>
<clipPath id="clip0_7669_34332">
<rect width="16" height="16" fill="white"/>
</clipPath>
</defs>
</svg>
