<svg width="16" height="16" viewBox="0 0 16 16" fill="none" xmlns="http://www.w3.org/2000/svg">
<g clip-path="url(#clip0_7669_34168)">
<path d="M14.9 13.55L8.89996 1.55C8.74996 1.2 8.39996 1 7.99996 1C7.59996 1 7.24996 1.2 7.09996 1.55L1.09996 13.55C0.949964 13.85 0.949964 14.2 1.14996 14.5C1.34996 14.85 1.64996 15 1.99996 15H14C14.35 15 14.65 14.85 14.85 14.55C15.05 14.25 15.05 13.9 14.9 13.55ZM7.99996 13C7.59996 13 7.24996 12.65 7.24996 12.25C7.24996 11.85 7.59996 11.5 7.99996 11.5C8.39996 11.5 8.74996 11.85 8.74996 12.25C8.74996 12.65 8.39996 13 7.99996 13ZM7.49996 6H8.49996V10.5H7.49996V6Z" fill="#101419"/>
</g>
<defs>
<clipPath id="clip0_7669_34168">
<rect width="16" height="16" fill="white"/>
</clipPath>
</defs>
</svg>
