<svg width="16" height="16" viewBox="0 0 16 16" fill="none" xmlns="http://www.w3.org/2000/svg">
<g clip-path="url(#clip0_6964_33218)">
<path d="M8.00005 15C6.15005 15 4.35005 14.25 3.05005 12.95C0.300049 10.2 0.300049 5.8 3.05005 3.05C4.40005 1.75 6.15005 1 8.00005 1C9.85005 1 11.65 1.75 12.95 3.05C15.7 5.8 15.7 10.2 12.95 12.95C11.65 14.25 9.85005 15 8.00005 15ZM8.00005 2C6.40005 2 4.90005 2.6 3.75005 3.75C1.40005 6.1 1.40005 9.9 3.75005 12.25C4.90005 13.4 6.40005 14 8.00005 14C9.60005 14 11.1 13.4 12.25 12.25C14.6 9.9 14.6 6.1 12.25 3.75C11.1 2.6 9.60005 2 8.00005 2ZM12 8.5V7.5H8.50005V4H7.50005V7.5H4.00005V8.5H7.50005V12H8.50005V8.5H12Z" fill="#101419"/>
</g>
<defs>
<clipPath id="clip0_6964_33218">
<rect width="16" height="16" fill="white"/>
</clipPath>
</defs>
</svg>
