<svg width="16" height="16" viewBox="0 0 16 16" fill="none" xmlns="http://www.w3.org/2000/svg">
<g clip-path="url(#clip0_7472_33558)">
<path d="M6.85 5.95C6.85 5.4 7.35 5 8.05 5C8.8 5 9.25 5.35 9.25 5.95C9.25 6.65 8.45 7.1 8.15 7.25L8.1 7.3H8C7.4 6.95 6.85 6.6 6.85 5.95ZM8 8.45L7.95 8.4L7.9 8.45C7.7 8.55 6.75 9.05 6.75 9.9C6.75 10.5 7.3 10.9 8.1 10.9C8.95 10.9 9.35 10.4 9.35 9.9C9.35 9.35 9 8.95 8 8.45ZM15 8C15 11.85 11.85 15 8 15C4.15 15 1 11.85 1 8C1 4.15 4.15 1 8 1C11.85 1 15 4.15 15 8ZM10.6 9.85C10.6 9.05 10.15 8.5 9.1 7.9L8.9 7.8L9.1 7.7C9.8 7.3 10.45 6.75 10.45 5.8C10.45 5 9.85 4.15 8.1 4.15C6.45 4.15 5.7 5.15 5.7 6.1C5.7 7.15 6.65 7.65 6.95 7.85L7.1 7.95L6.95 8.05C6.9 8.1 6.85 8.1 6.8 8.15C6.35 8.4 5.5 9 5.5 10C5.5 11.35 6.75 11.85 7.9 11.85C9.75 11.85 10.6 10.85 10.6 9.85Z" fill="#101419"/>
</g>
<defs>
<clipPath id="clip0_7472_33558">
<rect width="16" height="16" fill="white"/>
</clipPath>
</defs>
</svg>
