<svg width="16" height="16" viewBox="0 0 16 16" fill="none" xmlns="http://www.w3.org/2000/svg">
<g clip-path="url(#clip0_7472_33538)">
<path d="M8 1C4.15 1 1 4.15 1 8C1 11.85 4.15 15 8 15C11.85 15 15 11.85 15 8C15 4.15 11.85 1 8 1ZM7.4 11.85C6.95 11.85 6.3 11.8 6.05 11.75L5.95 10.75C6.2 10.8 6.75 10.85 7.2 10.85C8.05 10.85 9 10.5 9 9.6C9 8.8 8.4 8.35 7.15 8.35H6.8V7.4H7.05C8.15 7.4 8.9 6.9 8.9 6.2C8.9 5.95 8.8 5.1 7.5 5.1C7 5.1 6.5 5.3 6.25 5.4L5.9 4.5C6.25 4.35 6.85 4.15 7.9 4.15C9.2 4.15 10.1 4.9 10.1 6.05C10.1 7.15 9.25 7.65 9 7.7L8.9 7.75V7.8H9C9.45 7.9 10.3 8.5 10.3 9.7C10.3 11.05 9.2 11.85 7.4 11.85Z" fill="#101419"/>
</g>
<defs>
<clipPath id="clip0_7472_33538">
<rect width="16" height="16" fill="white"/>
</clipPath>
</defs>
</svg>
