<svg width="16" height="16" viewBox="0 0 16 16" fill="none" xmlns="http://www.w3.org/2000/svg">
<g clip-path="url(#clip0_7472_33533)">
<path d="M8 1C4.15 1 1 4.15 1 8C1 11.85 4.15 15 8 15C11.85 15 15 11.85 15 8C15 4.15 11.85 1 8 1ZM10.4 11.8H5.9V10.75C6.1 10.5 7.25 9.3 7.45 9C8.5 7.75 8.85 7.1 8.85 6.45C8.85 5.85 8.45 5.2 7.4 5.2C6.95 5.2 6.5 5.35 6.05 5.6L5.75 4.6C6 4.5 6.65 4.15 7.65 4.15C9.35 4.15 10.1 5.2 10.1 6.3C10.1 7.35 9.65 8.15 8.85 9.1C8.5 9.55 7.7 10.55 7.7 10.55L7.55 10.75H7.8H10.4V11.8Z" fill="#101419"/>
</g>
<defs>
<clipPath id="clip0_7472_33533">
<rect width="16" height="16" fill="white"/>
</clipPath>
</defs>
</svg>
