<svg width="16" height="16" viewBox="0 0 16 16" fill="none" xmlns="http://www.w3.org/2000/svg">
<g clip-path="url(#clip0_11951_40477)">
<path d="M14 5.5H11.75L11.3 6.5H14V14H2V6.5H7.2L7.05 6.8C6.9 7.15 7.15 7.5 7.5 7.5H9.7C10.1 7.5 10.45 7.25 10.6 6.9L13.2 1H9.6L8 4.65L6.35 1H2.8L4.6 5H5.7L4.3 2H5.7L7.25 5.5H2C1.45 5.5 1 5.95 1 6.5V14C1 14.55 1.45 15 2 15H14C14.55 15 15 14.55 15 14V6.5C15 5.95 14.55 5.5 14 5.5ZM8.25 6.5L10.25 2H11.65L9.65 6.5H8.25ZM13 10H8V9H13V10ZM8 11.5H13V12.5H8V11.5ZM6.2 11.2C6.2 11.2 6.15 11.25 6.15 11.3L6.35 12.4C6.35 12.5 6.3 12.55 6.2 12.5L5.2 12C5.15 12 5.15 12 5.1 12L4.1 12.5C4 12.55 3.95 12.5 3.95 12.4L4.15 11.3C4.15 11.25 4.15 11.25 4.1 11.2L3.3 10.45C3.25 10.4 3.25 10.3 3.35 10.25L4.5 10.1C4.55 10.1 4.55 10.05 4.6 10.05L5.1 9.05C5.15 8.95 5.25 8.95 5.3 9.05L5.8 10.05C5.8 10.1 5.85 10.1 5.9 10.1L7 10.25C7.1 10.25 7.1 10.35 7.05 10.45L6.2 11.2Z" fill="#101419"/>
</g>
<defs>
<clipPath id="clip0_11951_40477">
<rect width="16" height="16" fill="white"/>
</clipPath>
</defs>
</svg>
