<svg width="16" height="16" viewBox="0 0 16 16" fill="none" xmlns="http://www.w3.org/2000/svg">
<g clip-path="url(#clip0_7697_34395)">
<path d="M12.5 2.5H7.89995C7.49995 2.5 7.09995 2.65 6.84995 2.95L1.99995 7.8C1.59995 8.2 1.59995 8.8 1.99995 9.2L6.79995 14C6.99995 14.2 7.24995 14.3 7.49995 14.3C7.74995 14.3 7.99995 14.2 8.19995 14L13.05 9.15C13.35 8.85 13.5 8.5 13.5 8.1V3.5C13.5 2.95 13.05 2.5 12.5 2.5ZM12.5 8.1C12.5 8.25 12.45 8.35 12.35 8.45L7.49995 13.3L2.69995 8.5L7.54995 3.65C7.64995 3.55 7.79995 3.5 7.89995 3.5H12.5V8.1ZM6.89995 6.4L7.94995 7.2L9.19995 6.8C9.24995 6.8 9.29995 6.85 9.29995 6.9L8.89995 8.15L9.69995 9.2C9.74995 9.25 9.69995 9.35 9.64995 9.35H8.34995L7.49995 10.3C7.44995 10.35 7.39995 10.35 7.34995 10.3L6.99995 9L5.74995 8.6C5.69995 8.6 5.64995 8.5 5.74995 8.45L6.79995 7.7V6.4C6.74995 6.4 6.84995 6.35 6.89995 6.4ZM10.65 5.35C10.45 5.15 10.45 4.85 10.65 4.65C10.85 4.45 11.15 4.45 11.35 4.65C11.55 4.85 11.55 5.15 11.35 5.35C11.15 5.55 10.85 5.55 10.65 5.35Z" fill="#101419"/>
</g>
<defs>
<clipPath id="clip0_7697_34395">
<rect width="16" height="16" fill="white"/>
</clipPath>
</defs>
</svg>
