<svg width="16" height="16" viewBox="0 0 16 16" fill="none" xmlns="http://www.w3.org/2000/svg">
<g clip-path="url(#clip0_11360_36828)">
<path d="M9.25 8.25C9.35 8.4 9.4 8.6 9.4 8.8C9.4 9 9.35 9.2 9.25 9.35C9.15 9.5 9.05 9.65 8.9 9.75C8.75 9.85 8.6 9.9 8.4 9.95V10.5H7.65V10.05C7.5 10.05 7.35 10.05 7.15 10C6.95 10 6.8 9.95 6.7 9.9H6.65V9.85L6.7 9.15V9.05L6.8 9.1C6.9 9.15 7.05 9.2 7.2 9.2C7.35 9.25 7.5 9.25 7.65 9.25C7.8 9.25 7.95 9.25 8.1 9.2C8.2 9.15 8.3 9.1 8.35 9.05C8.4 9 8.45 8.9 8.45 8.85C8.45 8.75 8.45 8.7 8.4 8.65C8.35 8.6 8.3 8.55 8.25 8.5C8.15 8.45 8.05 8.4 7.95 8.35L7.5 8.2C7.3 8.15 7.15 8.05 7.05 7.95C6.9 7.85 6.85 7.75 6.75 7.6C6.7 7.45 6.65 7.3 6.65 7.1C6.65 6.9 6.7 6.7 6.8 6.55C6.9 6.4 7 6.25 7.2 6.15C7.35 6.05 7.5 6 7.7 5.95V5.5H8.45V5.9C8.55 5.9 8.7 5.9 8.8 5.9C8.9 5.9 9 5.95 9.1 5.95H9.15V6L9 6.7V6.8L8.9 6.75C8.85 6.75 8.8 6.7 8.75 6.7C8.7 6.7 8.6 6.7 8.5 6.65C8.4 6.65 8.35 6.65 8.25 6.65C8.05 6.65 7.9 6.7 7.75 6.75C7.65 6.8 7.6 6.9 7.6 7C7.6 7.05 7.6 7.1 7.65 7.15C7.7 7.2 7.7 7.25 7.75 7.25C7.8 7.3 7.85 7.3 7.95 7.35L8.35 7.5C8.55 7.6 8.7 7.7 8.85 7.8C9.05 7.95 9.15 8.1 9.25 8.25ZM15 5V11C15 11.55 14.55 12 14 12H2C1.45 12 1 11.55 1 11V5C1 4.45 1.45 4 2 4H14C14.55 4 15 4.45 15 5ZM14 11V5H2V11H14ZM2.5 6.8C3.1 6.55 3.55 6.1 3.8 5.5H2.5V6.8ZM2.5 9.2V10.5H3.8C3.55 9.9 3.1 9.45 2.5 9.2ZM12.2 10.5H13.5V9.2C12.95 9.45 12.45 9.9 12.2 10.5ZM13.5 6.8V5.5H12.2C12.45 6.05 12.95 6.55 13.5 6.8Z" fill="#101419"/>
</g>
<defs>
<clipPath id="clip0_11360_36828">
<rect width="16" height="16" fill="white"/>
</clipPath>
</defs>
</svg>
