<svg width="16" height="16" viewBox="0 0 16 16" fill="none" xmlns="http://www.w3.org/2000/svg">
<g clip-path="url(#clip0_11360_36836)">
<path d="M8.5 7.5H15V8.5H8.5V14H15V15H8.5C7.95 15 7.5 14.55 7.5 14V11.25H2V12C2 12.3 2.2 12.5 2.5 12.5H7V13.5H2.5C1.65 13.5 1 12.85 1 12V6.5C1 5.65 1.65 5 2.5 5H11.5C12.35 5 13 5.65 13 6.5V7H12V6.5C12 6.2 11.8 6 11.5 6H2.5C2.2 6 2 6.2 2 6.5V9.75H7.5V8.5C7.5 7.95 7.95 7.5 8.5 7.5ZM12.3 4.3L13 5L15 3L13 1L12.3 1.7L13.1 2.5H1V3.5H13.1L12.3 4.3Z" fill="#101419"/>
</g>
<defs>
<clipPath id="clip0_11360_36836">
<rect width="16" height="16" fill="white"/>
</clipPath>
</defs>
</svg>
