<svg width="16" height="16" viewBox="0 0 16 16" fill="none" xmlns="http://www.w3.org/2000/svg">
<g clip-path="url(#clip0_11360_36824)">
<path d="M1 4.5V11.5C1 12.35 1.65 13 2.5 13H13.5C14.35 13 15 12.35 15 11.5V4.5C15 3.65 14.35 3 13.5 3H2.5C1.65 3 1 3.65 1 4.5ZM13.5 4C13.8 4 14 4.2 14 4.5V11.5C14 11.8 13.8 12 13.5 12H2.5C2.2 12 2 11.8 2 11.5V4.5C2 4.2 2.2 4 2.5 4H13.5ZM6.5 7.5V6.5C6.5 5.95 6.05 5.5 5.5 5.5H4C3.45 5.5 3 5.95 3 6.5V7.5C3 8.05 3.45 8.5 4 8.5H5.5C6.05 8.5 6.5 8.05 6.5 7.5ZM4 7.5V6.5H5.5V7.5H4ZM11.55 5.15L12.45 4.7C12.8 5.4 13 6.2 13 7C13 7.85 12.8 8.65 12.4 9.35L11.5 8.9C11.8 8.35 11.95 7.7 11.95 7C12 6.3 11.85 5.7 11.55 5.15ZM11.5 7C11.5 7.6 11.35 8.15 11.1 8.65L10.2 8.2C10.4 7.85 10.5 7.45 10.5 7.05C10.5 6.65 10.4 6.25 10.2 5.9L11.1 5.45C11.35 5.85 11.5 6.4 11.5 7Z" fill="#101419"/>
</g>
<defs>
<clipPath id="clip0_11360_36824">
<rect width="16" height="16" fill="white"/>
</clipPath>
</defs>
</svg>
