<?xml version="1.0" encoding="utf-8"?>
<!-- Generator: Adobe Illustrator 25.4.1, SVG Export Plug-In . SVG Version: 6.00 Build 0)  -->
<svg version="1.1" id="Layer_1" xmlns="http://www.w3.org/2000/svg" xmlns:xlink="http://www.w3.org/1999/xlink" x="0px" y="0px"
	 width="32px" height="32px" viewBox="0 0 32 32" style="enable-background:new 0 0 32 32;" xml:space="preserve">
<style type="text/css">
	.st0{fill:#FFFFFF;}
	.st1{fill:none;stroke:#999999;stroke-width:2.000000e-02;stroke-miterlimit:10;}
	.st2{fill:none;stroke:#FF00FF;stroke-width:4.000000e-02;stroke-miterlimit:10;}
	.st3{fill:none;stroke:#FF00FF;stroke-width:0.1;stroke-miterlimit:10;}
	.st4{opacity:0.3;fill:none;stroke:#000000;stroke-width:2;stroke-miterlimit:10;}
	.st5{opacity:0.3;}
	.st6{fill:#ED1C24;}
	.st7{fill:#39B54A;}
	.st8{fill:none;}
</style>
<g>
	<path d="M27,6H5C3.3,6,2,7.3,2,9v14c0,1.7,1.3,3,3,3h22c1.7,0,3-1.3,3-3V9C30,7.3,28.7,6,27,6z M5,8h22c0.6,0,1,0.4,1,1v1.5H4V9
		C4,8.4,4.4,8,5,8z M27,24H5c-0.6,0-1-0.4-1-1v-9.5h24V23C28,23.6,27.6,24,27,24z M6,20h8v2H6V20z"/>
	<rect class="st8" width="32" height="32"/>
</g>
</svg>
