<svg width="16" height="16" viewBox="0 0 16 16" fill="none" xmlns="http://www.w3.org/2000/svg">
<g clip-path="url(#clip0_11360_36832)">
<path d="M12.2 8V7.6C12.05 7.6 11.9 7.6 11.75 7.55C11.6 7.55 11.45 7.5 11.35 7.5H11.3V7.45L11.35 6.85V6.75L11.45 6.8C11.55 6.85 11.65 6.85 11.8 6.9C11.9 6.95 12.05 6.95 12.2 6.95C12.35 6.95 12.5 6.95 12.6 6.9C12.7 6.85 12.75 6.85 12.8 6.8C12.85 6.75 12.85 6.7 12.85 6.6C12.85 6.55 12.85 6.5 12.8 6.45C12.75 6.4 12.7 6.35 12.65 6.35C12.6 6.3 12.5 6.25 12.4 6.2L12.05 6.05C11.9 6 11.75 5.9 11.65 5.85C11.55 5.75 11.45 5.65 11.4 5.5C11.35 5.4 11.3 5.2 11.3 5.05C11.3 4.85 11.35 4.7 11.4 4.55C11.5 4.4 11.6 4.3 11.75 4.2C11.9 4.1 12.05 4.05 12.2 4V3.5H12.85V3.85C12.95 3.85 13.05 3.85 13.15 3.85C13.25 3.85 13.35 3.9 13.4 3.9H13.45V3.95L13.4 4.55V4.6H13.35C13.3 4.6 13.25 4.55 13.2 4.55C13.15 4.55 13.05 4.55 13 4.5C12.9 4.5 12.85 4.5 12.8 4.5C12.6 4.5 12.45 4.55 12.35 4.6C12.25 4.65 12.2 4.75 12.2 4.85C12.2 4.9 12.2 4.95 12.25 5C12.3 5.05 12.3 5.1 12.35 5.1C12.4 5.15 12.45 5.15 12.55 5.2L12.9 5.35C13.05 5.4 13.25 5.5 13.35 5.6C13.5 5.7 13.6 5.8 13.65 5.95C13.75 6.1 13.75 6.25 13.75 6.45C13.75 6.65 13.7 6.8 13.65 6.95C13.55 7.1 13.45 7.2 13.35 7.3C13.25 7.4 13.1 7.45 12.9 7.5V8H12.2ZM15 2H8.5C7.95 2 7.5 2.45 7.5 3V8.5C7.5 9.05 7.95 9.5 8.5 9.5H15V8.5H8.5V3H15V2ZM2 10.25H13V10.5V11.75V12.5C13 13.35 12.35 14 11.5 14H2.5C1.65 14 1 13.35 1 12.5V7C1 6.15 1.65 5.5 2.5 5.5H7V6.5H2.5C2.2 6.5 2 6.7 2 7V10.25ZM2 11.75V12.5C2 12.8 2.2 13 2.5 13H11.5C11.8 13 12 12.8 12 12.5V11.75H2Z" fill="#101419"/>
</g>
<defs>
<clipPath id="clip0_11360_36832">
<rect width="16" height="16" fill="white"/>
</clipPath>
</defs>
</svg>
