<?xml version="1.0" encoding="utf-8"?>
<!-- Generator: Adobe Illustrator 25.4.1, SVG Export Plug-In . SVG Version: 6.00 Build 0)  -->
<svg version="1.1" id="Layer_1" xmlns="http://www.w3.org/2000/svg" xmlns:xlink="http://www.w3.org/1999/xlink" x="0px" y="0px"
	 width="32px" height="32px" viewBox="0 0 32 32" style="enable-background:new 0 0 32 32;" xml:space="preserve">
<style type="text/css">
	.st0{fill:#FFFFFF;}
	.st1{fill:none;stroke:#999999;stroke-width:2.000000e-02;stroke-miterlimit:10;}
	.st2{fill:none;stroke:#FF00FF;stroke-width:4.000000e-02;stroke-miterlimit:10;}
	.st3{fill:none;stroke:#FF00FF;stroke-width:0.1;stroke-miterlimit:10;}
	.st4{opacity:0.3;fill:none;stroke:#000000;stroke-width:2;stroke-miterlimit:10;}
	.st5{opacity:0.3;}
	.st6{fill:#ED1C24;}
	.st7{fill:#39B54A;}
	.st8{fill:none;}
	.st9{fill:none;stroke:#FFFFFF;stroke-miterlimit:10;}
</style>
<g>
	<path d="M12,5h8v2h-8V5z M28,16h-1v10c0,1.1-0.9,2-2,2v2h-3v-2H10v2H7v-2c-1.1,0-2-0.9-2-2V16H4V9h1.5l0.3-4.2C6,3.2,7.3,2,8.9,2
		h14.3c1.6,0,2.9,1.2,3,2.8L26.5,9H28V16z M7.1,15h17.8L24.2,4.9c0-0.5-0.5-0.9-1-0.9H8.9c-0.5,0-1,0.4-1,0.9L7.1,15z M24,19.5
		c0-0.8-0.7-1.5-1.5-1.5c-0.8,0-1.5,0.7-1.5,1.5c0,0.8,0.7,1.5,1.5,1.5C23.3,21,24,20.3,24,19.5z M9.5,21c0.8,0,1.5-0.7,1.5-1.5
		c0-0.8-0.7-1.5-1.5-1.5C8.7,18,8,18.7,8,19.5C8,20.3,8.7,21,9.5,21z"/>
	<rect class="st8" width="32" height="32"/>
</g>
</svg>
