<?xml version="1.0" encoding="utf-8"?>
<!-- Generator: Adobe Illustrator 25.4.1, SVG Export Plug-In . SVG Version: 6.00 Build 0)  -->
<svg version="1.1" id="Layer_1" xmlns="http://www.w3.org/2000/svg" xmlns:xlink="http://www.w3.org/1999/xlink" x="0px" y="0px"
	 width="32px" height="32px" viewBox="0 0 32 32" style="enable-background:new 0 0 32 32;" xml:space="preserve">
<style type="text/css">
	.st0{fill:#FFFFFF;}
	.st1{fill:none;stroke:#999999;stroke-width:2.000000e-02;stroke-miterlimit:10;}
	.st2{fill:none;stroke:#FF00FF;stroke-width:4.000000e-02;stroke-miterlimit:10;}
	.st3{fill:none;stroke:#FF00FF;stroke-width:0.1;stroke-miterlimit:10;}
	.st4{opacity:0.3;fill:none;stroke:#000000;stroke-width:2;stroke-miterlimit:10;}
	.st5{opacity:0.3;}
	.st6{fill:#ED1C24;}
	.st7{fill:#39B54A;}
	.st8{fill:none;}
	.st9{fill:none;stroke:#FFFFFF;stroke-miterlimit:10;}
</style>
<g>
	<path d="M29.9,17l-0.6-2.7c-0.2-0.9-0.8-1.6-1.5-2l-1-3.6C26.2,6.5,24.2,5,22,5H10C7.8,5,5.8,6.5,5.2,8.6l-1,3.6
		c-0.8,0.4-1.3,1.2-1.5,2L2.1,17c-0.1,0.7-0.1,1.3,0,2l0.2,1c0.2,1.1,0.9,2.1,1.7,2.8V27h3v-3c0.1,0,0.1,0,0.2,0h17.5
		c0.1,0,0.2,0,0.2,0v3h3v-4.2c0.8-0.7,1.5-1.7,1.7-2.8l0.2-1C30,18.3,30,17.7,29.9,17z M7.1,9.2C7.5,7.9,8.7,7,10,7h12
		c1.3,0,2.5,0.9,2.9,2.2l0.7,2.6l-5.5-0.5c-2.7-0.2-5.5-0.2-8.2,0l-5.5,0.5L7.1,9.2z M9,18H4c0-0.2,0-0.4,0.1-0.6L4.3,16H9V18z
		 M21,19H11v-3h10V19z M23,18v-2h4.7l0.3,1.4c0,0.2,0.1,0.4,0.1,0.6H23z"/>
	<rect class="st8" width="32" height="32"/>
</g>
</svg>
