<?xml version="1.0" encoding="utf-8"?>
<!-- Generator: Adobe Illustrator 25.4.1, SVG Export Plug-In . SVG Version: 6.00 Build 0)  -->
<svg version="1.1" id="Layer_1" xmlns="http://www.w3.org/2000/svg" xmlns:xlink="http://www.w3.org/1999/xlink" x="0px" y="0px"
	 width="32px" height="32px" viewBox="0 0 32 32" style="enable-background:new 0 0 32 32;" xml:space="preserve">
<style type="text/css">
	.st0{fill:#FFFFFF;}
	.st1{fill:none;stroke:#999999;stroke-width:2.000000e-02;stroke-miterlimit:10;}
	.st2{fill:none;stroke:#FF00FF;stroke-width:4.000000e-02;stroke-miterlimit:10;}
	.st3{fill:none;stroke:#FF00FF;stroke-width:0.1;stroke-miterlimit:10;}
	.st4{opacity:0.3;fill:none;stroke:#000000;stroke-width:2;stroke-miterlimit:10;}
	.st5{opacity:0.3;}
	.st6{fill:#ED1C24;}
	.st7{fill:#39B54A;}
	.st8{fill:none;}
	.st9{fill:none;stroke:#FFFFFF;stroke-miterlimit:10;}
</style>
<g>
	<path d="M29.9,17l-0.5-2.7C29.1,13,28,12,26.7,11.9l-6.6-0.5c-2.7-0.2-5.4-0.2-8.1,0l-6.6,0.5C4,12,2.9,13,2.6,14.3L2.1,17
		c-0.1,0.7-0.1,1.3,0,2l0.2,1C2.5,21.1,3.2,22,4,22.8V27h3v-3c0.1,0,0.2,0,0.3,0h17.4c0.1,0,0.2,0,0.3,0v3h3v-4.2
		c0.8-0.7,1.5-1.7,1.7-2.8l0.2-1C30,18.3,30,17.7,29.9,17z M27.9,18.6l-0.2,1c-0.3,1.4-1.6,2.4-3,2.4H7.3c-1.4,0-2.7-1-3-2.4l-0.2-1
		C4,18.4,4,18.2,4,18h5v-2H4.3l0.3-1.3c0.1-0.4,0.5-0.8,0.9-0.8l6.6-0.5c1.3-0.1,2.6-0.2,3.9-0.2s2.6,0.1,3.9,0.2l6.6,0.5
		c0.4,0,0.8,0.4,0.9,0.8l0.3,1.3H23v2h5C28,18.2,28,18.4,27.9,18.6z M5.3,10.9c-0.3,0-0.6,0.1-0.8,0.2l0.7-2.4C5.8,6.5,7.8,5,10,5
		h12c2.2,0,4.2,1.5,4.8,3.6l0.7,2.4c-0.3-0.1-0.5-0.1-0.8-0.2l-1.3-0.1l-0.5-1.6C24.5,7.9,23.3,7,22,7H10C8.7,7,7.5,7.9,7.1,9.2
		l-0.5,1.6L5.3,10.9z M11,16h10v3H11V16z"/>
	<rect y="0" class="st8" width="32" height="32"/>
</g>
</svg>
