<?xml version="1.0" encoding="utf-8"?>
<!-- Generator: Adobe Illustrator 25.4.1, SVG Export Plug-In . SVG Version: 6.00 Build 0)  -->
<svg version="1.1" id="Layer_1" xmlns="http://www.w3.org/2000/svg" xmlns:xlink="http://www.w3.org/1999/xlink" x="0px" y="0px"
	 width="32px" height="32px" viewBox="0 0 32 32" style="enable-background:new 0 0 32 32;" xml:space="preserve">
<style type="text/css">
	.st0{fill:#FFFFFF;}
	.st1{fill:none;stroke:#999999;stroke-width:2.000000e-02;stroke-miterlimit:10;}
	.st2{fill:none;stroke:#FF00FF;stroke-width:4.000000e-02;stroke-miterlimit:10;}
	.st3{fill:none;stroke:#FF00FF;stroke-width:0.1;stroke-miterlimit:10;}
	.st4{opacity:0.3;fill:none;stroke:#000000;stroke-width:2;stroke-miterlimit:10;}
	.st5{opacity:0.3;}
	.st6{fill:#ED1C24;}
	.st7{fill:#39B54A;}
	.st8{fill:none;}
	.st9{fill:none;stroke:#FFFFFF;stroke-miterlimit:10;}
</style>
<g>
	<path d="M13,6h-2V4c0-1.1,0.9-2,2-2h6c1.1,0,2,0.9,2,2v2h-2V4h-6V6z M24.9,27.9c-2.6,0.3-5.1,0.1-7.6-0.7l-2.2-0.7
		c-2.7-0.8-5.5-1.1-8.4-0.8L2,26.3v2l5.1-0.6c2.6-0.3,5.1-0.1,7.6,0.7l2.2,0.7c2,0.6,4,0.9,6,0.9c0.8,0,1.6,0,2.3-0.1l4.8-0.5v-2
		L24.9,27.9z M9,13h2v-2H9V13z M15,13v-2h-2v2H15z M19,13v-2h-2v2H19z M23,13v-2h-2v2H23z M5,23v-3.6l10-3.1v8.1
		c0.3,0.1,0.5,0.1,0.8,0.2L17,25v-8.6l10,3.1V23c0,0.9-0.1,1.8-0.4,2.7l2.1-0.2c0.2-0.8,0.3-1.6,0.3-2.4v-3.6c0-0.9-0.6-1.7-1.4-1.9
		l-11-3.4c-0.4-0.1-0.8-0.1-1.2,0l-11,3.4c-0.8,0.3-1.4,1-1.4,1.9V23c0,0.4,0,0.8,0.1,1.2l2-0.2C5,23.6,5,23.3,5,23z M7,11
		c0-1.1,0.9-2,2-2h14c1.1,0,2,0.9,2,2v4.7l2,0.6V11c0-2.2-1.8-4-4-4H9c-2.2,0-4,1.8-4,4v5.3l2-0.6V11z"/>
	<rect class="st8" width="32" height="32"/>
</g>
</svg>
