<?xml version="1.0" encoding="utf-8"?>
<!-- Generator: Adobe Illustrator 25.4.1, SVG Export Plug-In . SVG Version: 6.00 Build 0)  -->
<svg version="1.1" id="Layer_1" xmlns="http://www.w3.org/2000/svg" xmlns:xlink="http://www.w3.org/1999/xlink" x="0px" y="0px"
	 width="32px" height="32px" viewBox="0 0 32 32" style="enable-background:new 0 0 32 32;" xml:space="preserve">
<style type="text/css">
	.st0{fill:#FFFFFF;}
	.st1{fill:none;stroke:#999999;stroke-width:2.000000e-02;stroke-miterlimit:10;}
	.st2{fill:none;stroke:#FF00FF;stroke-width:4.000000e-02;stroke-miterlimit:10;}
	.st3{fill:none;stroke:#FF00FF;stroke-width:0.1;stroke-miterlimit:10;}
	.st4{opacity:0.3;fill:none;stroke:#000000;stroke-width:2;stroke-miterlimit:10;}
	.st5{opacity:0.3;}
	.st6{fill:#ED1C24;}
	.st7{fill:#39B54A;}
	.st8{fill:none;}
	.st9{fill:none;stroke:#FFFFFF;stroke-miterlimit:10;}
</style>
<g>
	<path d="M30,27.3v2l-4.8,0.5C24.4,30,23.6,30,22.8,30c-2,0-4.1-0.3-6-0.9l-2.2-0.6c-2.5-0.7-5-1-7.6-0.7L2,28.3v-2l1.2-0.1l2-0.2
		l1.6-0.2c2.8-0.3,5.5-0.1,8.2,0.7c0.1,0,0.1,0,0.2,0.1l1.8,0.5l0.4,0.1c2.5,0.7,5,1,7.6,0.7l1.2-0.1l2.3-0.2L30,27.3z M9,13h2v-2H9
		V13z M15,13v-2h-2v2H15z M19,13v-2h-2v2H19z M23,13v-2h-2v2H23z M5,24l1.6-0.2c0.8-0.1,1.7-0.1,2.5-0.1c2,0,3.9,0.3,5.8,0.8v-8.1
		l0.7-0.2c0.2-0.1,0.4-0.1,0.6,0l0.7,0.2V25l0.6,0.2l0.4,0.1c1.6,0.5,3.2,0.7,4.8,0.7c0.6,0,1.3,0,1.9-0.1l1.2-0.1l2.3-0.2l0.5-0.1
		c0.2-0.8,0.3-1.6,0.3-2.4v-3.6c0-0.9-0.6-1.6-1.4-1.9l-2.3-0.7l-8.7-2.7c-0.1,0-0.2-0.1-0.3-0.1c-0.2,0-0.4,0-0.6,0
		c-0.1,0-0.2,0-0.3,0.1l-8.7,2.7l-2.3,0.7c-0.8,0.3-1.4,1-1.4,1.9V23c0,0.4,0,0.8,0.1,1.2L5,24z M7,11c0-1.1,0.9-2,2-2h14
		c1.1,0,2,0.9,2,2v4.7l2,0.6V11c0-2.2-1.8-4-4-4H9c-2.2,0-4,1.8-4,4v5.3l2-0.6V11z M21,4c0-1.1-0.9-2-2-2h-6c-1.1,0-2,0.9-2,2v2h10
		V4z"/>
	<rect y="0" class="st8" width="32" height="32"/>
</g>
</svg>
