<svg width="16" height="16" viewBox="0 0 16 16" fill="none" xmlns="http://www.w3.org/2000/svg">
<g clip-path="url(#clip0_7472_34690)">
<path d="M1.5 10.45L1.25 10.3C1.1 10.2 1 10.05 1 9.85V6.1C1 5.9 1.1 5.75 1.25 5.65L1.5 5.55C1.75 5.4 2.05 5.5 2.15 5.7L3 7H6.4L4.9 1.45C4.85 1.25 5 1 5.25 1H6.1C6.3 1 6.45 1.1 6.55 1.25L9.6 7H14C14.55 7 15 7.45 15 8C15 8.55 14.55 9 14 9H9.6L6.5 14.75C6.4 14.9 6.25 15 6.05 15H5.2C4.95 15 4.75 14.75 4.85 14.55L6.35 9H2.95L2.15 10.3C2.05 10.5 1.75 10.6 1.5 10.45Z" fill="#101419"/>
</g>
<defs>
<clipPath id="clip0_7472_34690">
<rect width="16" height="16" fill="white" transform="translate(16) rotate(90)"/>
</clipPath>
</defs>
</svg>
