<?xml version="1.0" encoding="utf-8"?>
<!-- Generator: Adobe Illustrator 25.4.1, SVG Export Plug-In . SVG Version: 6.00 Build 0)  -->
<svg version="1.1" id="Layer_1" xmlns="http://www.w3.org/2000/svg" xmlns:xlink="http://www.w3.org/1999/xlink" x="0px" y="0px"
	 width="32px" height="32px" viewBox="0 0 32 32" style="enable-background:new 0 0 32 32;" xml:space="preserve">
<style type="text/css">
	.st0{fill:#FFFFFF;}
	.st1{fill:none;stroke:#999999;stroke-width:2.000000e-02;stroke-miterlimit:10;}
	.st2{fill:none;stroke:#FF00FF;stroke-width:4.000000e-02;stroke-miterlimit:10;}
	.st3{fill:none;stroke:#FF00FF;stroke-width:0.1;stroke-miterlimit:10;}
	.st4{opacity:0.3;fill:none;stroke:#000000;stroke-width:2;stroke-miterlimit:10;}
	.st5{opacity:0.3;}
	.st6{fill:#ED1C24;}
	.st7{fill:#39B54A;}
	.st8{fill:none;}
	.st9{opacity:0.15;}
</style>
<g>
	<path d="M30,19.6v1.8c0,0.5-0.2,0.9-0.6,1.2c-0.4,0.3-0.8,0.4-1.3,0.3L19,20.3v4.2l1.8,1.2c0.8,0.6,1.1,1.7,0.7,2.6L21,29.2
		c-0.3,0.5-0.8,0.8-1.3,0.8h-7.4c-0.6,0-1.1-0.3-1.3-0.8l-0.5-0.9c-0.5-0.9-0.2-2,0.7-2.6l1.8-1.2v-4.2l-9.1,2.5
		c-0.5,0.1-0.9,0-1.3-0.3C2.2,22.2,2,21.8,2,21.3v-1.8c0-0.7,0.4-1.4,1-1.8l10-5.4V5c0-1.7,1.3-3,3-3s3,1.3,3,3v1.3
		c-0.8,0.6-1.5,1.3-2,2.2V5c0-0.6-0.4-1-1-1s-1,0.4-1,1v8.6l-11,6v1.1l11-3v7.8l-2.7,1.8l0.3,0.7h6.8l0.3-0.7L17,25.5v-7.8l11,3
		v-1.1l-2.2-1.2c0.7-0.3,1.3-0.7,1.9-1.2l1.2,0.7C29.6,18.2,30,18.9,30,19.6z M23,6c3.3,0,6,2.7,6,6s-2.7,6-6,6s-6-2.7-6-6
		S19.7,6,23,6z M20.6,10.4c0,0.4,0.1,0.7,0.2,0.9c0.1,0.3,0.3,0.5,0.5,0.6c0.2,0.2,0.5,0.3,0.8,0.5l0.7,0.3c0.2,0.1,0.4,0.2,0.6,0.3
		c0.1,0.1,0.2,0.2,0.3,0.3c0.1,0.1,0.1,0.2,0.1,0.3c0,0.2,0,0.3-0.1,0.4c-0.1,0.1-0.3,0.2-0.5,0.2c-0.2,0.1-0.5,0.1-0.8,0.1
		c-0.3,0-0.5,0-0.8-0.1c-0.3,0-0.5-0.1-0.7-0.2L20.8,14l0,0.2l-0.1,1.3l0,0.1l0.1,0c0.2,0.1,0.4,0.1,0.8,0.1c0.3,0,0.6,0.1,0.9,0.1
		v0.9v0.1h0.1h1.1h0.1v-0.1v-1c0.3-0.1,0.6-0.2,0.9-0.4c0.3-0.2,0.5-0.4,0.6-0.7c0.2-0.3,0.2-0.6,0.2-1c0-0.4-0.1-0.7-0.2-1
		c-0.2-0.3-0.4-0.5-0.6-0.7c-0.3-0.2-0.6-0.4-0.9-0.5L23.1,11c-0.1-0.1-0.3-0.1-0.4-0.2c-0.1-0.1-0.2-0.1-0.2-0.2
		c0-0.1-0.1-0.2-0.1-0.3c0-0.2,0.1-0.4,0.3-0.5c0.2-0.1,0.5-0.2,0.9-0.2c0.1,0,0.3,0,0.4,0c0.2,0,0.3,0,0.4,0.1
		c0.1,0,0.2,0.1,0.3,0.1l0.1,0l0-0.2L25,8.5l0-0.1l-0.1,0c-0.1,0-0.3-0.1-0.5-0.1c-0.2,0-0.4,0-0.6,0V7.5V7.4h-0.1h-1.1h-0.1v0.1
		v0.8c-0.3,0.1-0.6,0.2-0.9,0.4c-0.3,0.2-0.5,0.4-0.7,0.7C20.7,9.7,20.6,10,20.6,10.4z"/>
	<rect y="0" class="st8" width="32" height="32"/>
</g>
</svg>
