<?xml version="1.0" encoding="utf-8"?>
<!-- Generator: Adobe Illustrator 25.4.1, SVG Export Plug-In . SVG Version: 6.00 Build 0)  -->
<svg version="1.1" id="Layer_1" xmlns="http://www.w3.org/2000/svg" xmlns:xlink="http://www.w3.org/1999/xlink" x="0px" y="0px"
	 width="32px" height="32px" viewBox="0 0 32 32" style="enable-background:new 0 0 32 32;" xml:space="preserve">
<style type="text/css">
	.st0{fill:#FFFFFF;}
	.st1{fill:none;stroke:#999999;stroke-width:2.000000e-02;stroke-miterlimit:10;}
	.st2{fill:none;stroke:#FF00FF;stroke-width:4.000000e-02;stroke-miterlimit:10;}
	.st3{fill:none;stroke:#FF00FF;stroke-width:0.1;stroke-miterlimit:10;}
	.st4{opacity:0.3;fill:none;stroke:#000000;stroke-width:2;stroke-miterlimit:10;}
	.st5{opacity:0.3;}
	.st6{fill:#ED1C24;}
	.st7{fill:#39B54A;}
	.st8{fill:none;}
	.st9{fill:none;stroke:#FFFFFF;stroke-miterlimit:10;}
</style>
<g>
	<rect class="st8" width="32" height="32"/>
	<path d="M23.6,30c-0.1,0-0.1,0-0.2,0c-0.5-0.1-0.9-0.3-1.2-0.8l-5.4-9.5l-3.5,3.5l0.5,2.5c0.2,1.1-0.4,2.1-1.4,2.4l-1.1,0.4
		c-0.6,0.2-1.2,0-1.6-0.4l-5.9-5.9c-0.4-0.4-0.6-1-0.4-1.6l0.4-1.1c0.3-1,1.4-1.6,2.4-1.4l2.5,0.5l3.5-3.5L2.8,9.7
		C2.4,9.5,2.1,9.1,2,8.6c-0.1-0.5,0.1-1,0.4-1.3l1.4-1.4C4.4,5.3,5.2,5.1,6,5.3L18.4,9l6-6c1.3-1.3,3.4-1.3,4.6,0
		c0.6,0.6,1,1.4,1,2.3S29.7,7,29,7.6l-6,6L26.7,26c0.2,0.8,0,1.6-0.5,2.1l-1.4,1.4C24.5,29.8,24.1,30,23.6,30z M17.3,16.5l6.4,11.2
		l1-1c0,0,0-0.1,0-0.1l-4-13.6l6.8-6.8C27.9,5.9,28,5.6,28,5.3c0-0.3-0.1-0.7-0.4-0.9c-0.5-0.5-1.3-0.5-1.8,0L19,11.2l-13.6-4
		c0,0-0.1,0-0.1,0l-1,1l11.2,6.4l-6.1,6.1l-3.6-0.7c-0.1,0-0.1,0-0.2,0.1l-0.3,0.9l5.5,5.5l0.9-0.3c0.1,0,0.1-0.1,0.1-0.2l-0.7-3.6
		L17.3,16.5z"/>
</g>
</svg>
