<svg width="16" height="16" viewBox="0 0 16 16" fill="none" xmlns="http://www.w3.org/2000/svg">
<g clip-path="url(#clip0_7472_34687)">
<path d="M14.5 5.55L14.75 5.7C14.9 5.8 15 5.95 15 6.15V9.9C15 10.1 14.9 10.25 14.75 10.35L14.5 10.45C14.25 10.6 13.95 10.5 13.85 10.3L13 9H9.6L11.1 14.55C11.15 14.75 11 15 10.75 15H9.9C9.7 15 9.55 14.9 9.45 14.75L6.4 9H2C1.45 9 1 8.55 1 8C1 7.45 1.45 7 2 7H6.4L9.5 1.25C9.6 1.1 9.75 1 9.95 1H10.8C11.05 1 11.25 1.25 11.15 1.45L9.65 7H13.05L13.85 5.7C13.95 5.5 14.25 5.4 14.5 5.55Z" fill="#101419"/>
</g>
<defs>
<clipPath id="clip0_7472_34687">
<rect width="16" height="16" fill="white" transform="translate(0 16) rotate(-90)"/>
</clipPath>
</defs>
</svg>
