<?xml version="1.0" encoding="utf-8"?>
<!-- Generator: Adobe Illustrator 25.4.1, SVG Export Plug-In . SVG Version: 6.00 Build 0)  -->
<svg version="1.1" id="Layer_1" xmlns="http://www.w3.org/2000/svg" xmlns:xlink="http://www.w3.org/1999/xlink" x="0px" y="0px"
	 width="32px" height="32px" viewBox="0 0 32 32" style="enable-background:new 0 0 32 32;" xml:space="preserve">
<style type="text/css">
	.st0{fill:#FFFFFF;}
	.st1{fill:none;stroke:#999999;stroke-width:2.000000e-02;stroke-miterlimit:10;}
	.st2{fill:none;stroke:#FF00FF;stroke-width:4.000000e-02;stroke-miterlimit:10;}
	.st3{fill:none;stroke:#FF00FF;stroke-width:0.1;stroke-miterlimit:10;}
	.st4{opacity:0.3;fill:none;stroke:#000000;stroke-width:2;stroke-miterlimit:10;}
	.st5{opacity:0.3;}
	.st6{fill:#ED1C24;}
	.st7{fill:#39B54A;}
	.st8{fill:none;}
</style>
<g>
	<rect transform="matrix(-1 -4.490642e-11 4.490642e-11 -1 32 32)" class="st8" width="32" height="32"/>
	<rect transform="matrix(-1 -4.490642e-11 4.490642e-11 -1 32 32)" class="st8" width="32" height="32"/>
	<path d="M19.7,27.1l0.8-3.4L15,18.2L8.5,29.6c-0.3,0.5-1,0.6-1.4,0.2l-1.3-1.3c-0.3-0.3-0.4-0.7-0.3-1.1L9.8,13L2.7,5.9
		C1.8,5,1.8,3.6,2.7,2.7l0,0c0.9-0.9,2.3-0.9,3.2,0L13,9.8l14.3-4.3c0.4-0.1,0.8,0,1.1,0.3l1.3,1.3c0.4,0.4,0.3,1.1-0.2,1.4L18.2,15
		l5.5,5.5l3.4-0.8c0.6-0.1,1.2,0.2,1.4,0.8l0.2,0.7c0.1,0.4,0,0.8-0.3,1.1l-6,6c-0.3,0.3-0.7,0.4-1.1,0.3l-0.7-0.2
		C19.9,28.3,19.6,27.7,19.7,27.1z"/>
</g>
</svg>
