<?xml version="1.0" encoding="utf-8"?>
<!-- Generator: Adobe Illustrator 25.4.1, SVG Export Plug-In . SVG Version: 6.00 Build 0)  -->
<svg version="1.1" id="Layer_1" xmlns="http://www.w3.org/2000/svg" xmlns:xlink="http://www.w3.org/1999/xlink" x="0px" y="0px"
	 width="32px" height="32px" viewBox="0 0 32 32" style="enable-background:new 0 0 32 32;" xml:space="preserve">
<style type="text/css">
	.st0{fill:#FFFFFF;}
	.st1{fill:none;stroke:#999999;stroke-width:2.000000e-02;stroke-miterlimit:10;}
	.st2{fill:none;stroke:#FF00FF;stroke-width:4.000000e-02;stroke-miterlimit:10;}
	.st3{fill:none;stroke:#FF00FF;stroke-width:0.1;stroke-miterlimit:10;}
	.st4{opacity:0.3;fill:none;stroke:#000000;stroke-width:2;stroke-miterlimit:10;}
	.st5{opacity:0.3;}
	.st6{fill:#ED1C24;}
	.st7{fill:#39B54A;}
	.st8{fill:none;}
	.st9{fill:none;stroke:#FFFFFF;stroke-miterlimit:10;}
</style>
<g>
	<path d="M2.1,9.3c-0.2-0.3,0-0.7,0.3-0.8l1.9-0.4c0.3-0.1,0.7,0,0.9,0.3l2.5,2.3L14,9.4l-4-6.2c-0.2-0.3,0-0.7,0.3-0.8L12.3,2
		c0.3-0.1,0.7,0,1,0.3l6.6,5.9L25,7.1c1.3-0.3,2.7,0.1,3.7,1l0.9,0.8c0.6,0.5,0.4,1.6-0.4,1.7L8.7,14.9c-1.6,0.3-3.3-0.4-4.2-1.8
		L2.1,9.3z M2,30h8v-2H2V30z M12,30h8v-2h-8V30z M22,30h8v-2h-8V30z M16.8,26v-5.1l1.7,1.7l1.1-1.1L16,18l-3.5,3.5l1.1,1.1l1.7-1.7
		V26H16.8z"/>
	<rect class="st8" width="32" height="32"/>
</g>
</svg>
