<?xml version="1.0" encoding="utf-8"?>
<!-- Generator: Adobe Illustrator 25.4.1, SVG Export Plug-In . SVG Version: 6.00 Build 0)  -->
<svg version="1.1" id="Layer_1" xmlns="http://www.w3.org/2000/svg" xmlns:xlink="http://www.w3.org/1999/xlink" x="0px" y="0px"
	 width="32px" height="32px" viewBox="0 0 32 32" style="enable-background:new 0 0 32 32;" xml:space="preserve">
<style type="text/css">
	.st0{fill:#FFFFFF;}
	.st1{fill:none;stroke:#999999;stroke-width:2.000000e-02;stroke-miterlimit:10;}
	.st2{fill:none;stroke:#FF00FF;stroke-width:4.000000e-02;stroke-miterlimit:10;}
	.st3{fill:none;stroke:#FF00FF;stroke-width:0.1;stroke-miterlimit:10;}
	.st4{opacity:0.3;fill:none;stroke:#000000;stroke-width:2;stroke-miterlimit:10;}
	.st5{opacity:0.3;}
	.st6{fill:#ED1C24;}
	.st7{fill:#39B54A;}
	.st8{fill:none;}
</style>
<g>
	<path d="M30,28v2H2v-2H30z M3,5.8c-0.1-0.5,0.1-1,0.4-1.3C3.8,4.2,4.3,4,4.8,4.1l1.7,0.4C7.2,4.6,7.7,5.1,8,5.7l1,2.4l3.9,0.8
		L12,3.7c-0.1-0.5,0.1-1,0.5-1.3c0.4-0.3,0.9-0.5,1.3-0.4l1.7,0.4C16.2,2.5,16.7,3,17,3.6l3.1,6.9l4.8,1c1.5,0.3,2.8,1.4,3.5,2.8
		l0.4,0.9c0.3,0.7,0.2,1.5-0.2,2.1c-0.4,0.5-1,0.8-1.6,0.8c-0.1,0-0.3,0-0.4,0L6.8,13.8c-0.8-0.2-1.5-0.6-2.1-1.2
		c-0.6-0.6-0.9-1.3-1.1-2.1L3,5.8z M5.1,6.2l0.6,3.9c0.1,0.8,0.8,1.5,1.6,1.6L27,16l-0.4-0.9c-0.4-0.8-1.2-1.5-2.1-1.7l-5.8-1.2
		l-3.6-7.8l-1-0.2l1.1,7.3L7.5,9.8L6.1,6.5L5.1,6.2z M15.2,18v5.1l-1.7-1.7l-1.1,1.1L16,26l3.5-3.5l-1.1-1.1l-1.7,1.7V18H15.2z"/>
	<rect class="st8" width="32" height="32"/>
</g>
</svg>
