<?xml version="1.0" encoding="utf-8"?>
<!-- Generator: Adobe Illustrator 25.4.1, SVG Export Plug-In . SVG Version: 6.00 Build 0)  -->
<svg version="1.1" id="Layer_1" xmlns="http://www.w3.org/2000/svg" xmlns:xlink="http://www.w3.org/1999/xlink" x="0px" y="0px"
	 width="32px" height="32px" viewBox="0 0 32 32" style="enable-background:new 0 0 32 32;" xml:space="preserve">
<style type="text/css">
	.st0{fill:#FFFFFF;}
	.st1{fill:none;stroke:#999999;stroke-width:2.000000e-02;stroke-miterlimit:10;}
	.st2{fill:none;stroke:#FF00FF;stroke-width:4.000000e-02;stroke-miterlimit:10;}
	.st3{fill:none;stroke:#FF00FF;stroke-width:0.1;stroke-miterlimit:10;}
	.st4{opacity:0.3;fill:none;stroke:#000000;stroke-width:2;stroke-miterlimit:10;}
	.st5{opacity:0.3;}
	.st6{fill:#ED1C24;}
	.st7{fill:#39B54A;}
	.st8{fill:none;}
</style>
<g>
	<path d="M4.5,15.2l-2.4-3.8c-0.2-0.3,0-0.7,0.3-0.8l1.9-0.4c0.3-0.1,0.7,0,0.9,0.3l2.5,2.3l6.4-1.4l-4-6.2c-0.2-0.3,0-0.7,0.3-0.8
		L12.3,4c0.3-0.1,0.7,0,1,0.3l6.6,5.9L25,9.1c1.3-0.3,2.7,0.1,3.7,1l0.9,0.8c0.6,0.5,0.4,1.6-0.4,1.7L8.7,16.9
		C7.1,17.3,5.4,16.6,4.5,15.2z M30,26H2v2h28V26z"/>
	<rect class="st8" width="32" height="32"/>
</g>
</svg>
