<svg width="16" height="16" viewBox="0 0 16 16" fill="none" xmlns="http://www.w3.org/2000/svg">
<g clip-path="url(#clip0_7472_34695)">
<path d="M10.45 1.5L10.3 1.25C10.2 1.1 10.05 1 9.85 1H6.1C5.9 1 5.75 1.1 5.65 1.25L5.55 1.5C5.4 1.75 5.5 2.05 5.7 2.15L7 3V6.4L1.45 4.9C1.25 4.85 1 5 1 5.25V6.1C1 6.3 1.1 6.45 1.25 6.55L7 9.6V14C7 14.55 7.45 15 8 15C8.55 15 9 14.55 9 14V9.6L14.75 6.5C14.9 6.4 15 6.25 15 6.05V5.2C15 4.95 14.75 4.75 14.55 4.85L9 6.35V2.95L10.3 2.15C10.5 2.05 10.6 1.75 10.45 1.5Z" fill="#101419"/>
</g>
<defs>
<clipPath id="clip0_7472_34695">
<rect width="16" height="16" fill="white" transform="matrix(1 0 0 -1 0 16)"/>
</clipPath>
</defs>
</svg>
