<svg width="16" height="16" viewBox="0 0 16 16" fill="none" xmlns="http://www.w3.org/2000/svg">
<g clip-path="url(#clip0_7472_34674)">
<path d="M1 9.85V6.15C1 5.85 1.15 5.6 1.4 5.5L1.85 5.25C2.3 5 2.85 5.15 3.15 5.6L3.75 6.5H5.85L4.6 1.95C4.55 1.7 4.6 1.5 4.75 1.3C4.9 1.1 5.1 1 5.35 1H6.25C6.6 1 6.95 1.2 7.15 1.5L9.85 6.5H13.5C14.35 6.5 15 7.15 15 8C15 8.85 14.35 9.5 13.5 9.5H9.8L7.1 14.5C6.95 14.8 6.6 15 6.2 15H5.3C5.05 15 4.85 14.9 4.7 14.7C4.55 14.5 4.5 14.3 4.55 14.05L5.85 9.5H3.75L3.15 10.4C2.85 10.8 2.3 10.95 1.85 10.75L1.4 10.5C1.15 10.4 1 10.15 1 9.85ZM2 6.3V9.7L2.35 9.85L3.25 8.5H7.15L5.65 14H6.2L9.2 8.5H13.5C13.8 8.5 14 8.3 14 8C14 7.7 13.8 7.5 13.5 7.5H9.2L6.2 2H5.65L7.15 7.5H3.25L2.35 6.15L2 6.3Z" fill="#101419"/>
</g>
<defs>
<clipPath id="clip0_7472_34674">
<rect width="16" height="16" fill="white" transform="translate(16) rotate(90)"/>
</clipPath>
</defs>
</svg>
