<?xml version="1.0" encoding="utf-8"?>
<!-- Generator: Adobe Illustrator 25.4.1, SVG Export Plug-In . SVG Version: 6.00 Build 0)  -->
<svg version="1.1" id="Layer_1" xmlns="http://www.w3.org/2000/svg" xmlns:xlink="http://www.w3.org/1999/xlink" x="0px" y="0px"
	 width="32px" height="32px" viewBox="0 0 32 32" style="enable-background:new 0 0 32 32;" xml:space="preserve">
<style type="text/css">
	.st0{fill:#FFFFFF;}
	.st1{fill:none;stroke:#999999;stroke-width:2.000000e-02;stroke-miterlimit:10;}
	.st2{fill:none;stroke:#FF00FF;stroke-width:4.000000e-02;stroke-miterlimit:10;}
	.st3{fill:none;stroke:#FF00FF;stroke-width:0.1;stroke-miterlimit:10;}
	.st4{opacity:0.3;fill:none;stroke:#000000;stroke-width:2;stroke-miterlimit:10;}
	.st5{opacity:0.3;}
	.st6{fill:#ED1C24;}
	.st7{fill:#39B54A;}
	.st8{fill:none;}
</style>
<g>
	<path d="M30,28v2H2v-2H30z M2.2,10.2C2,9.8,1.9,9.3,2.1,8.8C2.3,8.4,2.7,8,3.2,7.9l1.7-0.4c0.7-0.1,1.3,0.1,1.8,0.5l1.9,1.8L12.4,9
		L9.7,4.7C9.4,4.3,9.3,3.8,9.5,3.3c0.2-0.5,0.6-0.8,1.1-0.9L12.3,2c0.6-0.1,1.3,0.1,1.8,0.5l5.6,4.9l4.5-1c1.5-0.3,3.2,0.1,4.3,1.1
		l0.8,0.7c0.6,0.5,0.8,1.3,0.6,2c-0.2,0.7-0.8,1.3-1.5,1.5L9,15.9C8.7,16,8.4,16,8.1,16c-1.3,0-2.6-0.7-3.4-1.9L2.2,10.2z M4.3,9.7
		l2.1,3.3c0.4,0.7,1.3,1.1,2.1,0.9L28,9.8l-0.8-0.7c-0.7-0.6-1.7-0.9-2.6-0.7l-5.5,1.2L12.8,4l-1,0.2l4,6.2L8,12L5.3,9.5L4.3,9.7z
		 M16.8,26v-5.1l1.7,1.7l1.1-1.1L16,18l-3.5,3.5l1.1,1.1l1.7-1.7V26H16.8z"/>
	<rect class="st8" width="32" height="32"/>
</g>
</svg>
