<?xml version="1.0" encoding="utf-8"?>
<!-- Generator: Adobe Illustrator 25.4.1, SVG Export Plug-In . SVG Version: 6.00 Build 0)  -->
<svg version="1.1" id="Layer_1" xmlns="http://www.w3.org/2000/svg" xmlns:xlink="http://www.w3.org/1999/xlink" x="0px" y="0px"
	 width="32px" height="32px" viewBox="0 0 32 32" style="enable-background:new 0 0 32 32;" xml:space="preserve">
<style type="text/css">
	.st0{fill:#FFFFFF;}
	.st1{fill:none;stroke:#999999;stroke-width:2.000000e-02;stroke-miterlimit:10;}
	.st2{fill:none;stroke:#FF00FF;stroke-width:4.000000e-02;stroke-miterlimit:10;}
	.st3{fill:none;stroke:#FF00FF;stroke-width:0.1;stroke-miterlimit:10;}
	.st4{opacity:0.3;fill:none;stroke:#000000;stroke-width:2;stroke-miterlimit:10;}
	.st5{opacity:0.3;}
	.st6{fill:#ED1C24;}
	.st7{fill:#39B54A;}
	.st8{fill:none;}
	.st9{fill:none;stroke:#FFFFFF;stroke-miterlimit:10;}
</style>
<g>
	<rect class="st8" width="32" height="32"/>
	<rect class="st8" width="32" height="32"/>
	<path d="M11.5,28.4l-0.7,0.2c-0.4,0.1-0.8,0-1.1-0.3l-6-6c-0.3-0.3-0.4-0.7-0.3-1.1l0.2-0.7c0.2-0.6,0.8-1,1.4-0.8l3.4,0.8l5.5-5.5
		L2.4,8.4c-0.5-0.3-0.6-1-0.2-1.4l1.3-1.3c0.3-0.3,0.7-0.4,1.1-0.3L19,9.8l7.1-7.1c0.9-0.9,2.3-0.9,3.2,0l0,0c0.9,0.9,0.9,2.3,0,3.2
		L22.2,13l4.3,14.3c0.1,0.4,0,0.8-0.3,1.1l-1.3,1.3c-0.4,0.4-1.1,0.3-1.4-0.2L17,18.2l-5.5,5.5l0.8,3.4
		C12.4,27.7,12.1,28.3,11.5,28.4z"/>
</g>
</svg>
