<svg width="16" height="16" viewBox="0 0 16 16" fill="none" xmlns="http://www.w3.org/2000/svg">
<g clip-path="url(#clip0_7472_34688)">
<path d="M10.45 14.5L10.3 14.75C10.2 14.9 10.05 15 9.85 15H6.1C5.9 15 5.75 14.9 5.65 14.75L5.55 14.5C5.4 14.25 5.5 13.95 5.7 13.85L7 13V9.6L1.45 11.1C1.25 11.15 1 11 1 10.75V9.9C1 9.7 1.1 9.55 1.25 9.45L7 6.4V2C7 1.45 7.45 1 8 1C8.55 1 9 1.45 9 2V6.4L14.75 9.5C14.9 9.6 15 9.75 15 9.95V10.8C15 11.05 14.75 11.25 14.55 11.15L9 9.65V13.05L10.3 13.85C10.5 13.95 10.6 14.25 10.45 14.5Z" fill="#101419"/>
</g>
<defs>
<clipPath id="clip0_7472_34688">
<rect width="16" height="16" fill="white"/>
</clipPath>
</defs>
</svg>
