<svg width="16" height="16" viewBox="0 0 16 16" fill="none" xmlns="http://www.w3.org/2000/svg">
<g clip-path="url(#clip0_7472_34285)">
<path d="M15 9.8V10.7C15 10.95 14.9 11.15 14.7 11.3C14.5 11.45 14.3 11.5 14.05 11.45L9.5 10.15V12.25L10.4 12.85C10.8 13.15 10.95 13.7 10.75 14.15L10.5 14.6C10.35 14.85 10.1 15 9.85 15H6.15C5.85 15 5.6 14.85 5.5 14.6L5.25 14.15C5 13.7 5.15 13.15 5.6 12.85L6.5 12.25V10.15L1.95 11.4C1.7 11.45 1.5 11.4 1.3 11.25C1.1 11.1 1 10.9 1 10.65V9.75C1 9.4 1.2 9.05 1.5 8.85L6.5 6.15V2.5C6.5 1.65 7.15 1 8 1C8.7 1 9.3 1.5 9.45 2.15C9.3 2.25 9.15 2.4 9 2.5C8.8 2.7 8.6 2.95 8.5 3.15V2.5C8.5 2.2 8.3 2 8 2C7.7 2 7.5 2.2 7.5 2.5V6.8L2 9.8V10.35L6.8 9.05L7.5 9.75V12.8L6.15 13.7L6.3 14.05H9.7L9.85 13.7L8.5 12.75V9.4L8.95 8.95L14 10.35V9.8L11.6 8.5C12.1 8.5 12.6 8.35 13.05 8.15L14.5 8.95C14.8 9.1 15 9.45 15 9.8ZM14.5 5C14.5 5.8 14.2 6.55 13.6 7.1C13.05 7.7 12.3 8 11.5 8C10.85 8 10.25 7.8 9.75 7.45L7.85 9.35L7.15 8.65L9.05 6.75C8.7 6.25 8.5 5.65 8.5 5C8.5 4.2 8.8 3.45 9.4 2.9C9.95 2.3 10.7 2 11.5 2C12.3 2 13.05 2.3 13.6 2.9C14.2 3.45 14.5 4.2 14.5 5ZM13.5 5C13.5 4.45 13.3 3.95 12.9 3.6C12.55 3.2 12.05 3 11.5 3C10.95 3 10.45 3.2 10.1 3.6C9.7 3.95 9.5 4.45 9.5 5C9.5 5.55 9.7 6.05 10.1 6.4C10.85 7.15 12.15 7.15 12.95 6.4C13.3 6.05 13.5 5.55 13.5 5Z" fill="#101419"/>
</g>
<defs>
<clipPath id="clip0_7472_34285">
<rect width="16" height="16" fill="white"/>
</clipPath>
</defs>
</svg>
