<?xml version="1.0" encoding="utf-8"?>
<!-- Generator: Adobe Illustrator 25.4.1, SVG Export Plug-In . SVG Version: 6.00 Build 0)  -->
<svg version="1.1" id="Layer_1" xmlns="http://www.w3.org/2000/svg" xmlns:xlink="http://www.w3.org/1999/xlink" x="0px" y="0px"
	 width="32px" height="32px" viewBox="0 0 32 32" style="enable-background:new 0 0 32 32;" xml:space="preserve">
<style type="text/css">
	.st0{fill:#FFFFFF;}
	.st1{fill:none;stroke:#999999;stroke-width:2.000000e-02;stroke-miterlimit:10;}
	.st2{fill:none;stroke:#FF00FF;stroke-width:4.000000e-02;stroke-miterlimit:10;}
	.st3{fill:none;stroke:#FF00FF;stroke-width:0.1;stroke-miterlimit:10;}
	.st4{opacity:0.3;fill:none;stroke:#000000;stroke-width:2;stroke-miterlimit:10;}
	.st5{opacity:0.3;}
	.st6{fill:#ED1C24;}
	.st7{fill:#39B54A;}
	.st8{fill:none;}
</style>
<g>
	<rect transform="matrix(-1 -4.490642e-11 4.490642e-11 -1 32 32)" class="st8" width="32" height="32"/>
	<path d="M7.3,29.5l-1.4-1.4c-0.6-0.6-0.8-1.4-0.5-2.1L9,13.6l-6-6C2.3,7,2,6.1,2,5.3S2.3,3.6,3,3c1.3-1.3,3.3-1.3,4.6,0l6,6L26,5.3
		c0.8-0.2,1.6,0,2.1,0.5l1.4,1.4c0.3,0.3,0.5,0.8,0.4,1.3c-0.1,0.5-0.3,0.9-0.8,1.2l-9.5,5.4l3.5,3.5l2.5-0.5
		c1.1-0.2,2.1,0.4,2.4,1.4l0.4,1.1c0.2,0.6,0,1.2-0.4,1.6l-5.9,5.9c-0.4,0.4-1,0.6-1.6,0.4l-1.1-0.4c-1-0.3-1.6-1.4-1.4-2.4l0.5-2.5
		l-3.5-3.5l-5.4,9.5c-0.2,0.4-0.7,0.7-1.2,0.8c-0.1,0-0.1,0-0.2,0C7.9,30,7.5,29.8,7.3,29.5z M20.8,22.6l-0.7,3.6
		c0,0.1,0,0.1,0.1,0.2l0.9,0.3l5.5-5.5l-0.3-0.9c0-0.1-0.1-0.1-0.2-0.1l-3.6,0.7l-6.1-6.1l11.2-6.4l-1-1c0,0-0.1,0-0.1,0l-13.6,4
		L6.2,4.4c-0.5-0.5-1.3-0.5-1.8,0C4.1,4.6,4,4.9,4,5.3c0,0.3,0.1,0.7,0.4,0.9l6.8,6.8l-4,13.6c0,0,0,0.1,0,0.1l1,1l6.4-11.2
		L20.8,22.6z"/>
</g>
</svg>
