<svg width="16" height="16" viewBox="0 0 16 16" fill="none" xmlns="http://www.w3.org/2000/svg">
<g clip-path="url(#clip0_7472_34675)">
<path d="M15 6.15V9.85C15 10.15 14.85 10.4 14.6 10.5L14.15 10.75C13.7 11 13.15 10.85 12.85 10.4L12.25 9.5H10.15L11.4 14.05C11.45 14.3 11.4 14.5 11.25 14.7C11.1 14.9 10.9 15 10.65 15H9.75C9.4 15 9.05 14.8 8.85 14.5L6.15 9.5H2.5C1.65 9.5 1 8.85 1 8C1 7.15 1.65 6.5 2.5 6.5H6.2L8.9 1.5C9.05 1.2 9.4 1 9.8 1H10.7C10.95 1 11.15 1.1 11.3 1.3C11.45 1.5 11.5 1.7 11.45 1.95L10.15 6.5H12.25L12.85 5.6C13.15 5.2 13.7 5.05 14.15 5.25L14.6 5.5C14.85 5.6 15 5.85 15 6.15ZM14 9.7V6.3L13.65 6.15L12.75 7.5H8.85L10.35 2H9.8L6.8 7.5H2.5C2.2 7.5 2 7.7 2 8C2 8.3 2.2 8.5 2.5 8.5H6.8L9.8 14H10.35L8.85 8.5H12.75L13.65 9.85L14 9.7Z" fill="#101419"/>
</g>
<defs>
<clipPath id="clip0_7472_34675">
<rect width="16" height="16" fill="white" transform="translate(0 16) rotate(-90)"/>
</clipPath>
</defs>
</svg>
