<svg width="16" height="16" viewBox="0 0 16 16" fill="none" xmlns="http://www.w3.org/2000/svg">
<g clip-path="url(#clip0_7472_34277)">
<path d="M11.5 8C9.85 8 8.5 6.65 8.5 5C8.5 3.35 9.85 2 11.5 2C13.15 2 14.5 3.35 14.5 5C14.5 6.65 13.15 8 11.5 8ZM11.5 3C10.4 3 9.5 3.9 9.5 5C9.5 6.1 10.4 7 11.5 7C12.6 7 13.5 6.1 13.5 5C13.5 3.9 12.6 3 11.5 3ZM14.5 8.9L13.05 8.1C12.6 8.3 12.15 8.45 11.6 8.45L14 9.75V10.3L8.5 8.8V12.7L9.85 13.6L9.7 14H6.3L6.15 13.65L7.5 12.75V8.85L2 10.35V9.8L7.5 6.8V2.5C7.5 2.2 7.7 2 8 2C8.3 2 8.5 2.2 8.5 2.5V3.2C8.75 2.8 9.05 2.45 9.45 2.15C9.3 1.5 8.7 1 8 1C7.15 1 6.5 1.65 6.5 2.5V6.2L1.5 8.9C1.2 9.05 1 9.4 1 9.8V10.7C1 10.95 1.1 11.15 1.3 11.3C1.5 11.45 1.75 11.5 1.95 11.45L6.5 10.2V12.3L5.6 12.9C5.2 13.2 5.05 13.75 5.25 14.2L5.5 14.65C5.65 14.9 5.9 15.05 6.15 15.05H9.85C10.15 15.05 10.4 14.9 10.5 14.65L10.75 14.2C11 13.75 10.85 13.2 10.4 12.9L9.5 12.25V10.15L14.05 11.4C14.3 11.45 14.5 11.4 14.7 11.25C14.9 11.1 15 10.9 15 10.65V9.75C15 9.45 14.8 9.1 14.5 8.9ZM12.75 5.75L11.85 4.85V3.5H11.1V5.15L12.2 6.25L12.75 5.75Z" fill="#101419"/>
</g>
<defs>
<clipPath id="clip0_7472_34277">
<rect width="16" height="16" fill="white"/>
</clipPath>
</defs>
</svg>
