<?xml version="1.0" encoding="utf-8"?>
<!-- Generator: Adobe Illustrator 25.4.1, SVG Export Plug-In . SVG Version: 6.00 Build 0)  -->
<svg version="1.1" id="Layer_1" xmlns="http://www.w3.org/2000/svg" xmlns:xlink="http://www.w3.org/1999/xlink" x="0px" y="0px"
	 width="32px" height="32px" viewBox="0 0 32 32" style="enable-background:new 0 0 32 32;" xml:space="preserve">
<style type="text/css">
	.st0{fill:#FFFFFF;}
	.st1{fill:none;stroke:#999999;stroke-width:2.000000e-02;stroke-miterlimit:10;}
	.st2{fill:none;stroke:#FF00FF;stroke-width:4.000000e-02;stroke-miterlimit:10;}
	.st3{fill:none;stroke:#FF00FF;stroke-width:0.1;stroke-miterlimit:10;}
	.st4{opacity:0.3;fill:none;stroke:#000000;stroke-width:2;stroke-miterlimit:10;}
	.st5{opacity:0.3;}
	.st6{fill:#ED1C24;}
	.st7{fill:#39B54A;}
	.st8{fill:none;}
	.st9{fill:none;stroke:#FFFFFF;stroke-miterlimit:10;}
</style>
<g>
	<path d="M10,28H2v-2h8V28z M20,26h-8v2h8V26z M30,26h-8v2h8V26z M29.9,12.3c-0.2,0.7-0.8,1.3-1.5,1.5L9,17.9C8.7,18,8.4,18,8.1,18
		c-1.3,0-2.6-0.7-3.4-1.9l-2.5-3.9c-0.3-0.4-0.3-0.9-0.1-1.4c0.2-0.5,0.6-0.8,1.1-0.9l1.7-0.4c0.7-0.1,1.3,0.1,1.8,0.5l1.9,1.8
		l3.9-0.8L9.7,6.7C9.4,6.3,9.3,5.8,9.5,5.3c0.2-0.5,0.6-0.8,1.1-0.9L12.3,4c0.7-0.1,1.3,0.1,1.8,0.5l5.6,4.9l4.5-1
		c1.5-0.3,3.2,0.1,4.3,1.1l0.8,0.7C29.9,10.8,30.1,11.6,29.9,12.3z M28,11.8l-0.8-0.7c-0.7-0.6-1.7-0.9-2.6-0.7l-5.5,1.2L12.8,6
		l-1,0.2l4,6.2L8,14l-2.6-2.5l-1,0.2l2.1,3.3c0.4,0.7,1.3,1.1,2.1,0.9L28,11.8z"/>
	<rect class="st8" width="32" height="32"/>
</g>
</svg>
