<?xml version="1.0" encoding="utf-8"?>
<!-- Generator: Adobe Illustrator 25.4.1, SVG Export Plug-In . SVG Version: 6.00 Build 0)  -->
<svg version="1.1" id="Layer_1" xmlns="http://www.w3.org/2000/svg" xmlns:xlink="http://www.w3.org/1999/xlink" x="0px" y="0px"
	 width="32px" height="32px" viewBox="0 0 32 32" style="enable-background:new 0 0 32 32;" xml:space="preserve">
<style type="text/css">
	.st0{fill:#FFFFFF;}
	.st1{fill:none;stroke:#999999;stroke-width:2.000000e-02;stroke-miterlimit:10;}
	.st2{fill:none;stroke:#FF00FF;stroke-width:4.000000e-02;stroke-miterlimit:10;}
	.st3{fill:none;stroke:#FF00FF;stroke-width:0.1;stroke-miterlimit:10;}
	.st4{opacity:0.3;fill:none;stroke:#000000;stroke-width:2;stroke-miterlimit:10;}
	.st5{opacity:0.3;}
	.st6{fill:#ED1C24;}
	.st7{fill:#39B54A;}
	.st8{fill:none;}
</style>
<g>
	<path d="M30,28v2H2v-2H30z M6.8,13l21,4.5c0.8,0.2,1.5-0.7,1.1-1.4l-0.5-1.2c-0.6-1.3-1.7-2.2-3.1-2.4L20,11.3l-3.7-8.2
		c-0.1-0.3-0.4-0.6-0.8-0.7L13.6,2c-0.3-0.1-0.6,0.2-0.6,0.6l1.1,7.5L7.6,8.7L6.3,5.5C6.2,5.2,5.9,5,5.6,4.9l-2-0.4
		C3.3,4.4,3,4.7,3,5l0.7,4.7C4,11.3,5.2,12.7,6.8,13z M15.2,18v5.1l-1.7-1.7l-1.1,1.1L16,26l3.5-3.5l-1.1-1.1l-1.7,1.7V18H15.2z"/>
	<rect class="st8" width="32" height="32"/>
</g>
</svg>
