<svg width="16" height="16" viewBox="0 0 16 16" fill="none" xmlns="http://www.w3.org/2000/svg">
<g clip-path="url(#clip0_7472_34682)">
<path d="M9.85 1H6.15C5.85 1 5.6 1.15 5.5 1.4L5.25 1.85C5 2.3 5.15 2.85 5.6 3.15L6.5 3.75V5.85L1.95 4.6C1.7 4.55 1.5 4.6 1.3 4.75C1.1 4.9 1 5.1 1 5.35V6.25C1 6.6 1.2 6.95 1.5 7.15L6.5 9.85V13.5C6.5 14.35 7.15 15 8 15C8.85 15 9.5 14.35 9.5 13.5V9.8L14.5 7.1C14.8 6.95 15 6.6 15 6.2V5.3C15 5.05 14.9 4.85 14.7 4.7C14.5 4.55 14.3 4.5 14.05 4.55L9.5 5.85V3.75L10.4 3.15C10.8 2.85 10.95 2.3 10.75 1.85L10.5 1.4C10.4 1.15 10.15 1 9.85 1ZM6.3 2H9.7L9.85 2.35L8.5 3.25V7.15L14 5.65V6.2L8.5 9.2V13.5C8.5 13.8 8.3 14 8 14C7.7 14 7.5 13.8 7.5 13.5V9.2L2 6.2V5.65L7.5 7.15V3.25L6.15 2.35L6.3 2Z" fill="#101419"/>
</g>
<defs>
<clipPath id="clip0_7472_34682">
<rect width="16" height="16" fill="white" transform="matrix(1 0 0 -1 0 16)"/>
</clipPath>
</defs>
</svg>
