<svg width="16" height="16" viewBox="0 0 16 16" fill="none" xmlns="http://www.w3.org/2000/svg">
<g clip-path="url(#clip0_7472_34677)">
<path d="M9.85 15H6.15C5.85 15 5.6 14.85 5.5 14.6L5.25 14.15C5 13.7 5.15 13.15 5.6 12.85L6.5 12.25V10.15L1.95 11.4C1.7 11.45 1.5 11.4 1.3 11.25C1.1 11.1 1 10.9 1 10.65V9.75C1 9.4 1.2 9.05 1.5 8.85L6.5 6.15V2.5C6.5 1.65 7.15 1 8 1C8.85 1 9.5 1.65 9.5 2.5V6.2L14.5 8.9C14.8 9.05 15 9.4 15 9.8V10.7C15 10.95 14.9 11.15 14.7 11.3C14.5 11.45 14.3 11.5 14.05 11.45L9.5 10.15V12.25L10.4 12.85C10.8 13.15 10.95 13.7 10.75 14.15L10.5 14.6C10.4 14.85 10.15 15 9.85 15ZM6.3 14H9.7L9.85 13.65L8.5 12.75V8.85L14 10.35V9.8L8.5 6.8V2.5C8.5 2.2 8.3 2 8 2C7.7 2 7.5 2.2 7.5 2.5V6.8L2 9.8V10.35L7.5 8.85V12.75L6.15 13.65L6.3 14Z" fill="#101419"/>
</g>
<defs>
<clipPath id="clip0_7472_34677">
<rect width="16" height="16" fill="white"/>
</clipPath>
</defs>
</svg>
