<?xml version="1.0" encoding="utf-8"?>
<!-- Generator: Adobe Illustrator 25.4.1, SVG Export Plug-In . SVG Version: 6.00 Build 0)  -->
<svg version="1.1" id="Layer_1" xmlns="http://www.w3.org/2000/svg" xmlns:xlink="http://www.w3.org/1999/xlink" x="0px" y="0px"
	 width="32px" height="32px" viewBox="0 0 32 32" style="enable-background:new 0 0 32 32;" xml:space="preserve">
<style type="text/css">
	.st0{fill:#FFFFFF;}
	.st1{fill:none;stroke:#999999;stroke-width:2.000000e-02;stroke-miterlimit:10;}
	.st2{fill:none;stroke:#FF00FF;stroke-width:4.000000e-02;stroke-miterlimit:10;}
	.st3{fill:none;stroke:#FF00FF;stroke-width:0.1;stroke-miterlimit:10;}
	.st4{opacity:0.3;fill:none;stroke:#000000;stroke-width:2;stroke-miterlimit:10;}
	.st5{opacity:0.3;}
	.st6{fill:#ED1C24;}
	.st7{fill:#39B54A;}
	.st8{fill:none;}
</style>
<g>
	<path d="M25,17h2l0,11c0,1.1-0.9,2-2,2H7c-1.1,0-2-0.9-2-2V17h2v11h18V17z M20,27v-8c0-1.1-0.9-2-2-2h-4c-1.1,0-2,0.9-2,2v8h2v-8h4
		v8H20z M29.5,13.4L17.4,2.5c-0.8-0.7-2-0.7-2.7,0L2.5,13.4C2,13.8,1.9,14.5,2.1,15c0.2,0.6,0.8,1,1.4,1H8v-2H4.8L16,4l11.2,10H24v2
		h4.5c0.6,0,1.2-0.4,1.4-1C30.1,14.5,30,13.8,29.5,13.4z"/>
	<rect class="st8" width="32" height="32"/>
</g>
</svg>
