<?xml version="1.0" encoding="utf-8"?>
<!-- Generator: Adobe Illustrator 25.4.1, SVG Export Plug-In . SVG Version: 6.00 Build 0)  -->
<svg version="1.1" id="Layer_1" xmlns="http://www.w3.org/2000/svg" xmlns:xlink="http://www.w3.org/1999/xlink" x="0px" y="0px"
	 width="32px" height="32px" viewBox="0 0 32 32" style="enable-background:new 0 0 32 32;" xml:space="preserve">
<style type="text/css">
	.st0{fill:#FFFFFF;}
	.st1{fill:none;stroke:#999999;stroke-width:2.000000e-02;stroke-miterlimit:10;}
	.st2{fill:none;stroke:#FF00FF;stroke-width:4.000000e-02;stroke-miterlimit:10;}
	.st3{fill:none;stroke:#FF00FF;stroke-width:0.1;stroke-miterlimit:10;}
	.st4{opacity:0.3;fill:none;stroke:#000000;stroke-width:2;stroke-miterlimit:10;}
	.st5{opacity:0.3;}
	.st6{fill:#ED1C24;}
	.st7{fill:#39B54A;}
	.st8{fill:none;}
</style>
<g>
	<rect class="st8" width="32" height="32"/>
	<path d="M2,21.5h28V27h-2v-3H4v3H2V21.5z M27,14H5c-1.7,0-3,1.4-3,3v3.5h28V17C30,15.4,28.7,14,27,14z M9,9c-1.1,0-2,0.9-2,2v1h8
		v-1c0-1.1-0.9-2-2-2H9z M19,9c-1.1,0-2,0.9-2,2v1h8v-1c0-1.1-0.9-2-2-2H19z M5,11c0-2.2,1.8-4,4-4h14c2.2,0,4,1.8,4,4v1
		c0.7,0,1.4,0.2,2,0.4V11c0-3.3-2.7-6-6-6H9c-3.3,0-6,2.7-6,6v1.4C3.6,12.2,4.3,12,5,12V11z"/>
</g>
</svg>
