<?xml version="1.0" encoding="utf-8"?>
<!-- Generator: Adobe Illustrator 25.4.1, SVG Export Plug-In . SVG Version: 6.00 Build 0)  -->
<svg version="1.1" id="Layer_1" xmlns="http://www.w3.org/2000/svg" xmlns:xlink="http://www.w3.org/1999/xlink" x="0px" y="0px"
	 width="32px" height="32px" viewBox="0 0 32 32" style="enable-background:new 0 0 32 32;" xml:space="preserve">
<style type="text/css">
	.st0{fill:#FFFFFF;}
	.st1{fill:none;stroke:#999999;stroke-width:2.000000e-02;stroke-miterlimit:10;}
	.st2{fill:none;stroke:#FF00FF;stroke-width:4.000000e-02;stroke-miterlimit:10;}
	.st3{fill:none;stroke:#FF00FF;stroke-width:0.1;stroke-miterlimit:10;}
	.st4{opacity:0.3;fill:none;stroke:#000000;stroke-width:2;stroke-miterlimit:10;}
	.st5{opacity:0.3;}
	.st6{fill:#ED1C24;}
	.st7{fill:#39B54A;}
	.st8{fill:none;}
	.st9{fill:none;stroke:#FFFFFF;stroke-miterlimit:10;}
</style>
<g>
	<path d="M5,13c-0.7,0-1.4,0.2-2,0.6V11c0-3.3,2.7-6,6-6h14c3.3,0,6,2.7,6,6v2.6c-0.6-0.3-1.3-0.6-2-0.6v-2c0-2.2-1.8-4-4-4H9
		c-2.2,0-4,1.8-4,4V13z M30,17v5v1v4h-2v-3H4v3H2v-4v-1v-5c0-1.7,1.3-3,3-3h22C28.7,14,30,15.3,30,17z M28,17c0-0.6-0.4-1-1-1H5
		c-0.6,0-1,0.4-1,1v5h24V17z M15,13v-2c0-1.1-0.9-2-2-2H9c-1.1,0-2,0.9-2,2v2h2v-2h4v2H15z M25,13v-2c0-1.1-0.9-2-2-2h-4
		c-1.1,0-2,0.9-2,2v2h2v-2h4v2H25z"/>
	<rect x="0" class="st8" width="32" height="32"/>
</g>
</svg>
