<?xml version="1.0" encoding="utf-8"?>
<!-- Generator: Adobe Illustrator 25.4.1, SVG Export Plug-In . SVG Version: 6.00 Build 0)  -->
<svg version="1.1" id="Layer_1" xmlns="http://www.w3.org/2000/svg" xmlns:xlink="http://www.w3.org/1999/xlink" x="0px" y="0px"
	 width="32px" height="32px" viewBox="0 0 32 32" style="enable-background:new 0 0 32 32;" xml:space="preserve">
<style type="text/css">
	.st0{fill:#FFFFFF;}
	.st1{fill:none;stroke:#999999;stroke-width:2.000000e-02;stroke-miterlimit:10;}
	.st2{fill:none;stroke:#FF00FF;stroke-width:4.000000e-02;stroke-miterlimit:10;}
	.st3{fill:none;stroke:#FF00FF;stroke-width:0.1;stroke-miterlimit:10;}
	.st4{opacity:0.3;fill:none;stroke:#000000;stroke-width:2;stroke-miterlimit:10;}
	.st5{opacity:0.3;}
	.st6{fill:#ED1C24;}
	.st7{fill:#39B54A;}
	.st8{fill:none;}
	.st9{fill:none;stroke:#FFFFFF;stroke-miterlimit:10;}
</style>
<g>
	<rect y="0" class="st8" width="32" height="32"/>
	<path d="M21,6H11V4h10V6z M29.9,21l-0.2,1c-0.2,1.1-0.9,2.1-1.7,2.8V29h-3v-3c-0.1,0-0.1,0-0.2,0H7.2c-0.1,0-0.1,0-0.2,0v3H4v-4.2
		c-0.9-0.7-1.5-1.7-1.7-2.8l-0.2-1c-0.1-0.7-0.1-1.3,0-2l0.6-2.7c0.2-0.9,0.7-1.6,1.5-2l1-3.6C5.8,8.5,7.8,7,10,7h12
		c2.2,0,4.2,1.5,4.8,3.6l1,3.6c0.8,0.4,1.4,1.2,1.6,2.1l0.6,2.7C30,19.7,30,20.3,29.9,21z M6.3,13.8l5.6-0.5c2.7-0.2,5.5-0.2,8.2,0
		l5.5,0.5l-0.7-2.6C24.5,9.9,23.3,9,21.9,9H10c-1.3,0-2.5,0.9-2.9,2.2L6.3,13.8z M9,18H4.3l-0.3,1.4C4,19.6,4,19.8,4,20h5V18z
		 M21,18H11v3h10V18z M28,20c0-0.2,0-0.4-0.1-0.6L27.7,18H23v2H28z"/>
</g>
</svg>
