<?xml version="1.0" encoding="utf-8"?>
<!-- Generator: Adobe Illustrator 25.4.1, SVG Export Plug-In . SVG Version: 6.00 Build 0)  -->
<svg version="1.1" id="Layer_1" xmlns="http://www.w3.org/2000/svg" xmlns:xlink="http://www.w3.org/1999/xlink" x="0px" y="0px"
	 width="32px" height="32px" viewBox="0 0 32 32" style="enable-background:new 0 0 32 32;" xml:space="preserve">
<style type="text/css">
	.st0{fill:#FFFFFF;}
	.st1{fill:none;stroke:#999999;stroke-width:2.000000e-02;stroke-miterlimit:10;}
	.st2{fill:none;stroke:#FF00FF;stroke-width:4.000000e-02;stroke-miterlimit:10;}
	.st3{fill:none;stroke:#FF00FF;stroke-width:0.1;stroke-miterlimit:10;}
	.st4{opacity:0.3;fill:none;stroke:#000000;stroke-width:2;stroke-miterlimit:10;}
	.st5{opacity:0.3;}
	.st6{fill:#ED1C24;}
	.st7{fill:#39B54A;}
	.st8{fill:none;}
	.st9{fill:none;stroke:#FFFFFF;stroke-miterlimit:10;}
</style>
<g>
	<rect class="st8" width="32" height="32"/>
	<path d="M20.3,2.2C14.6,1,8.9,4.5,7.4,10.2c-0.1,0.4,0,0.8,0.2,1.2c0.2,0.4,0.6,0.6,1,0.7L27.1,16c0.1,0,0.2,0,0.3,0
		c0.3,0,0.6-0.1,0.9-0.3c0.3-0.2,0.6-0.6,0.6-1C29.8,8.9,26,3.5,20.3,2.2z M9.5,10.2c1.1-3.4,4.1-5.7,7.4-6.1
		c-1.9,2-3.1,4.7-3.6,6.9L9.5,10.2z M21.1,12.6l-5.9-1.2c0.5-2.5,2-5.5,4.6-7.2C21.6,6.8,21.7,10.2,21.1,12.6z M27,13.9l-3.9-0.8
		c0.5-2.2,0.5-5.1-0.5-7.8C25.5,7,27.3,10.4,27,13.9z M21.6,30c-2,0-4-0.3-6-1l-0.3-0.1c-3-1-6-1.5-9.2-1.5H2v-2h4.1
		c3.3,0,6.6,0.5,9.8,1.6l0.3,0.1c3.1,1,6.4,1.1,9.6,0.3l4.1-1.1v2.1l-3.6,0.9C24.8,29.8,23.2,30,21.6,30z M16.2,26
		c-0.6-0.2-1.2-0.4-1.8-0.5l2.3-10.7l2,0.4L16.2,26L16.2,26z"/>
</g>
</svg>
