<?xml version="1.0" encoding="utf-8"?>
<!-- Generator: Adobe Illustrator 25.4.1, SVG Export Plug-In . SVG Version: 6.00 Build 0)  -->
<svg version="1.1" id="Layer_1" xmlns="http://www.w3.org/2000/svg" xmlns:xlink="http://www.w3.org/1999/xlink" x="0px" y="0px"
	 width="32px" height="32px" viewBox="0 0 32 32" style="enable-background:new 0 0 32 32;" xml:space="preserve">
<style type="text/css">
	.st0{fill:#FFFFFF;}
	.st1{fill:none;stroke:#999999;stroke-width:2.000000e-02;stroke-miterlimit:10;}
	.st2{fill:none;stroke:#FF00FF;stroke-width:4.000000e-02;stroke-miterlimit:10;}
	.st3{fill:none;stroke:#FF00FF;stroke-width:0.1;stroke-miterlimit:10;}
	.st4{opacity:0.3;fill:none;stroke:#000000;stroke-width:2;stroke-miterlimit:10;}
	.st5{opacity:0.3;}
	.st6{fill:#ED1C24;}
	.st7{fill:#39B54A;}
	.st8{fill:none;}
	.st9{fill:none;stroke:#FFFFFF;stroke-miterlimit:10;}
</style>
<g>
	<rect y="0" class="st8" width="32" height="32"/>
	<path d="M13.9,12.5c0.6-2.6,2.1-7.3,6.3-10.2c0,0,0,0,0,0c2.4,4.1,2.2,8.4,1.5,11.9L13.9,12.5z M23.7,14.6l3.4,0.7
		c0.1,0,0.2,0,0.3,0c0.3,0,0.6-0.1,0.9-0.3c0.3-0.2,0.6-0.6,0.6-1c0.7-4.7-1.7-8.9-6-10.9C24.7,7.6,24.1,12.1,23.7,14.6z M8.5,11.4
		l3.4,0.7c0.6-2.5,1.9-6.8,5.4-10.1c-4.8,0.1-8.7,2.9-10,7.5c-0.1,0.4,0,0.8,0.2,1.2C7.8,11,8.1,11.3,8.5,11.4z M26.4,29.4l3.6-0.9
		v-2.1l-4.1,1.1c-3.2,0.8-6.5,0.7-9.6-0.3L15.9,27c-3.2-1.1-6.5-1.6-9.8-1.6H2v2h4.1c3.1,0,6.2,0.5,9.2,1.5l0.3,0.1c1.9,0.6,4,1,6,1
		C23.2,30,24.8,29.8,26.4,29.4z M16.2,26l2.4-11.5l-2-0.4l-2.4,11.3C14.9,25.7,15.5,25.8,16.2,26L16.2,26z"/>
</g>
</svg>
