<svg width="16" height="16" viewBox="0 0 16 16" fill="none" xmlns="http://www.w3.org/2000/svg">
<g clip-path="url(#clip0_7669_34381)">
<path d="M14 3.5H11.25L10.55 2.45C10.35 2.15 10.05 2 9.7 2H6.25C5.9 2 5.6 2.15 5.4 2.45L4.75 3.5H2C1.45 3.5 1 3.95 1 4.5V12C1 12.55 1.45 13 2 13H14C14.55 13 15 12.55 15 12V4.5C15 3.95 14.55 3.5 14 3.5ZM8 10.5C6.6 10.5 5.5 9.4 5.5 8C5.5 6.6 6.6 5.5 8 5.5C9.4 5.5 10.5 6.6 10.5 8C10.5 9.4 9.4 10.5 8 10.5Z" fill="#101419"/>
</g>
<defs>
<clipPath id="clip0_7669_34381">
<rect width="16" height="16" fill="white"/>
</clipPath>
</defs>
</svg>
