<svg width="16" height="16" viewBox="0 0 16 16" fill="none" xmlns="http://www.w3.org/2000/svg">
<g clip-path="url(#clip0_7669_34355)">
<path d="M8 11C6.35 11 5 9.65 5 8C5 6.35 6.35 5 8 5C9.65 5 11 6.35 11 8C11 9.65 9.65 11 8 11ZM8 6C6.9 6 6 6.9 6 8C6 9.1 6.9 10 8 10C9.1 10 10 9.1 10 8C10 6.9 9.1 6 8 6ZM14 13H2C1.45 13 1 12.55 1 12V4.5C1 3.95 1.45 3.5 2 3.5H4.75L5.45 2.45C5.65 2.15 5.95 2 6.3 2H9.75C10.1 2 10.4 2.15 10.6 2.45L11.25 3.5H14C14.55 3.5 15 3.95 15 4.5V12C15 12.55 14.55 13 14 13ZM2 4.5V12H14V4.5H10.75L9.75 3H6.3L5.3 4.5H2Z" fill="#101419"/>
</g>
<defs>
<clipPath id="clip0_7669_34355">
<rect width="16" height="16" fill="white"/>
</clipPath>
</defs>
</svg>
