<svg width="16" height="16" viewBox="0 0 16 16" fill="none" xmlns="http://www.w3.org/2000/svg">
<g clip-path="url(#clip0_7669_34823)">
<path d="M10.45 5.55C10.5 5.6 10.55 5.7 10.5 5.8L8.5 11.3C8.45 11.4 8.35 11.45 8.25 11.45C8.15 11.45 8.05 11.4 8 11.3L7.05 8.9L4.65 8C4.55 7.95 4.5 7.85 4.5 7.75C4.5 7.65 4.55 7.55 4.65 7.5L10.15 5.5C10.25 5.5 10.35 5.5 10.45 5.55ZM15 8C15 11.85 11.85 15 8 15C4.15 15 1 11.85 1 8C1 4.15 4.15 1 8 1C11.85 1 15 4.15 15 8ZM13.95 8.5H13V7.5H13.95C13.75 4.6 11.4 2.25 8.5 2.05V3H7.5V2.05C4.6 2.25 2.25 4.6 2.05 7.5H3V8.5H2.05C2.25 11.4 4.6 13.75 7.5 13.95V13H8.5V13.95C11.4 13.75 13.75 11.4 13.95 8.5Z" fill="#101419"/>
</g>
<defs>
<clipPath id="clip0_7669_34823">
<rect width="16" height="16" fill="white"/>
</clipPath>
</defs>
</svg>
