<svg width="16" height="16" viewBox="0 0 16 16" fill="none" xmlns="http://www.w3.org/2000/svg">
<g clip-path="url(#clip0_7669_34777)">
<path d="M9.5 14.5C9.05 14.5 8.7 14.25 8.55 13.85L6.7 9.24997L2.1 7.39997C1.75 7.29997 1.5 6.89997 1.5 6.49997C1.5 6.09997 1.75 5.69997 2.15 5.59997L13.15 1.59997C13.5 1.44997 13.95 1.49997 14.2 1.79997C14.5 2.04997 14.55 2.49997 14.45 2.84997L10.45 13.85C10.3 14.25 9.95 14.5 9.5 14.5ZM2.5 6.49997L7.5 8.49997L9.5 13.5L13.5 2.49997L2.5 6.49997Z" fill="#101419"/>
</g>
<defs>
<clipPath id="clip0_7669_34777">
<rect width="16" height="16" fill="white"/>
</clipPath>
</defs>
</svg>
