<svg width="16" height="16" viewBox="0 0 16 16" fill="none" xmlns="http://www.w3.org/2000/svg">
<g clip-path="url(#clip0_11362_37001)">
<path d="M15 8H14C14 4.7 11.3 2 8 2V1C11.85 1 15 4.15 15 8ZM10 8H11C11 6.35 9.65 5 8 5V6C9.1 6 10 6.9 10 8ZM8 3V4C10.2 4 12 5.8 12 8H13C13 5.25 10.75 3 8 3ZM8.7 8L11.9 11.2L11.55 11.55C10.6 12.5 9.35 13 8 13C7.5 13 6.95 12.9 6.5 12.75V13.5H5.5V12.3C4 11.45 3 9.8 3 8C3 6.65 3.5 5.4 4.45 4.45L4.8 4.1L8 7.3L8.15 7.15C8.35 6.95 8.65 6.95 8.85 7.15C9.05 7.35 9.05 7.65 8.85 7.85L8.7 8ZM4.85 5.55C4.3 6.25 4 7.1 4 8C4 10.2 5.8 12 8 12C8.9 12 9.75 11.7 10.45 11.15L4.85 5.55ZM3 15H9V14H3V15Z" fill="#101419"/>
</g>
<defs>
<clipPath id="clip0_11362_37001">
<rect width="16" height="16" fill="white"/>
</clipPath>
</defs>
</svg>
