<svg width="16" height="16" viewBox="0 0 16 16" fill="none" xmlns="http://www.w3.org/2000/svg">
<g clip-path="url(#clip0_7669_34915)">
<path d="M8 1C4.95 1 2.5 3.45 2.5 6.5C2.5 7.7 2.9 8.85 3.6 9.8C3.6 9.8 3.75 10 3.75 10.05L8 15L12.2 10C12.2 9.95 12.35 9.8 12.35 9.8C13.05 8.85 13.45 7.7 13.45 6.5C13.5 3.45 11.05 1 8 1ZM8 8.5C6.9 8.5 6 7.6 6 6.5C6 5.4 6.9 4.5 8 4.5C9.1 4.5 10 5.4 10 6.5C10 7.6 9.1 8.5 8 8.5Z" fill="#101419"/>
</g>
<defs>
<clipPath id="clip0_7669_34915">
<rect width="16" height="16" fill="white"/>
</clipPath>
</defs>
</svg>
