<svg width="16" height="16" viewBox="0 0 16 16" fill="none" xmlns="http://www.w3.org/2000/svg">
<g clip-path="url(#clip0_7669_34892)">
<path d="M8 9C6.6 9 5.5 7.9 5.5 6.5C5.5 5.1 6.6 4 8 4C9.4 4 10.5 5.1 10.5 6.5C10.5 7.9 9.4 9 8 9ZM8 5C7.15 5 6.5 5.65 6.5 6.5C6.5 7.35 7.15 8 8 8C8.85 8 9.5 7.35 9.5 6.5C9.5 5.65 8.85 5 8 5ZM8 15L3.8 10.05C3.8 10 3.65 9.8 3.65 9.8C2.9 8.85 2.5 7.7 2.5 6.5C2.5 3.45 4.95 1 8 1C11.05 1 13.5 3.45 13.5 6.5C13.5 7.7 13.1 8.85 12.4 9.8L12.25 10L8 15ZM4.4 9.2C4.4 9.2 4.5 9.35 4.55 9.4L8 13.45L11.45 9.4C11.45 9.35 11.6 9.2 11.6 9.2C12.2 8.4 12.5 7.5 12.5 6.5C12.5 4 10.5 2 8 2C5.5 2 3.5 4 3.5 6.5C3.5 7.5 3.8 8.4 4.4 9.2Z" fill="#101419"/>
</g>
<defs>
<clipPath id="clip0_7669_34892">
<rect width="16" height="16" fill="white"/>
</clipPath>
</defs>
</svg>
