<svg width="16" height="16" viewBox="0 0 16 16" fill="none" xmlns="http://www.w3.org/2000/svg">
<g clip-path="url(#clip0_7669_34450)">
<path d="M14 3.04999H2C1.45 3.04999 1 3.49999 1 4.04999V12.05C1 12.6 1.45 13.05 2 13.05H14C14.55 13.05 15 12.6 15 12.05V4.04999C15 3.44999 14.55 3.04999 14 3.04999ZM8 7.89999L2.4 4.04999H13.65L8 7.89999ZM5.5 7.39999L2 11.2V4.99999L5.5 7.39999ZM6.3 7.94999L8 9.09999L9.7 7.94999L13.4 12H2.6L6.3 7.94999ZM10.5 7.39999L14 4.99999V11.2L10.5 7.39999Z" fill="#101419"/>
</g>
<defs>
<clipPath id="clip0_7669_34450">
<rect width="16" height="16" fill="white"/>
</clipPath>
</defs>
</svg>
