<svg width="16" height="16" viewBox="0 0 16 16" fill="none" xmlns="http://www.w3.org/2000/svg">
<g clip-path="url(#clip0_7669_34522)">
<path d="M14.8 5.6L14 5.05V2C14 1.45 13.55 1 13 1H3C2.45 1 2 1.45 2 2V5.05L1.2 5.6C1.1 5.7 1 5.85 1 6V14C1 14.55 1.45 15 2 15H14C14.55 15 15 14.55 15 14V6C15 5.85 14.9 5.7 14.8 5.6ZM3 2H13V6.45L8 9.9L3 6.45V2ZM2 6.95L5.5 9.35L2 13.2V6.95ZM2.65 14L6.35 9.95L7.75 10.9C7.85 10.95 7.95 11 8.05 11C8.15 11 8.25 10.95 8.35 10.9L9.75 9.95L13.45 14H2.65ZM14 13.2L10.5 9.35L14 6.95V13.2ZM10.5 4.2L7.5 7.2L5.5 5.2L6.2 4.5L7.5 5.8L9.8 3.5L10.5 4.2Z" fill="#101419"/>
</g>
<defs>
<clipPath id="clip0_7669_34522">
<rect width="16" height="16" fill="white"/>
</clipPath>
</defs>
</svg>
