<svg width="16" height="16" viewBox="0 0 16 16" fill="none" xmlns="http://www.w3.org/2000/svg">
<g clip-path="url(#clip0_7669_34869)">
<path d="M8.00003 12L4.95002 7.7C4.35002 7 4.00002 6.05 4.00002 5.05C4.00002 2.8 5.80002 1 8.00003 1C10.2 1 12 2.8 12 5.05C12 6 11.7 6.9 11.1 7.6L8.00003 12ZM8.00003 3.5C7.45003 3.5 7.00002 3.95 7.00002 4.5C7.00002 5.05 7.45003 5.5 8.00003 5.5C8.55002 5.5 9.00003 5.05 9.00003 4.5C9.00003 3.95 8.55002 3.5 8.00003 3.5ZM14.65 14.6C14.85 14.35 14.9 14 14.8 13.7L13.6 9.7C13.45 9.25 13.1 9 12.65 9H11.5V10H12.65L13.85 14H2.15002L3.35002 10H4.50002V9H3.35002C2.90002 9 2.50002 9.3 2.40002 9.7L1.20002 13.7C1.10002 14 1.15002 14.35 1.35002 14.6C1.55002 14.85 1.85002 15 2.15002 15H13.8C14.15 15 14.45 14.85 14.65 14.6Z" fill="#101419"/>
</g>
<defs>
<clipPath id="clip0_7669_34869">
<rect width="16" height="16" fill="white"/>
</clipPath>
</defs>
</svg>
