<svg width="16" height="16" viewBox="0 0 16 16" fill="none" xmlns="http://www.w3.org/2000/svg">
<g clip-path="url(#clip0_11362_37013)">
<path d="M11.5 1H4.5C3.95 1 3.5 1.45 3.5 2V14C3.5 14.55 3.95 15 4.5 15H11.5C12.05 15 12.5 14.55 12.5 14V2C12.5 1.45 12.05 1 11.5 1ZM11.5 14H4.5V8.5V2H6.5V2.5C6.5 2.8 6.7 3 7 3H9C9.3 3 9.5 2.8 9.5 2.5V2H11.5V14ZM6.5 7.5H5.5V6.5H6.5V7.5ZM8.5 7.5H7.5V6.5H8.5V7.5ZM9.5 6.5H10.5V7.5H9.5V6.5ZM6.5 5.5H5.5V4.5H6.5V5.5ZM8.5 5.5H7.5V4.5H8.5V5.5ZM9.5 4.5H10.5V5.5H9.5V4.5ZM6.5 9.5H5.5V8.5H6.5V9.5ZM8.5 9.5H7.5V8.5H8.5V9.5ZM9.5 8.5H10.5V9.5H9.5V8.5ZM6.5 11.5H5.5V10.5H6.5V11.5ZM8.5 11.5H7.5V10.5H8.5V11.5ZM9.5 10.5H10.5V11.5H9.5V10.5ZM6.5 13H9.5V13.5H6.5V13Z" fill="#101419"/>
</g>
<defs>
<clipPath id="clip0_11362_37013">
<rect width="16" height="16" fill="white"/>
</clipPath>
</defs>
</svg>
