<svg width="16" height="16" viewBox="0 0 16 16" fill="none" xmlns="http://www.w3.org/2000/svg">
<g clip-path="url(#clip0_11362_37005)">
<path d="M11.5 1H4.5C3.95 1 3.5 1.45 3.5 2V14C3.5 14.55 3.95 15 4.5 15H11.5C12.05 15 12.5 14.55 12.5 14V2C12.5 1.45 12.05 1 11.5 1ZM11.5 14H4.5V8.5V2H6.5V2.5C6.5 2.8 6.7 3 7 3H9C9.3 3 9.5 2.8 9.5 2.5V2H11.5V14ZM6.5 13H9.5V13.5H6.5V13Z" fill="#101419"/>
</g>
<defs>
<clipPath id="clip0_11362_37005">
<rect width="16" height="16" fill="white"/>
</clipPath>
</defs>
</svg>
