<svg width="16" height="16" viewBox="0 0 16 16" fill="none" xmlns="http://www.w3.org/2000/svg">
<g clip-path="url(#clip0_6726_32640)">
<path d="M11 5.5H12.5C13.05 5.5 13.5 5.95 13.5 6.5V8H12.5V6.5H11V5.5ZM12.5 10V11.5H11V12.5H12.5C13.05 12.5 13.5 12.05 13.5 11.5V10H12.5ZM3.5 8V6.5H5V5.5H3.5C2.95 5.5 2.5 5.95 2.5 6.5V8H3.5ZM5 11.5H3.5V10H2.5V11.5C2.5 12.05 2.95 12.5 3.5 12.5H5V11.5ZM4.5 5V2H6.5V2.5C6.5 2.8 6.7 3 7 3H9C9.3 3 9.5 2.8 9.5 2.5V2H11.5V5H12.5V2C12.5 1.45 12.05 1 11.5 1H10.5H5.5H4.5C3.95 1 3.5 1.45 3.5 2V5H4.5ZM11.5 13V14H4.5V13H3.5V14C3.5 14.55 3.95 15 4.5 15H11.5C12.05 15 12.5 14.55 12.5 14V13H11.5ZM10.5 7.5H5.5V8.5H10.5V7.5ZM10.5 9.5H5.5V10.5H10.5V9.5Z" fill="#101419"/>
</g>
<defs>
<clipPath id="clip0_6726_32640">
<rect width="16" height="16" fill="white"/>
</clipPath>
</defs>
</svg>
