<svg width="16" height="16" viewBox="0 0 16 16" fill="none" xmlns="http://www.w3.org/2000/svg">
<g clip-path="url(#clip0_6726_32749)">
<path d="M12.5 10.8V14C12.5 14.55 12.05 15 11.5 15H4.5C3.95 15 3.5 14.55 3.5 14V2C3.5 1.45 3.95 1 4.5 1H5.5H10.5H11.5C12.05 1 12.5 1.45 12.5 2V5.2L12.2 5.5L11.5 6.2V2H9.5V2.5C9.5 2.8 9.3 3 9 3H7C6.7 3 6.5 2.8 6.5 2.5V2H4.5V8.5V14H11.5V9.8L11.9 10.2L12.5 10.8ZM11.9 9.4L12.6 10.1C13.75 8.95 13.75 7.05 12.6 5.85L11.9 6.55C12.7 7.35 12.7 8.65 11.9 9.4ZM13 10.45L13.7 11.15C15.45 9.4 15.45 6.55 13.7 4.8L13 5.55C14.35 6.9 14.35 9.1 13 10.45ZM6.55 6.9V8.1L5.85 6.9H5.15V9.1H5.75V7.9L6.45 9.1H7.1V6.9H6.55ZM7.7 6.9H7.6V7V9V9.1H7.7H8.15H8.25V9V8.3H8.9V7.75H8.25V7.4H9V6.85H7.7V6.9ZM10.95 8.9L10.85 8.55L10.8 8.45L10.7 8.5C10.55 8.6 10.4 8.6 10.3 8.6C9.85 8.6 9.8 8.25 9.8 8C9.8 7.75 9.9 7.4 10.3 7.4C10.5 7.4 10.6 7.45 10.7 7.5H10.75L10.85 7.55L10.9 7.45L11 7.1V7.05L10.95 7C10.9 6.95 10.65 6.85 10.35 6.85C9.45 6.85 9.15 7.45 9.15 8C9.15 8.7 9.6 9.15 10.35 9.15C10.7 9.15 10.9 9.05 10.95 9.05L11 9L10.95 8.9Z" fill="#101419"/>
</g>
<defs>
<clipPath id="clip0_6726_32749">
<rect width="16" height="16" fill="white"/>
</clipPath>
</defs>
</svg>
