<svg width="16" height="16" viewBox="0 0 16 16" fill="none" xmlns="http://www.w3.org/2000/svg">
<g clip-path="url(#clip0_7669_34427)">
<path d="M13 14.55H12.9C3.09998 13.95 1.69998 5.64999 1.49998 3.14999C1.44998 2.29999 2.04998 1.59999 2.89998 1.54999C2.94998 1.54999 2.99998 1.54999 2.99998 1.54999H5.64998C6.04998 1.54999 6.44998 1.79999 6.59998 2.19999L7.34998 4.04999C7.49998 4.39999 7.39998 4.84999 7.14998 5.14999L6.09998 6.19999C6.44998 8.14999 7.94998 9.64999 9.89998 9.99999L11 8.94999C11.3 8.64999 11.7 8.59999 12.1 8.74999L14 9.49999C14.35 9.64999 14.6 9.99999 14.6 10.45V13.1C14.5 13.85 13.85 14.55 13 14.55Z" fill="#101419"/>
</g>
<defs>
<clipPath id="clip0_7669_34427">
<rect width="16" height="16" fill="white"/>
</clipPath>
</defs>
</svg>
