<svg width="16" height="16" viewBox="0 0 16 16" fill="none" xmlns="http://www.w3.org/2000/svg">
<g clip-path="url(#clip0_11362_37022)">
<path d="M2 4.5C1.45 4.5 1 4.95 1 5.5V10.5C1 11.05 1.45 11.5 2 11.5H3V10.5H2V5.5H14V10.5H13V11.5H14C14.55 11.5 15 11.05 15 10.5V5.5C15 4.95 14.55 4.5 14 4.5H2ZM4.5 4V2.5H11.5V4H12.5V1.5H3.5V4H4.5ZM11.5 13.5H4.5V8.5H11.5V13.5ZM3.5 14.5H12.5V7.5H3.5V14.5Z" fill="#101419"/>
</g>
<defs>
<clipPath id="clip0_11362_37022">
<rect width="16" height="16" fill="white"/>
</clipPath>
</defs>
</svg>
