<svg width="16" height="16" viewBox="0 0 16 16" fill="none" xmlns="http://www.w3.org/2000/svg">
<g clip-path="url(#clip0_7669_34637)">
<path d="M13 7V9C13 9.3 12.8 9.5 12.5 9.5C12.2 9.5 12 9.3 12 9V7C12 6.7 12.2 6.5 12.5 6.5C12.8 6.5 13 6.7 13 7ZM14 2.5H2C1.45 2.5 1 2.95 1 3.5V12.5C1 13.05 1.45 13.5 2 13.5H14C14.55 13.5 15 13.05 15 12.5V3.5C15 2.95 14.55 2.5 14 2.5ZM2 3.5H14V12.5H2V3.5Z" fill="#101419"/>
</g>
<defs>
<clipPath id="clip0_7669_34637">
<rect width="16" height="16" fill="white" transform="translate(0 16) rotate(-90)"/>
</clipPath>
</defs>
</svg>
