<svg width="16" height="16" viewBox="0 0 16 16" fill="none" xmlns="http://www.w3.org/2000/svg">
<g clip-path="url(#clip0_7669_34636)">
<path d="M9 13H7C6.7 13 6.5 12.8 6.5 12.5C6.5 12.2 6.7 12 7 12H9C9.3 12 9.5 12.2 9.5 12.5C9.5 12.8 9.3 13 9 13ZM13.5 14V2C13.5 1.45 13.05 1 12.5 1H3.5C2.95 1 2.5 1.45 2.5 2V14C2.5 14.55 2.95 15 3.5 15H12.5C13.05 15 13.5 14.55 13.5 14ZM12.5 2V14H3.5V2H12.5Z" fill="#101419"/>
</g>
<defs>
<clipPath id="clip0_7669_34636">
<rect width="16" height="16" fill="white"/>
</clipPath>
</defs>
</svg>
