<svg width="16" height="16" viewBox="0 0 16 16" fill="none" xmlns="http://www.w3.org/2000/svg">
<g clip-path="url(#clip0_11362_37017)">
<path d="M14 2H2C1.45 2 1 2.45 1 3V13C1 13.55 1.45 14 2 14H14C14.55 14 15 13.55 15 13V3C15 2.45 14.55 2 14 2ZM14 13H2V6H14V13ZM14 5H2V3H14V5ZM12 11H4V10H12V11ZM12 9H4V8H12V9ZM2.5 4C2.5 3.7 2.7 3.5 3 3.5C3.3 3.5 3.5 3.7 3.5 4C3.5 4.3 3.3 4.5 3 4.5C2.7 4.5 2.5 4.3 2.5 4ZM4 4C4 3.7 4.2 3.5 4.5 3.5C4.8 3.5 5 3.7 5 4C5 4.3 4.8 4.5 4.5 4.5C4.2 4.5 4 4.3 4 4ZM5.5 4C5.5 3.7 5.7 3.5 6 3.5C6.3 3.5 6.5 3.7 6.5 4C6.5 4.3 6.3 4.5 6 4.5C5.7 4.5 5.5 4.3 5.5 4Z" fill="#101419"/>
</g>
<defs>
<clipPath id="clip0_11362_37017">
<rect width="16" height="16" fill="white"/>
</clipPath>
</defs>
</svg>
