<svg width="16" height="16" viewBox="0 0 16 16" fill="none" xmlns="http://www.w3.org/2000/svg">
<g clip-path="url(#clip0_11362_36987)">
<path d="M15 6.35L14.25 7.05C12.8 5.2 10.55 4 8 4C5.45 4 3.2 5.2 1.75 7.05L1 6.35C2.65 4.3 5.2 3 8 3C10.8 3 13.35 4.3 15 6.35ZM8 5.5C5.9 5.5 4 6.5 2.8 8.05L3.55 8.75C4.55 7.4 6.15 6.5 8 6.5C9.85 6.5 11.45 7.4 12.45 8.75L13.2 8.05C12 6.5 10.1 5.5 8 5.5ZM8 8C6.6 8 5.35 8.7 4.65 9.8L5.4 10.5C5.9 9.6 6.9 9 8 9C9.1 9 10.1 9.6 10.6 10.5L11.35 9.8C10.65 8.7 9.4 8 8 8ZM8 10.5C7.3 10.5 6.7 10.95 6.55 11.6L8 13L9.45 11.6C9.3 10.95 8.7 10.5 8 10.5Z" fill="#101419"/>
</g>
<defs>
<clipPath id="clip0_11362_36987">
<rect width="16" height="16" fill="white"/>
</clipPath>
</defs>
</svg>
