<svg width="16" height="16" viewBox="0 0 16 16" fill="none" xmlns="http://www.w3.org/2000/svg">
<g clip-path="url(#clip0_7669_35029)">
<path d="M14 4H5C4.45 4 4 4.45 4 5V14C4 14.55 4.45 15 5 15H14C14.55 15 15 14.55 15 14V5C15 4.45 14.55 4 14 4ZM14 5V11.6L12.7 10.3C12.3 9.9 11.7 9.9 11.3 10.3L10.5 11.1L7.7 8.3C7.3 7.9 6.7 7.9 6.3 8.3L5 9.6V5H14ZM5 11L7 9L9.8 11.8L7.6 14H5V11ZM9 14L10.5 12.5L10.85 12.15L12 11L14 13V14H9ZM11.5 9C12.35 9 13 8.35 13 7.5C13 6.65 12.35 6 11.5 6C10.65 6 10 6.65 10 7.5C10 8.35 10.65 9 11.5 9ZM11.5 7C11.8 7 12 7.2 12 7.5C12 7.8 11.8 8 11.5 8C11.2 8 11 7.8 11 7.5C11 7.2 11.2 7 11.5 7ZM2 2H9V1H2C1.45 1 1 1.45 1 2V9H2V2Z" fill="#101419"/>
</g>
<defs>
<clipPath id="clip0_7669_35029">
<rect width="16" height="16" fill="white"/>
</clipPath>
</defs>
</svg>
