<svg width="16" height="16" viewBox="0 0 16 16" fill="none" xmlns="http://www.w3.org/2000/svg">
<g clip-path="url(#clip0_6726_32599)">
<path d="M4 14V2H7.5V5.5C7.5 6.05 7.95 6.5 8.5 6.5H12V9H13V5.7C13 5.45 12.9 5.2 12.7 5L9 1.3C8.8 1.1 8.55 1 8.3 1H4C3.45 1 3 1.45 3 2V14C3 14.55 3.45 15 4 15H10V14H4ZM8.5 2.2L11.8 5.5H8.5V2.2ZM15 13H13V15H12V13H10V12H12V10H13V12H15V13Z" fill="#101419"/>
</g>
<defs>
<clipPath id="clip0_6726_32599">
<rect width="16" height="16" fill="white"/>
</clipPath>
</defs>
</svg>
