<svg width="16" height="16" viewBox="0 0 16 16" fill="none" xmlns="http://www.w3.org/2000/svg">
<g clip-path="url(#clip0_6726_32613)">
<path d="M8.5 14H4V2H7.5V5.5C7.5 6.05 7.95 6.5 8.5 6.5H12V7C12.35 7 12.7 7.1 13 7.2V5.7C13 5.45 12.9 5.2 12.7 5L9 1.3C8.8 1.1 8.55 1 8.3 1H4C3.45 1 3 1.45 3 2V14C3 14.55 3.45 15 4 15H8.9C8.65 14.75 8.5 14.4 8.5 14ZM8.5 2.2L11.8 5.5H8.5V2.2ZM14 10.5V9.5C14 8.4 13.1 7.5 12 7.5C10.9 7.5 10 8.4 10 9.5V10.5C9.45 10.5 9 10.95 9 11.5V14C9 14.55 9.45 15 10 15H14C14.55 15 15 14.55 15 14V11.5C15 10.95 14.55 10.5 14 10.5ZM11 9.5C11 8.95 11.45 8.5 12 8.5C12.55 8.5 13 8.95 13 9.5V10.5H11V9.5ZM10 14V11.5H14V14H10Z" fill="#101419"/>
</g>
<defs>
<clipPath id="clip0_6726_32613">
<rect width="16" height="16" fill="white"/>
</clipPath>
</defs>
</svg>
