<svg width="16" height="16" viewBox="0 0 16 16" fill="none" xmlns="http://www.w3.org/2000/svg">
<g clip-path="url(#clip0_6726_32564)">
<path d="M13 9.35V14C13 14.55 12.55 15 12 15H4C3.45 15 3 14.55 3 14V2C3 1.45 3.45 1 4 1H8.3C8.55 1 8.8 1.1 9 1.3L12.2 4.5L11.5 5.2L8.5 2.2V5.5H11.15L10.15 6.5H8.5C7.95 6.5 7.5 6.05 7.5 5.5V2H4V14H12V10.35L13 9.35ZM14.7 6.9L10.35 11.25C10.2 11.4 10.05 11.5 9.85 11.5L7.5 12L7.95 9.65C8 9.45 8.1 9.3 8.2 9.15L12.55 4.8C12.95 4.4 13.55 4.4 13.95 4.8L14.65 5.5C15.1 5.9 15.1 6.5 14.7 6.9ZM12.6 7.6L11.9 6.9L8.95 9.85L8.75 10.75L9.65 10.55L12.6 7.6ZM14 6.2L13.3 5.5L12.6 6.2L13.3 6.9L14 6.2Z" fill="#101419"/>
</g>
<defs>
<clipPath id="clip0_6726_32564">
<rect width="16" height="16" fill="white"/>
</clipPath>
</defs>
</svg>
