<svg width="16" height="16" viewBox="0 0 16 16" fill="none" xmlns="http://www.w3.org/2000/svg">
<g clip-path="url(#clip0_7669_35006)">
<path d="M13 2H3C2.45 2 2 2.45 2 3V13C2 13.55 2.45 14 3 14H13C13.55 14 14 13.55 14 13V3C14 2.45 13.55 2 13 2ZM13 3V10L11.2 8.2C10.8 7.8 10.2 7.8 9.8 8.2L9 9L6.2 6.2C5.8 5.8 5.2 5.8 4.8 6.2L3 8V3H13ZM3 9.45L5.5 6.95L8.3 9.75L5 13H3V9.45ZM6.45 13L9 10.45L9.35 10.1L10.5 8.95L13 11.45V13H6.45ZM10.5 7C11.35 7 12 6.35 12 5.5C12 4.65 11.35 4 10.5 4C9.65 4 9 4.65 9 5.5C9 6.35 9.65 7 10.5 7ZM10.5 5C10.8 5 11 5.2 11 5.5C11 5.8 10.8 6 10.5 6C10.2 6 10 5.8 10 5.5C10 5.2 10.2 5 10.5 5Z" fill="#101419"/>
</g>
<defs>
<clipPath id="clip0_7669_35006">
<rect width="16" height="16" fill="white"/>
</clipPath>
</defs>
</svg>
