<svg width="16" height="16" viewBox="0 0 16 16" fill="none" xmlns="http://www.w3.org/2000/svg">
<g clip-path="url(#clip0_7669_34309)">
<path d="M8 15C4.15 15 1 11.85 1 8C1 4.15 4.15 1 8 1C11.85 1 15 4.15 15 8C15 11.85 11.85 15 8 15ZM8 2C4.7 2 2 4.7 2 8C2 11.3 4.7 14 8 14C11.3 14 14 11.3 14 8C14 4.7 11.3 2 8 2ZM8.75 11.25C8.75 10.85 8.4 10.5 8 10.5C7.6 10.5 7.25 10.85 7.25 11.25C7.25 11.65 7.6 12 8 12C8.4 12 8.75 11.65 8.75 11.25ZM8.5 7.95C9.5 7.7 10.15 6.7 9.95 5.65C9.8 4.85 9.15 4.2 8.35 4.05C7.75 3.95 7.15 4.1 6.7 4.5C6.25 4.85 6 5.4 6 6H7C7 5.7 7.15 5.4 7.35 5.25C7.6 5.05 7.85 5 8.2 5.05C8.6 5.1 8.95 5.45 9 5.85C9.1 6.35 8.8 6.85 8.25 7C7.8 7.1 7.5 7.5 7.5 7.95V9.5H8.5V7.95Z" fill="#101419"/>
</g>
<defs>
<clipPath id="clip0_7669_34309">
<rect width="16" height="16" fill="white"/>
</clipPath>
</defs>
</svg>
