<?xml version="1.0" encoding="utf-8"?>
<!-- Generator: Adobe Illustrator 25.4.1, SVG Export Plug-In . SVG Version: 6.00 Build 0)  -->
<svg version="1.1" id="Layer_1" xmlns="http://www.w3.org/2000/svg" xmlns:xlink="http://www.w3.org/1999/xlink" x="0px" y="0px"
	 width="32px" height="32px" viewBox="0 0 32 32" style="enable-background:new 0 0 32 32;" xml:space="preserve">
<style type="text/css">
	.st0{fill:#FFFFFF;}
	.st1{fill:none;stroke:#999999;stroke-width:2.000000e-02;stroke-miterlimit:10;}
	.st2{fill:none;stroke:#FF00FF;stroke-width:4.000000e-02;stroke-miterlimit:10;}
	.st3{fill:none;stroke:#FF00FF;stroke-width:0.1;stroke-miterlimit:10;}
	.st4{opacity:0.3;fill:none;stroke:#000000;stroke-width:2;stroke-miterlimit:10;}
	.st5{opacity:0.3;}
	.st6{fill:#ED1C24;}
	.st7{fill:#39B54A;}
	.st8{fill:none;}
</style>
<g>
	<path d="M29.4,9.6l-7-7C22,2.2,21.5,2,21,2H11c-0.5,0-1,0.2-1.4,0.6l-7,7C2.2,10,2,10.5,2,11V21c0,0.5,0.2,1,0.6,1.4l7,7
		C10,29.8,10.5,30,11,30H21c0.5,0,1-0.2,1.4-0.6l7-7C29.8,22,30,21.5,30,21V11C30,10.5,29.8,10,29.4,9.6z M28,21l-7,7H11l-7-7V11
		l7-7H21l7,7V21z M17,19h-2V8h2V19z M17.5,22.5c0,0.8-0.7,1.5-1.5,1.5s-1.5-0.7-1.5-1.5c0-0.8,0.7-1.5,1.5-1.5S17.5,21.7,17.5,22.5z
		"/>
	<rect class="st8" width="32" height="32"/>
</g>
</svg>
