<svg width="16" height="16" viewBox="0 0 16 16" fill="none" xmlns="http://www.w3.org/2000/svg">
<g clip-path="url(#clip0_11362_37250)">
<path d="M13.5 11L11 13.5L10.3 12.8L11.6 11.5H8.5V10.5H11.6L10.3 9.2L11 8.5L13.5 11ZM5.7 6.8L4.4 5.5H7.5V4.5H4.4L5.7 3.2L5 2.5L2.5 5L5 7.5L5.7 6.8ZM6 9.5C6 8.95 6.45 8.5 7 8.5H9C10.1 8.5 11 7.6 11 6.5C11 5.4 10.1 4.5 9 4.5H8.5V5.5H9C9.55 5.5 10 5.95 10 6.5C10 7.05 9.55 7.5 9 7.5H7C5.9 7.5 5 8.4 5 9.5C5 10.6 5.9 11.5 7 11.5H7.5V10.5H7C6.45 10.5 6 10.05 6 9.5Z" fill="#101419"/>
</g>
<defs>
<clipPath id="clip0_11362_37250">
<rect width="16" height="16" fill="white"/>
</clipPath>
</defs>
</svg>
