<svg width="16" height="16" viewBox="0 0 16 16" fill="none" xmlns="http://www.w3.org/2000/svg">
<g clip-path="url(#clip0_7472_33509)">
<path d="M8 1C4.15 1 1 4.15 1 8C1 11.85 4.15 15 8 15C11.85 15 15 11.85 15 8C15 4.15 11.85 1 8 1ZM8 14C4.7 14 2 11.3 2 8C2 4.7 4.7 2 8 2C11.3 2 14 4.7 14 8C14 11.3 11.3 14 8 14ZM10.4 9.35C10.4 10.9 9.3 11.8 7.4 11.8C6.85 11.8 6.1 11.7 6.1 11.7V10.7C6.35 10.75 6.75 10.8 7.2 10.8C8.35 10.8 9.15 10.25 9.2 9.4C9.2 8.85 8.9 8.05 7.25 8.1C6.75 8.1 6.35 8.2 6.15 8.25V4.2H10V5.25H7.3V7.2H7.45C7.8 7.15 7.85 7.15 8.2 7.15C9.8 7.15 10.4 8.3 10.4 9.35Z" fill="#101419"/>
</g>
<defs>
<clipPath id="clip0_7472_33509">
<rect width="16" height="16" fill="white"/>
</clipPath>
</defs>
</svg>
