<svg width="16" height="16" viewBox="0 0 16 16" fill="none" xmlns="http://www.w3.org/2000/svg">
<g clip-path="url(#clip0_7472_33505)">
<path d="M8 1C4.15 1 1 4.15 1 8C1 11.85 4.15 15 8 15C11.85 15 15 11.85 15 8C15 4.15 11.85 1 8 1ZM8 14C4.7 14 2 11.3 2 8C2 4.7 4.7 2 8 2C11.3 2 14 4.7 14 8C14 11.3 11.3 14 8 14ZM9.45 4.25H7.8L4.8 8.75L5.1 9.9H8.25V11.75H9.45V9.9H10.7V8.85H9.45V4.25ZM8.3 8.9H5.95V8.85L8.2 5.4H8.3V8.9Z" fill="#101419"/>
</g>
<defs>
<clipPath id="clip0_7472_33505">
<rect width="16" height="16" fill="white"/>
</clipPath>
</defs>
</svg>
