<svg width="16" height="16" viewBox="0 0 16 16" fill="none" xmlns="http://www.w3.org/2000/svg">
<g clip-path="url(#clip0_7472_33501)">
<path d="M8 1C4.15 1 1 4.15 1 8C1 11.85 4.15 15 8 15C11.85 15 15 11.85 15 8C15 4.15 11.85 1 8 1ZM8 14C4.7 14 2 11.3 2 8C2 4.7 4.7 2 8 2C11.3 2 14 4.7 14 8C14 11.3 11.3 14 8 14ZM10.3 9.7C10.3 11.05 9.2 11.9 7.45 11.9C7 11.9 6.35 11.85 6.1 11.8L6 10.8C6.25 10.85 6.8 10.9 7.25 10.9C8.1 10.9 9.05 10.55 9.05 9.65C9.05 8.85 8.45 8.4 7.2 8.4H6.85V7.45H7.1C8.2 7.45 8.95 6.95 8.95 6.25C8.95 6 8.85 5.15 7.55 5.15C7.05 5.15 6.55 5.35 6.3 5.45L5.9 4.5C6.25 4.35 6.85 4.15 7.9 4.15C9.2 4.15 10.1 4.9 10.1 6.05C10.1 7.15 9.25 7.65 9 7.7L8.9 7.75V7.8H9C9.45 7.9 10.3 8.5 10.3 9.7Z" fill="#101419"/>
</g>
<defs>
<clipPath id="clip0_7472_33501">
<rect width="16" height="16" fill="white"/>
</clipPath>
</defs>
</svg>
