<svg width="16" height="16" viewBox="0 0 16 16" fill="none" xmlns="http://www.w3.org/2000/svg">
<g clip-path="url(#clip0_6964_33260)">
<path d="M12.4 4.3L13 3.7L12.3 3L3 12.3L3.7 13L4.5 12.2C5.5 12.7 6.65 13 8 13C12.35 13 15 9.75 15 8C15 6.95 14.05 5.4 12.4 4.3ZM9.7 7C9.9 7.3 10 7.65 10 8C10 9.1 9.1 10 8 10C7.65 10 7.3 9.9 7 9.7L9.7 7ZM8 12C6.95 12 6.05 11.8 5.25 11.45L6.25 10.45C6.75 10.8 7.35 11 8 11C9.65 11 11 9.65 11 8C11 7.35 10.8 6.75 10.45 6.25L11.7 5C13.2 5.9 14 7.25 14 7.95C14 9.2 11.75 12 8 12ZM6 8C6 8.15 6.05 8.35 6.05 8.5L5.25 9.3C5.1 8.9 5 8.45 5 8C5 6.35 6.35 5 8 5C8.45 5 8.9 5.1 9.3 5.3L8.5 6.05C8.35 6 8.15 6 8 6C6.9 6 6 6.9 6 8ZM3.2 11.4C1.8 10.3 1 8.95 1 8C1 6.25 3.65 3 8 3C9.1 3 10.1 3.2 11 3.55L10.2 4.35C9.55 4.15 8.8 4 8 4C4.25 4 2 6.8 2 8C2 8.65 2.7 9.8 3.9 10.65L3.2 11.4Z" fill="#101419"/>
</g>
<defs>
<clipPath id="clip0_6964_33260">
<rect width="16" height="16" fill="white"/>
</clipPath>
</defs>
</svg>
