<svg width="16" height="16" viewBox="0 0 16 16" fill="none" xmlns="http://www.w3.org/2000/svg">
<g clip-path="url(#clip0_6964_33253)">
<path d="M8 3C3.65 3 1 6.25 1 8C1 9.75 3.65 13 8 13C12.35 13 15 9.75 15 8C15 6.25 12.35 3 8 3ZM8 12C4.25 12 2 9.2 2 8C2 6.8 4.25 4 8 4C11.75 4 14 6.8 14 8C14 9.2 11.75 12 8 12ZM8 5C6.35 5 5 6.35 5 8C5 9.65 6.35 11 8 11C9.65 11 11 9.65 11 8C11 6.35 9.65 5 8 5ZM8 10C6.9 10 6 9.1 6 8C6 6.9 6.9 6 8 6C9.1 6 10 6.9 10 8C10 9.1 9.1 10 8 10Z" fill="#101419"/>
</g>
<defs>
<clipPath id="clip0_6964_33253">
<rect width="16" height="16" fill="white"/>
</clipPath>
</defs>
</svg>
