<?xml version="1.0" encoding="utf-8"?>
<!-- Generator: Adobe Illustrator 25.4.1, SVG Export Plug-In . SVG Version: 6.00 Build 0)  -->
<svg version="1.1" id="Layer_1" xmlns="http://www.w3.org/2000/svg" xmlns:xlink="http://www.w3.org/1999/xlink" x="0px" y="0px"
	 width="32px" height="32px" viewBox="0 0 32 32" style="enable-background:new 0 0 32 32;" xml:space="preserve">
<style type="text/css">
	.st0{fill:#FFFFFF;}
	.st1{fill:none;stroke:#999999;stroke-width:2.000000e-02;stroke-miterlimit:10;}
	.st2{fill:none;stroke:#FF00FF;stroke-width:4.000000e-02;stroke-miterlimit:10;}
	.st3{fill:none;stroke:#FF00FF;stroke-width:0.1;stroke-miterlimit:10;}
	.st4{opacity:0.3;fill:none;stroke:#000000;stroke-width:2;stroke-miterlimit:10;}
	.st5{opacity:0.3;}
	.st6{fill:#ED1C24;}
	.st7{fill:#39B54A;}
	.st8{fill:none;}
	.st9{fill:none;stroke:#FFFFFF;stroke-miterlimit:10;}
</style>
<g>
	<path d="M27.6,6.6c0.4-0.4,0.6-1.1,0.3-1.6C27.7,4.4,27.1,4,26.5,4h-2.9c0.1,0.3,0.2,0.7,0.2,1s-0.1,0.7-0.2,1h1.7l-3,3h-5.2
		l1.6-1.6c0.4,0.2,0.8,0.4,1.3,0.4c1.5,0,2.8-1.2,2.8-2.8c0-0.5-0.1-0.9-0.4-1.3L23,3.1L21.9,2l-0.6,0.6c-0.4-0.2-0.8-0.4-1.3-0.4
		c-1.5,0-2.8,1.2-2.8,2.8c0,0.5,0.1,0.9,0.4,1.3L14.9,9H9.7l-3-3h9.7c-0.1-0.3-0.2-0.7-0.2-1s0.1-0.7,0.2-1H5.5
		C4.9,4,4.3,4.4,4.1,4.9C3.9,5.5,4,6.1,4.4,6.6L15,17.1V28h-5v2h12v-2h-5V17.1L27.6,6.6z M20,3.8c0.7,0,1.3,0.6,1.3,1.2
		S20.7,6.2,20,6.2c-0.7,0-1.3-0.6-1.3-1.2S19.3,3.8,20,3.8z M20.3,11L16,15.3L11.7,11H20.3z"/>
	<rect x="0" class="st8" width="32" height="32"/>
</g>
</svg>
