<?xml version="1.0" encoding="utf-8"?>
<!-- Generator: Adobe Illustrator 25.4.1, SVG Export Plug-In . SVG Version: 6.00 Build 0)  -->
<svg version="1.1" id="Layer_1" xmlns="http://www.w3.org/2000/svg" xmlns:xlink="http://www.w3.org/1999/xlink" x="0px" y="0px"
	 width="32px" height="32px" viewBox="0 0 32 32" style="enable-background:new 0 0 32 32;" xml:space="preserve">
<style type="text/css">
	.st0{fill:#FFFFFF;}
	.st1{fill:none;stroke:#999999;stroke-width:2.000000e-02;stroke-miterlimit:10;}
	.st2{fill:none;stroke:#FF00FF;stroke-width:4.000000e-02;stroke-miterlimit:10;}
	.st3{fill:none;stroke:#FF00FF;stroke-width:0.1;stroke-miterlimit:10;}
	.st4{opacity:0.3;fill:none;stroke:#000000;stroke-width:2;stroke-miterlimit:10;}
	.st5{opacity:0.3;}
	.st6{fill:#ED1C24;}
	.st7{fill:#39B54A;}
	.st8{fill:none;}
	.st9{fill:none;stroke:#FFFFFF;stroke-miterlimit:10;}
</style>
<g>
	<rect x="0" class="st8" width="32" height="32"/>
	<path d="M15,7.1l-3.7-3.7L12.7,2l3.7,3.7C16.8,6.1,17,6.6,17,7.1V9h-2V7.1z M8,10v2h16v-2H8z M21,13h2l-0.9,15.1
		c-0.1,1.1-0.9,1.9-2,1.9h-8.1c-1.1,0-1.9-0.8-2-1.9L9,13h2l0.2,2.8l1.4-1.4c0.5-0.5,1.3-0.5,1.8,0l3.1,3.1h3.2l0-0.6l-2.3-2.3
		l-1.2,1.2l-1.1-1.1l1.4-1.4c0.5-0.5,1.3-0.5,1.8,0l1.5,1.5L21,13z M11.6,17.5h3.8l-1.9-1.9L11.6,17.5z M20.1,28l0.6-9h-9.2l0.6,9
		H20.1z"/>
</g>
</svg>
