<?xml version="1.0" encoding="utf-8"?>
<!-- Generator: Adobe Illustrator 25.4.1, SVG Export Plug-In . SVG Version: 6.00 Build 0)  -->
<svg version="1.1" id="Layer_1" xmlns="http://www.w3.org/2000/svg" xmlns:xlink="http://www.w3.org/1999/xlink" x="0px" y="0px"
	 width="32px" height="32px" viewBox="0 0 32 32" style="enable-background:new 0 0 32 32;" xml:space="preserve">
<style type="text/css">
	.st0{fill:#FFFFFF;}
	.st1{fill:none;stroke:#999999;stroke-width:2.000000e-02;stroke-miterlimit:10;}
	.st2{fill:none;stroke:#FF00FF;stroke-width:4.000000e-02;stroke-miterlimit:10;}
	.st3{fill:none;stroke:#FF00FF;stroke-width:0.1;stroke-miterlimit:10;}
	.st4{opacity:0.3;fill:none;stroke:#000000;stroke-width:2;stroke-miterlimit:10;}
	.st5{opacity:0.3;}
	.st6{fill:#ED1C24;}
	.st7{fill:#39B54A;}
	.st8{fill:none;}
</style>
<g>
	<path d="M30,28v2H2v-2H30z M17,8.6c0-0.7,0.3-1.3,0.9-1.7l0.3-0.2C19.3,6,20,4.7,20,3.4V2h-2v1.4c0,0.7-0.3,1.3-0.9,1.7l-0.3,0.2
		C15.7,6,15,7.3,15,8.6V10h2V8.6z M7,20v-7c0-1.1,0.9-2,2-2h3v2H9v7c0,2.8,2.2,5,5,5h4c0,0,0,0,0,0c1.3,0,2.6-0.5,3.5-1.5
		c0.9-0.9,1.5-2.2,1.5-3.5v-7h-8l0,2h0c1.1,0,2,0.9,2,2v2c0,1.1-0.9,2-2,2h-2c-1.1,0-2-0.9-2-2l0-2c0-1.1,0.9-2,2-2h0l0-4h10
		c1.1,0,2,0.9,2,2h1.7c1.8,0,3.3,1.5,3.3,3.3c0,1.4-0.9,2.7-2.3,3.2L25,20.4c-0.1,1.7-0.8,3.3-2,4.5c-1.3,1.3-3.1,2-4.9,2
		c0,0,0,0,0,0h-4C10.1,27,7,23.9,7,20z M26.7,15H25v3.3l2.1-0.7c0.6-0.2,0.9-0.7,0.9-1.3C28,15.6,27.4,15,26.7,15z M14,17l-1,0l0,2
		l2,0v-2H14z"/>
	<rect class="st8" width="32" height="32"/>
</g>
</svg>
