<?xml version="1.0" encoding="utf-8"?>
<!-- Generator: Adobe Illustrator 25.4.1, SVG Export Plug-In . SVG Version: 6.00 Build 0)  -->
<svg version="1.1" id="Layer_1" xmlns="http://www.w3.org/2000/svg" xmlns:xlink="http://www.w3.org/1999/xlink" x="0px" y="0px"
	 width="32px" height="32px" viewBox="0 0 32 32" style="enable-background:new 0 0 32 32;" xml:space="preserve">
<style type="text/css">
	.st0{fill:#FFFFFF;}
	.st1{fill:none;stroke:#999999;stroke-width:2.000000e-02;stroke-miterlimit:10;}
	.st2{fill:none;stroke:#FF00FF;stroke-width:4.000000e-02;stroke-miterlimit:10;}
	.st3{fill:none;stroke:#FF00FF;stroke-width:0.1;stroke-miterlimit:10;}
	.st4{opacity:0.3;fill:none;stroke:#000000;stroke-width:2;stroke-miterlimit:10;}
	.st5{opacity:0.3;}
	.st6{fill:#ED1C24;}
	.st7{fill:#39B54A;}
	.st8{fill:none;}
	.st9{fill:none;stroke:#FFFFFF;stroke-miterlimit:10;}
</style>
<g>
	<rect y="0" class="st8" width="32" height="32"/>
	<path d="M10,14H9c-1.7,0-3-1.3-3-3V2h2v9c0,0.6,0.4,1,1,1h1V2h2v10h1c0.6,0,1-0.4,1-1V2h2v9c0,1.7-1.3,3-3,3h-1v1.3
		c-0.8,0.6-1.5,1.3-2,2.1V14z M10,24.6V30h2v-3.3C11.2,26.2,10.5,25.4,10,24.6z M20,26.7V30h2v-5.4C21.5,25.4,20.8,26.2,20,26.7z
		 M26,10v3.3c0,2.3-1.5,4.2-3.6,4.8C21.8,16.9,21,16,20,15.3v-12c0-0.5,0.3-1,0.8-1.2c0.5-0.2,1-0.1,1.4,0.3l1.2,1.2
		C25.1,5.3,26,7.6,26,10z M24,10c0-1.8-0.7-3.6-2-4.9v11.1c1.2-0.4,2-1.5,2-2.8V10z M22,21c0,3.3-2.7,6-6,6s-6-2.7-6-6s2.7-6,6-6
		S22,17.7,22,21z M18.4,22.5c0-0.4-0.1-0.7-0.2-0.9c-0.1-0.3-0.3-0.5-0.6-0.7c-0.2-0.2-0.5-0.3-0.9-0.5L16,20.1
		c-0.2-0.1-0.3-0.1-0.4-0.2c-0.1-0.1-0.2-0.1-0.2-0.2c-0.1-0.1-0.1-0.2-0.1-0.3c0-0.3,0.1-0.5,0.3-0.6c0.2-0.1,0.5-0.2,0.9-0.2
		c0.1,0,0.3,0,0.5,0s0.3,0,0.4,0.1c0.1,0,0.2,0.1,0.3,0.1l0.1-1.2c-0.1,0-0.3-0.1-0.5-0.1c-0.2,0-0.4,0-0.7,0v-0.8h-1.1v0.9
		c-0.4,0.1-0.7,0.2-1,0.4c-0.3,0.2-0.5,0.4-0.6,0.7s-0.2,0.6-0.2,1c0,0.3,0.1,0.6,0.2,0.9c0.1,0.2,0.3,0.4,0.5,0.6
		c0.2,0.2,0.5,0.3,0.8,0.4l0.7,0.3c0.2,0.1,0.4,0.2,0.6,0.3c0.1,0.1,0.3,0.2,0.3,0.3c0.1,0.1,0.1,0.3,0.1,0.4c0,0.2-0.1,0.3-0.2,0.5
		c-0.1,0.1-0.3,0.2-0.5,0.3s-0.5,0.1-0.8,0.1c-0.3,0-0.5,0-0.8-0.1c-0.3,0-0.5-0.1-0.7-0.2l-0.1,1.3c0.2,0.1,0.4,0.1,0.8,0.1
		c0.3,0,0.6,0.1,0.9,0.1h0.1v1h1.1v-1.1c0.4-0.1,0.7-0.2,0.9-0.4c0.3-0.2,0.5-0.4,0.6-0.7C18.3,23.1,18.4,22.8,18.4,22.5z"/>
</g>
</svg>
