<?xml version="1.0" encoding="utf-8"?>
<!-- Generator: Adobe Illustrator 25.4.1, SVG Export Plug-In . SVG Version: 6.00 Build 0)  -->
<svg version="1.1" id="Layer_1" xmlns="http://www.w3.org/2000/svg" xmlns:xlink="http://www.w3.org/1999/xlink" x="0px" y="0px"
	 width="32px" height="32px" viewBox="0 0 32 32" style="enable-background:new 0 0 32 32;" xml:space="preserve">
<style type="text/css">
	.st0{fill:#FFFFFF;}
	.st1{fill:none;stroke:#999999;stroke-width:2.000000e-02;stroke-miterlimit:10;}
	.st2{fill:none;stroke:#FF00FF;stroke-width:4.000000e-02;stroke-miterlimit:10;}
	.st3{fill:none;stroke:#FF00FF;stroke-width:0.1;stroke-miterlimit:10;}
	.st4{opacity:0.3;fill:none;stroke:#000000;stroke-width:2;stroke-miterlimit:10;}
	.st5{opacity:0.3;}
	.st6{fill:#ED1C24;}
	.st7{fill:#39B54A;}
	.st8{fill:none;}
	.st9{fill:none;stroke:#FFFFFF;stroke-miterlimit:10;}
</style>
<g>
	<rect y="0" class="st8" width="32" height="32"/>
	<path d="M23.4,3.6l-1.2-1.2c-0.4-0.4-0.9-0.5-1.4-0.3C20.3,2.3,20,2.7,20,3.3V30h2V18.2c2.3-0.5,4-2.5,4-4.9V10
		C26,7.6,25.1,5.3,23.4,3.6z M24,13.3c0,1.3-0.8,2.4-2,2.8V5.1c1.3,1.3,2,3.1,2,4.9V13.3z M14,2h2v9c0,1.7-1.3,3-3,3h-1v16h-2V14H9
		c-1.7,0-3-1.3-3-3V2h2v9c0,0.6,0.4,1,1,1h1V2h2v10h1c0.6,0,1-0.4,1-1V2z"/>
</g>
</svg>
