<?xml version="1.0" encoding="utf-8"?>
<!-- Generator: Adobe Illustrator 25.4.1, SVG Export Plug-In . SVG Version: 6.00 Build 0)  -->
<svg version="1.1" id="Layer_1" xmlns="http://www.w3.org/2000/svg" xmlns:xlink="http://www.w3.org/1999/xlink" x="0px" y="0px"
	 width="32px" height="32px" viewBox="0 0 32 32" style="enable-background:new 0 0 32 32;" xml:space="preserve">
<style type="text/css">
	.st0{fill:#FFFFFF;}
	.st1{fill:none;stroke:#999999;stroke-width:2.000000e-02;stroke-miterlimit:10;}
	.st2{fill:none;stroke:#FF00FF;stroke-width:4.000000e-02;stroke-miterlimit:10;}
	.st3{fill:none;stroke:#FF00FF;stroke-width:0.1;stroke-miterlimit:10;}
	.st4{opacity:0.3;fill:none;stroke:#000000;stroke-width:2;stroke-miterlimit:10;}
	.st5{opacity:0.3;}
	.st6{fill:#ED1C24;}
	.st7{fill:#39B54A;}
	.st8{fill:none;}
	.st9{fill:none;stroke:#FFFFFF;stroke-miterlimit:10;}
</style>
<g>
	<path d="M30,19c0,3.9-3.1,7-7,7c-1.8,0-3.6-0.7-4.9-2h-4.2c-1.3,1.3-3.1,2-4.9,2c-3.9,0-7-3.1-7-7s3.1-7,7-7h5v2H9
		c-2.8,0-5,2.2-5,5s2.2,5,5,5c1.4,0,2.8-0.6,3.7-1.7L13,22h6l0.3,0.3c0.9,1.1,2.3,1.7,3.7,1.7c2.8,0,5-2.2,5-5s-2.2-5-5-5h-8v-1v-1
		V8c0-1.1,0.9-2,2-2h4v2h-4v4h6C26.9,12,30,15.1,30,19z M10,22v-2h2v-2h-2v-2H8v2H6v2h2v2H10z M23,16c-0.6,0-1,0.4-1,1
		c0,0.6,0.4,1,1,1s1-0.4,1-1C24,16.4,23.6,16,23,16z M23,22c0.6,0,1-0.4,1-1c0-0.6-0.4-1-1-1s-1,0.4-1,1C22,21.6,22.4,22,23,22z
		 M21,18c-0.6,0-1,0.4-1,1c0,0.6,0.4,1,1,1s1-0.4,1-1C22,18.4,21.6,18,21,18z M25,20c0.6,0,1-0.4,1-1c0-0.6-0.4-1-1-1s-1,0.4-1,1
		C24,19.6,24.4,20,25,20z"/>
	<rect y="0" class="st8" width="32" height="32"/>
</g>
</svg>
