<?xml version="1.0" encoding="utf-8"?>
<!-- Generator: Adobe Illustrator 25.4.1, SVG Export Plug-In . SVG Version: 6.00 Build 0)  -->
<svg version="1.1" id="Layer_1" xmlns="http://www.w3.org/2000/svg" xmlns:xlink="http://www.w3.org/1999/xlink" x="0px" y="0px"
	 width="32px" height="32px" viewBox="0 0 32 32" style="enable-background:new 0 0 32 32;" xml:space="preserve">
<style type="text/css">
	.st0{fill:#FFFFFF;}
	.st1{fill:none;stroke:#999999;stroke-width:2.000000e-02;stroke-miterlimit:10;}
	.st2{fill:none;stroke:#FF00FF;stroke-width:4.000000e-02;stroke-miterlimit:10;}
	.st3{fill:none;stroke:#FF00FF;stroke-width:0.1;stroke-miterlimit:10;}
	.st4{opacity:0.3;fill:none;stroke:#000000;stroke-width:2;stroke-miterlimit:10;}
	.st5{opacity:0.3;}
	.st6{fill:#ED1C24;}
	.st7{fill:#39B54A;}
	.st8{fill:none;}
</style>
<g>
	<path d="M19.2,23.6l0.9,1.9C18.8,25.8,17.4,26,16,26s-2.8-0.2-4.1-0.5l0.9-1.9c1,0.2,2.1,0.4,3.2,0.4S18.2,23.9,19.2,23.6z
		 M9.1,22.1C6,20.3,4,17.4,4,14c0-3.4,2.4-6,5.5-6c2,0,3.9,1.1,4.8,2.9l0.5-1c0.2-0.4,0.4-0.7,0.6-1C14,7.1,11.8,6,9.5,6
		C5.3,6,2,9.5,2,14c0,4.1,2.5,7.8,6.2,10L9.1,22.1z M16.6,15.6L21.9,27l1.8-0.8l-6.1-12.9L16.6,15.6z M22.5,6
		c-2.9,0-5.6,1.7-6.8,4.3L8.3,26.2l1.8,0.8l7.4-15.8c0.9-1.9,2.9-3.2,5-3.2c3.1,0,5.5,2.6,5.5,6c0,3.4-2,6.3-5.1,8.1l0.9,1.8
		c3.7-2.2,6.2-5.8,6.2-10C30,9.5,26.7,6,22.5,6z"/>
	<rect class="st8" width="32" height="32"/>
</g>
</svg>
