<?xml version="1.0" encoding="utf-8"?>
<!-- Generator: Adobe Illustrator 25.4.1, SVG Export Plug-In . SVG Version: 6.00 Build 0)  -->
<svg version="1.1" id="Layer_1" xmlns="http://www.w3.org/2000/svg" xmlns:xlink="http://www.w3.org/1999/xlink" x="0px" y="0px"
	 width="32px" height="32px" viewBox="0 0 32 32" style="enable-background:new 0 0 32 32;" xml:space="preserve">
<style type="text/css">
	.st0{fill:#FFFFFF;}
	.st1{fill:none;stroke:#999999;stroke-width:2.000000e-02;stroke-miterlimit:10;}
	.st2{fill:none;stroke:#FF00FF;stroke-width:4.000000e-02;stroke-miterlimit:10;}
	.st3{fill:none;stroke:#FF00FF;stroke-width:0.1;stroke-miterlimit:10;}
	.st4{opacity:0.3;fill:none;stroke:#000000;stroke-width:2;stroke-miterlimit:10;}
	.st5{opacity:0.3;}
	.st6{fill:#ED1C24;}
	.st7{fill:#39B54A;}
	.st8{fill:none;}
	.st9{fill:none;stroke:#FFFFFF;stroke-miterlimit:10;}
</style>
<g>
	<rect y="0" class="st8" width="32" height="32"/>
	<path d="M28,28c0,1.1-0.9,2-2,2s-2-0.9-2-2s0.9-2,2-2S28,26.9,28,28z M25,23.4l-4-4L15.4,25c-0.3-0.6-0.8-1.1-1.4-1.4l2.3-2.3
		C15,20.9,14,20,13.5,18.7L10.1,8.5L5.6,4H4V2h1.6c0.5,0,1,0.2,1.4,0.6L26.4,22c0.4,0.4,0.6,0.9,0.6,1.4v1.8c-0.3-0.1-0.6-0.2-1-0.2
		s-0.7,0.1-1,0.2V23.4z M19.6,18l-6.3-6.3l2.1,6.4c0.2,0.7,0.8,1.2,1.4,1.3c0.7,0.2,1.4,0,1.9-0.5L19.6,18z M15,27c0,1.7-1.3,3-3,3
		s-3-1.3-3-3s1.3-3,3-3S15,25.3,15,27z M13,27c0-0.6-0.4-1-1-1s-1,0.4-1,1s0.4,1,1,1S13,27.5,13,27z M17.8,9C17.2,8,16,7.7,15,8.2
		c-0.2,0.1-0.4,0.3-0.5,0.4l2.8,2.8C18,10.9,18.2,9.8,17.8,9z M21.7,11.7l-1.4-1.4l-2.1,2.1l1.4,1.4L21.7,11.7z M22.8,17L22.8,17
		l2.5,2.5l1.4-1.4l-2.5-2.5c-0.6-0.6-1.5-0.8-2.3-0.4l-0.6,0.3L22.8,17z"/>
</g>
</svg>
