<svg width="16" height="16" viewBox="0 0 16 16" fill="none" xmlns="http://www.w3.org/2000/svg">
<g clip-path="url(#clip0_11362_37167)">
<path d="M9.5 8.5H6.5C5.95 8.5 5.5 8.95 5.5 9.5C5.5 10.9 6.6 12 8 12C9.4 12 10.5 10.9 10.5 9.5C10.5 8.95 10.05 8.5 9.5 8.5Z" fill="#101419"/>
<path d="M8 1C4.15 1 1 4.15 1 8C1 11.85 4.15 15 8 15C11.85 15 15 11.85 15 8C15 4.15 11.85 1 8 1ZM8 3C9.1 3 10 3.9 10 5C10 6.1 9.1 7 8 7C6.9 7 6 6.1 6 5C6 3.9 6.9 3 8 3ZM8 13C6.05 13 4.5 11.45 4.5 9.5C4.5 8.4 5.4 7.5 6.5 7.5H9.5C10.6 7.5 11.5 8.4 11.5 9.5C11.5 11.45 9.95 13 8 13Z" fill="#101419"/>
<path d="M8 6C8.55228 6 9 5.55228 9 5C9 4.44772 8.55228 4 8 4C7.44772 4 7 4.44772 7 5C7 5.55228 7.44772 6 8 6Z" fill="#101419"/>
</g>
<defs>
<clipPath id="clip0_11362_37167">
<rect width="16" height="16" fill="white"/>
</clipPath>
</defs>
</svg>
