<svg width="16" height="16" viewBox="0 0 16 16" fill="none" xmlns="http://www.w3.org/2000/svg">
<g clip-path="url(#clip0_11362_37155)">
<path d="M6.55 7.5C6.65 5.45 7.55 3.95 8 3.3C8.5 4 9.35 5.45 9.45 7.5H6.55ZM6.9 3.15C4.85 3.6 3.25 5.35 3.05 7.5H5.55C5.6 5.5 6.3 4 6.9 3.15ZM3.05 8.5C3.25 10.65 4.85 12.4 6.9 12.85C6.3 12 5.6 10.5 5.5 8.5H3.05ZM12.95 7.5C12.75 5.35 11.15 3.6 9.1 3.15C9.7 4 10.4 5.5 10.5 7.5H12.95ZM6.55 8.5C6.65 10.55 7.55 12.05 8 12.7C8.5 12 9.35 10.55 9.45 8.5H6.55ZM15 8C15 11.85 11.85 15 8 15C4.15 15 1 11.85 1 8C1 4.15 4.15 1 8 1C11.85 1 15 4.15 15 8ZM14 8C14 4.7 11.3 2 8 2C4.7 2 2 4.7 2 8C2 11.3 4.7 14 8 14C11.3 14 14 11.3 14 8ZM9.1 12.85C11.15 12.4 12.75 10.65 12.95 8.5H10.45C10.4 10.5 9.7 12 9.1 12.85Z" fill="#101419"/>
</g>
<defs>
<clipPath id="clip0_11362_37155">
<rect width="16" height="16" fill="white"/>
</clipPath>
</defs>
</svg>
