<svg width="16" height="16" viewBox="0 0 16 16" fill="none" xmlns="http://www.w3.org/2000/svg">
<g clip-path="url(#clip0_7667_34035)">
<path d="M1 8C1 11.85 4.15 15 8 15C11.85 15 15 11.85 15 8C15 4.15 11.85 1 8 1C4.15 1 1 4.15 1 8ZM9 11C9 11.55 8.55 12 8 12C7.45 12 7 11.55 7 11C7 10.45 7.45 10 8 10C8.55 10 9 10.45 9 11ZM9 8C9 8.55 8.55 9 8 9C7.45 9 7 8.55 7 8C7 7.45 7.45 7 8 7C8.55 7 9 7.45 9 8ZM9 5C9 5.55 8.55 6 8 6C7.45 6 7 5.55 7 5C7 4.45 7.45 4 8 4C8.55 4 9 4.45 9 5Z" fill="#101419"/>
</g>
<defs>
<clipPath id="clip0_7667_34035">
<rect width="16" height="16" fill="white" transform="translate(0 16) rotate(-90)"/>
</clipPath>
</defs>
</svg>
