<?xml version="1.0" encoding="utf-8"?>
<!-- Generator: Adobe Illustrator 25.4.1, SVG Export Plug-In . SVG Version: 6.00 Build 0)  -->
<svg version="1.1" id="Layer_1" xmlns="http://www.w3.org/2000/svg" xmlns:xlink="http://www.w3.org/1999/xlink" x="0px" y="0px"
	 width="32px" height="32px" viewBox="0 0 32 32" style="enable-background:new 0 0 32 32;" xml:space="preserve">
<style type="text/css">
	.st0{fill:#FFFFFF;}
	.st1{fill:none;stroke:#999999;stroke-width:2.000000e-02;stroke-miterlimit:10;}
	.st2{fill:none;stroke:#FF00FF;stroke-width:4.000000e-02;stroke-miterlimit:10;}
	.st3{fill:none;stroke:#FF00FF;stroke-width:0.1;stroke-miterlimit:10;}
	.st4{opacity:0.3;fill:none;stroke:#000000;stroke-width:2;stroke-miterlimit:10;}
	.st5{opacity:0.3;}
	.st6{fill:#ED1C24;}
	.st7{fill:#39B54A;}
	.st8{fill:none;}
</style>
<g>
	<path d="M21,18c0,0.7,0.2,1.4,0.5,2H10.5c0.3-0.6,0.5-1.3,0.5-2v-5c0-2.8,2.2-5,5-5s5,2.2,5,5V18z M30,16c0,7.7-6.3,14-14,14
		S2,23.7,2,16S8.3,2,16,2S30,8.3,30,16z M19,23h-2c0,0.6-0.4,1-1,1s-1-0.4-1-1h-2c0,1.7,1.3,3,3,3S19,24.7,19,23z M25,20
		c-1.1,0-2-0.9-2-2v-5c0-3.9-3.1-7-7-7s-7,3.1-7,7v5c0,1.1-0.9,2-2,2v2h18V20z"/>
	<rect class="st8" width="32" height="32"/>
</g>
</svg>
